<?xml version="1.0" standalone="no"?>
<!DOCTYPE svg PUBLIC "-//W3C//DTD SVG 20010904//EN"
 "http://www.w3.org/TR/2001/REC-SVG-20010904/DTD/svg10.dtd">
<svg version="1.0" xmlns="http://www.w3.org/2000/svg"
 width="512.000000pt" height="512.000000pt" viewBox="0 0 512.000000 512.000000"
 preserveAspectRatio="xMidYMid meet">

<g transform="translate(0.000000,512.000000) scale(0.100000,-0.100000)"
fill="#000000" stroke="none">
<path d="M1569 5106 c-134 -36 -242 -155 -269 -295 -6 -34 -10 -378 -10 -928
0 -690 -3 -874 -12 -877 -7 -2 -42 -9 -78 -16 -297 -55 -554 -295 -636 -595
-24 -87 -29 -283 -11 -371 32 -152 102 -287 204 -395 68 -72 99 -84 142 -57
15 9 29 5 80 -27 54 -34 61 -41 61 -70 0 -19 8 -39 20 -50 50 -45 302 -80 420
-57 51 10 56 10 73 -11 189 -231 327 -343 566 -460 l124 -60 -26 -19 c-50 -37
-151 -174 -193 -263 -63 -133 -75 -189 -81 -361 l-5 -151 27 -21 28 -22 782 0
c776 0 783 0 809 21 26 20 26 22 26 142 0 134 -20 248 -49 287 -26 36 -86 35
-114 -2 -19 -26 -19 -29 -3 -107 9 -45 16 -106 16 -136 l0 -55 -501 0 -501 0
4 173 c4 150 7 177 25 212 31 59 77 114 141 167 l57 47 119 1 c65 0 164 7 221
17 l102 16 44 -31 c24 -16 71 -58 104 -91 49 -50 65 -61 92 -61 41 0 73 30 73
69 0 31 -68 124 -111 153 -23 15 -21 16 92 70 265 126 463 297 625 538 69 105
141 249 173 350 21 64 22 66 73 84 132 47 222 139 269 278 17 52 20 79 17 154
-6 107 -39 192 -104 264 -45 50 -142 116 -184 125 l-30 7 0 1032 c0 657 -4
1053 -10 1087 -22 118 -99 218 -208 271 l-67 33 -1180 2 c-914 1 -1190 -1
-1226 -11z m2419 -164 c54 -29 98 -89 111 -153 8 -34 11 -375 11 -1046 0 -944
-1 -995 -17 -988 -103 41 -401 131 -528 159 -447 100 -954 113 -1400 36 -216
-37 -517 -120 -708 -195 -17 -7 -17 39 -15 1016 l3 1024 24 48 c25 52 71 92
128 113 31 11 246 13 1193 11 l1155 -2 43 -23z m-438 -2551 c151 -99 355 -172
525 -187 l76 -7 -7 -61 c-56 -538 -430 -1003 -939 -1170 -135 -44 -214 -57
-380 -62 -251 -9 -431 28 -652 136 -361 176 -625 497 -729 885 -25 96 -47 125
-92 125 -14 0 -35 -9 -47 -20 l-22 -20 -41 30 c-120 87 -156 241 -86 370 24
45 86 110 104 110 4 0 3 -24 -1 -52 -11 -78 -10 -217 1 -238 12 -23 49 -34
170 -54 269 -44 630 -47 890 -7 328 50 646 156 935 310 l110 58 50 -45 c27
-25 88 -70 135 -101z m781 100 c121 -100 131 -297 20 -411 -26 -28 -52 -50
-57 -50 -7 0 -8 19 -3 53 4 28 8 115 8 192 0 77 -4 164 -8 193 -4 28 -5 52 -1
52 3 0 21 -13 41 -29z m-1861 -1716 c0 -3 -21 -31 -47 -63 -25 -31 -60 -86
-77 -122 -31 -64 -31 -67 -34 -252 l-4 -188 -109 0 -109 0 0 54 c0 194 118
424 280 542 38 28 100 46 100 29z"/>
<path d="M1885 4631 c-31 -13 -48 -39 -48 -71 0 -40 25 -66 78 -79 25 -6 49
-20 55 -30 16 -30 14 -1184 -2 -1228 -10 -28 -10 -39 3 -61 35 -62 107 -51
144 23 19 39 20 60 20 660 0 616 0 620 -22 660 -48 90 -163 153 -228 126z"/>
<path d="M2743 4625 c-77 -33 -41 -145 46 -145 11 0 29 -12 40 -26 21 -26 21
-35 21 -605 0 -503 -2 -584 -16 -618 -14 -36 -14 -42 0 -70 31 -60 105 -53
140 14 21 39 21 53 24 659 l2 618 -24 53 c-27 59 -85 109 -139 120 -18 4 -39
8 -47 10 -8 2 -29 -2 -47 -10z"/>
<path d="M3615 4630 c-31 -12 -48 -37 -48 -70 0 -40 25 -66 78 -79 25 -6 49
-20 55 -30 16 -30 14 -1184 -2 -1228 -10 -28 -10 -39 3 -61 35 -62 107 -51
144 23 19 39 20 60 20 660 0 616 0 620 -22 660 -48 89 -160 151 -228 125z"/>
<path d="M2085 2085 c-22 -21 -25 -33 -25 -103 0 -69 3 -81 23 -100 33 -31 80
-29 106 4 17 22 21 41 21 101 0 65 -3 77 -25 98 -13 14 -36 25 -50 25 -14 0
-37 -11 -50 -25z"/>
<path d="M3365 2085 c-22 -21 -25 -33 -25 -98 0 -91 21 -127 74 -127 56 0 76
32 76 124 0 68 -3 80 -25 101 -13 14 -36 25 -50 25 -14 0 -37 -11 -50 -25z"/>
<path d="M2582 1823 c-7 -3 -19 -18 -28 -35 -14 -28 -14 -33 8 -76 27 -55 91
-107 151 -123 114 -31 248 30 291 131 40 96 -78 155 -133 67 -21 -35 -57 -57
-92 -57 -24 0 -79 27 -79 39 0 4 -11 20 -25 35 -23 25 -60 33 -93 19z"/>
<path d="M2725 445 c-14 -13 -25 -36 -25 -50 0 -33 42 -75 75 -75 33 0 75 42
75 75 0 33 -42 75 -75 75 -14 0 -37 -11 -50 -25z"/>
</g>
</svg>
