<?xml version="1.0" standalone="no"?>
<!DOCTYPE svg PUBLIC "-//W3C//DTD SVG 20010904//EN"
 "http://www.w3.org/TR/2001/REC-SVG-20010904/DTD/svg10.dtd">
<svg version="1.0" xmlns="http://www.w3.org/2000/svg"
 width="500.000000pt" height="500.000000pt" viewBox="0 0 500.000000 500.000000"
 preserveAspectRatio="xMidYMid meet">

<g transform="translate(0.000000,500.000000) scale(0.100000,-0.100000)"
fill="#000000" stroke="none">
<path d="M2494 4259 c-10 -12 -38 -35 -61 -51 -56 -38 -73 -73 -73 -150 0 -70
13 -106 23 -66 4 12 7 38 7 56 0 57 68 112 140 112 38 0 43 -3 70 -47 16 -27
35 -55 43 -63 8 -8 18 -30 22 -49 12 -55 28 -11 20 55 -8 69 -12 81 -44 124
-14 19 -33 49 -41 65 -20 40 -76 47 -106 14z m145 -169 c11 -24 11 -24 -3 -6
-9 11 -16 24 -16 30 0 12 5 7 19 -24z"/>
<path d="M2678 3583 c-3 -75 -4 -78 -37 -100 -38 -25 -100 -30 -163 -13 -51
15 -66 32 -73 88 -12 85 -16 93 -45 79 -17 -9 -30 -30 -45 -77 -12 -36 -25
-72 -28 -80 -20 -47 -32 -146 -29 -240 l4 -105 269 0 269 0 4 40 c23 192 13
303 -39 404 -22 45 -57 81 -77 81 -4 0 -8 -35 -10 -77z"/>
<path d="M2226 2682 c-22 -39 -66 -274 -66 -354 0 -46 1 -47 39 -58 35 -9 247
-40 276 -40 7 0 17 11 23 25 6 14 18 25 27 25 8 0 17 -11 21 -25 6 -22 11 -25
56 -25 89 0 257 30 281 50 15 13 -42 371 -62 392 -4 4 -25 -2 -48 -13 -94 -47
-284 -63 -393 -34 -30 8 -76 25 -102 39 -26 14 -49 22 -52 18z"/>
</g>
</svg>
