<svg width="120" height="120" viewBox="0 0 120 120" fill="none" xmlns="http://www.w3.org/2000/svg">
<path d="M0 60C0 75.913 6.32141 91.1742 17.5736 102.426C28.8258 113.679 44.087 120 60 120C75.913 120 91.1742 113.679 102.426 102.426C113.679 91.1742 120 75.913 120 60C120 44.087 113.679 28.8258 102.426 17.5736C91.1742 6.32141 75.913 0 60 0C44.087 0 28.8258 6.32141 17.5736 17.5736C6.32141 28.8258 0 44.087 0 60ZM56.25 78.75C56.25 76.6875 57.9375 75 60 75C70.5469 75 80.0625 79.8047 87.1172 87.4453C88.5234 88.9688 88.4297 91.3359 86.9063 92.7422C85.3828 94.1484 83.0156 94.0547 81.6094 92.5313C75.75 86.1797 68.1563 82.4766 59.9766 82.4766C57.9141 82.4766 56.2266 80.7891 56.2266 78.7266L56.25 78.75ZM37.5 97.5C31.2891 97.5 26.25 92.5781 26.25 86.4844C26.25 81.7969 32.9531 72.3281 36 68.2734C36.75 67.2422 38.25 67.2422 39 68.2734C42.0938 72.3281 48.75 81.7969 48.75 86.4844C48.75 92.5781 43.7109 97.5 37.5 97.5ZM86.1562 48.75C86.1562 50.7391 85.3661 52.6468 83.9595 54.0533C82.553 55.4598 80.6454 56.25 78.6562 56.25C76.6671 56.25 74.7595 55.4598 73.353 54.0533C71.9464 52.6468 71.1562 50.7391 71.1562 48.75C71.1562 46.7609 71.9464 44.8532 73.353 43.4467C74.7595 42.0402 76.6671 41.25 78.6562 41.25C80.6454 41.25 82.553 42.0402 83.9595 43.4467C85.3661 44.8532 86.1562 46.7609 86.1562 48.75ZM41.1563 41.25C43.1454 41.25 45.053 42.0402 46.4596 43.4467C47.8661 44.8532 48.6562 46.7609 48.6562 48.75C48.6562 50.7391 47.8661 52.6468 46.4596 54.0533C45.053 55.4598 43.1454 56.25 41.1563 56.25C39.1671 56.25 37.2595 55.4598 35.853 54.0533C34.4464 52.6468 33.6562 50.7391 33.6562 48.75C33.6562 46.7609 34.4464 44.8532 35.853 43.4467C37.2595 42.0402 39.1671 41.25 41.1563 41.25Z" fill="#73ABDE"/>
</svg>
