<svg width="130" height="124" viewBox="0 0 130 124" fill="none" xmlns="http://www.w3.org/2000/svg">
<path fill-rule="evenodd" clip-rule="evenodd" d="M65.0009 91.0017C90.1303 91.0017 110.502 70.6303 110.502 45.5009C110.502 20.3715 90.1303 0 65.0009 0C39.8715 0 19.5 20.3715 19.5 45.5009C19.5 70.6303 39.8715 91.0017 65.0009 91.0017ZM65.0009 26.0005C63.1542 26.0005 61.9194 28.2158 59.4492 32.6465L58.8103 33.7929C58.1089 35.052 57.7579 35.6816 57.2107 36.0972C56.6629 36.5123 55.9819 36.6666 54.6189 36.975L53.378 37.2558C48.5814 38.3413 46.1831 38.8836 45.6127 40.7186C45.0417 42.5531 46.6767 44.465 49.9467 48.2888L50.7929 49.2782C51.722 50.3649 52.1863 50.9082 52.3958 51.5804C52.6048 52.2525 52.5346 52.9771 52.3942 54.4275L52.2659 55.7468C51.7718 60.8486 51.5247 63.3994 53.0182 64.5336C54.5122 65.6673 56.7574 64.6337 61.2484 62.5659L62.4102 62.0314C63.6865 61.4433 64.3243 61.1498 65.0009 61.1498C65.6774 61.1498 66.3153 61.4433 67.5921 62.0314L68.7534 62.5659C73.2443 64.6337 75.4895 65.6673 76.9841 64.5336C78.4776 63.3994 78.2299 60.8486 77.7358 55.7468L77.6076 54.4275C77.4672 52.9771 77.397 52.2525 77.6059 51.5804C77.8154 50.9082 78.2797 50.3649 79.2088 49.2782L80.0551 48.2888C83.3245 44.465 84.96 42.5531 84.3896 40.7186C83.8186 38.8836 81.4203 38.3413 76.6237 37.2558L75.3828 36.975C74.0198 36.6666 73.3388 36.5123 72.7911 36.0972C72.2439 35.6816 71.8929 35.052 71.1915 33.7929L70.5525 32.6465C68.0823 28.2158 66.8475 26.0005 65.0009 26.0005Z" fill="url(#paint0_linear_79_234)"/>
<path d="M16.2187 71.4625L6.44859 81.5792C2.93764 85.2145 1.18216 87.0319 0.574711 88.5712C-0.809329 92.0783 0.375175 95.9695 3.38867 97.8146C4.71135 98.6243 7.09694 98.8763 11.8681 99.3815C14.5621 99.6662 15.9091 99.8083 17.0373 100.24C19.5633 101.209 21.5277 103.243 22.4629 105.858C22.8802 107.026 23.0178 108.421 23.2931 111.211C23.7806 116.15 24.0238 118.62 24.8059 119.99C26.5879 123.111 30.3459 124.337 33.7331 122.904C35.2199 122.275 36.9754 120.457 40.4864 116.822L56.62 100.118C39.0852 97.4486 24.2598 86.5388 16.2187 71.4625Z" fill="url(#paint1_linear_79_234)"/>
<path d="M73.3799 100.118L89.5141 116.822C93.0245 120.457 94.78 122.275 96.2663 122.904C99.654 124.337 103.412 123.111 105.193 119.99C105.976 118.62 106.219 116.15 106.707 111.21C106.982 108.421 107.12 107.026 107.537 105.858C108.472 103.243 110.437 101.209 112.963 100.24C114.091 99.8083 115.438 99.6662 118.131 99.3815C122.902 98.8763 125.288 98.6243 126.611 97.8146C129.625 95.9695 130.809 92.0783 129.425 88.5707C128.818 87.0319 127.063 85.2145 123.551 81.5792L113.781 71.4625C105.74 86.5388 90.9142 97.4486 73.3799 100.118Z" fill="url(#paint2_linear_79_234)"/>
<defs>
<linearGradient id="paint0_linear_79_234" x1="19.5" y1="45.5009" x2="110.502" y2="45.5009" gradientUnits="userSpaceOnUse">
<stop stop-color="#9A76B4"/>
<stop offset="1" stop-color="#DD86B9"/>
</linearGradient>
<linearGradient id="paint1_linear_79_234" x1="0" y1="97.4809" x2="56.62" y2="97.4809" gradientUnits="userSpaceOnUse">
<stop stop-color="#9A76B4"/>
<stop offset="1" stop-color="#DD86B9"/>
</linearGradient>
<linearGradient id="paint2_linear_79_234" x1="73.3799" y1="97.4809" x2="130" y2="97.4809" gradientUnits="userSpaceOnUse">
<stop stop-color="#9A76B4"/>
<stop offset="1" stop-color="#DD86B9"/>
</linearGradient>
</defs>
</svg>
