<svg width="120" height="120" viewBox="0 0 120 120" fill="none" xmlns="http://www.w3.org/2000/svg">
<path fill-rule="evenodd" clip-rule="evenodd" d="M60 0C44.087 0 28.8258 6.32141 17.5736 17.5736C6.32141 28.8258 0 44.087 0 60C0 75.913 6.32141 91.1742 17.5736 102.426C28.8258 113.679 44.087 120 60 120C75.913 120 91.1742 113.679 102.426 102.426C113.679 91.1742 120 75.913 120 60C120 44.087 113.679 28.8258 102.426 17.5736C91.1742 6.32141 75.913 0 60 0ZM28.6543 70.4829C28.6543 69.9145 28.8801 69.3695 29.2819 68.9676C29.6838 68.5658 30.2288 68.34 30.7971 68.34H88.9286C89.4969 68.34 90.0419 68.5658 90.4438 68.9676C90.8457 69.3695 91.0714 69.9145 91.0714 70.4829C91.0714 75.2143 88.7571 81.9429 83.7686 87.48C78.7114 93.1029 70.8771 97.5343 59.8543 97.5343C48.8486 97.5343 41.0143 93.1029 35.9486 87.48C30.9686 81.9429 28.6629 75.2229 28.6629 70.4829H28.6543ZM39.2743 51.2229C36.9453 51.2206 34.7126 50.2932 33.0674 48.6448C32.2528 47.8285 31.6069 46.8599 31.1666 45.794C30.7263 44.7282 30.5003 43.5861 30.5014 42.4329C30.5026 41.2797 30.7308 40.138 31.1732 39.073C31.6155 38.008 32.2633 37.0406 33.0795 36.226C34.728 34.5807 36.9624 33.6577 39.2914 33.66H39.3171C40.4703 33.6617 41.6119 33.8905 42.6767 34.3334C43.7414 34.7762 44.7085 35.4245 45.5228 36.2411C46.337 37.0577 46.9824 38.0267 47.4222 39.0928C47.8619 40.1589 48.0874 41.3011 48.0857 42.4543C48.084 43.6075 47.8552 44.749 47.4123 45.8138C46.9695 46.8786 46.3212 47.8457 45.5046 48.6599C44.688 49.4742 43.719 50.1196 42.6529 50.5593C41.5869 50.9991 40.4446 51.2245 39.2914 51.2229H39.2743ZM80.6829 51.2229C79.5297 51.2212 78.3881 50.9924 77.3233 50.5495C76.2586 50.1066 75.2915 49.4584 74.4772 48.6417C73.663 47.8251 73.0176 46.8561 72.5778 45.7901C72.1381 44.724 71.9126 43.5818 71.9143 42.4286C71.916 41.2754 72.1448 40.1338 72.5877 39.069C73.0305 38.0043 73.6788 37.0372 74.4954 36.2229C75.312 35.4087 76.281 34.7633 77.3471 34.3235C78.4131 33.8838 79.5554 33.6583 80.7086 33.66H80.7257C83.0547 33.6623 85.2874 34.5896 86.9326 36.2381C88.5778 37.8865 89.5008 40.121 89.4986 42.45C89.4963 44.779 88.5689 47.0117 86.9205 48.6569C85.272 50.3021 83.0376 51.2251 80.7086 51.2229H80.6829Z" fill="#FFF691"/>
</svg>
