<svg width="30" height="30" viewBox="0 0 30 30" fill="none" xmlns="http://www.w3.org/2000/svg">
<path d="M27.5 19.375H21.875C21.5435 19.375 21.2255 19.2433 20.9911 19.0089C20.7567 18.7745 20.625 18.4565 20.625 18.125C20.625 17.7935 20.7567 17.4755 20.9911 17.2411C21.2255 17.0067 21.5435 16.875 21.875 16.875H27.1875C27.2704 16.875 27.3499 16.8421 27.4085 16.7835C27.4671 16.7249 27.5 16.6454 27.5 16.5625V2.8125C27.5 2.72962 27.4671 2.65013 27.4085 2.59153C27.3499 2.53292 27.2704 2.5 27.1875 2.5H14.0625C13.9796 2.5 13.9001 2.53292 13.8415 2.59153C13.7829 2.65013 13.75 2.72962 13.75 2.8125V8.125C13.75 8.45652 13.6183 8.77446 13.3839 9.00888C13.1495 9.2433 12.8315 9.375 12.5 9.375C12.1685 9.375 11.8505 9.2433 11.6161 9.00888C11.3817 8.77446 11.25 8.45652 11.25 8.125V2.5C11.25 1.83696 11.5134 1.20107 11.9822 0.732233C12.4511 0.263392 13.087 0 13.75 0L27.5 0C28.163 0 28.7989 0.263392 29.2678 0.732233C29.7366 1.20107 30 1.83696 30 2.5V16.875C30 17.538 29.7366 18.1739 29.2678 18.6428C28.7989 19.1116 28.163 19.375 27.5 19.375Z" fill="white"/>
<path d="M22.5 13.125C22.5 13.4565 22.6317 13.7745 22.8661 14.0089C23.1005 14.2433 23.4185 14.375 23.75 14.375C24.0815 14.375 24.3995 14.2433 24.6339 14.0089C24.8683 13.7745 25 13.4565 25 13.125C25 12.7935 24.8683 12.4755 24.6339 12.2411C24.3995 12.0067 24.0815 11.875 23.75 11.875C23.4185 11.875 23.1005 12.0067 22.8661 12.2411C22.6317 12.4755 22.5 12.7935 22.5 13.125Z" fill="white"/>
<path d="M22.5 6.25C22.5 6.58152 22.6317 6.89946 22.8661 7.13388C23.1005 7.3683 23.4185 7.5 23.75 7.5C24.0815 7.5 24.3995 7.3683 24.6339 7.13388C24.8683 6.89946 25 6.58152 25 6.25C25 5.91848 24.8683 5.60054 24.6339 5.36612C24.3995 5.1317 24.0815 5 23.75 5C23.4185 5 23.1005 5.1317 22.8661 5.36612C22.6317 5.60054 22.5 5.91848 22.5 6.25Z" fill="white"/>
<path d="M16.875 6.25C16.875 6.58152 17.0067 6.89946 17.2411 7.13388C17.4755 7.3683 17.7935 7.5 18.125 7.5C18.4565 7.5 18.7745 7.3683 19.0089 7.13388C19.2433 6.89946 19.375 6.58152 19.375 6.25C19.375 5.91848 19.2433 5.60054 19.0089 5.36612C18.7745 5.1317 18.4565 5 18.125 5C17.7935 5 17.4755 5.1317 17.2411 5.36612C17.0067 5.60054 16.875 5.91848 16.875 6.25Z" fill="white"/>
<path d="M16.875 11.25H1.875C1.37772 11.25 0.900805 11.4475 0.549175 11.7992C0.197544 12.1508 0 12.6277 0 13.125L0 28.125C0 28.6223 0.197544 29.0992 0.549175 29.4508C0.900805 29.8025 1.37772 30 1.875 30H16.875C17.3723 30 17.8492 29.8025 18.2008 29.4508C18.5525 29.0992 18.75 28.6223 18.75 28.125V13.125C18.75 12.6277 18.5525 12.1508 18.2008 11.7992C17.8492 11.4475 17.3723 11.25 16.875 11.25ZM4.375 25C4.12777 25 3.8861 24.9267 3.68054 24.7893C3.47498 24.652 3.31476 24.4568 3.22015 24.2284C3.12554 23.9999 3.10079 23.7486 3.14902 23.5061C3.19725 23.2637 3.3163 23.0409 3.49112 22.8661C3.66593 22.6913 3.88866 22.5722 4.13114 22.524C4.37361 22.4758 4.62495 22.5005 4.85335 22.5951C5.08176 22.6898 5.27699 22.85 5.41434 23.0555C5.55169 23.2611 5.625 23.5028 5.625 23.75C5.625 24.0815 5.4933 24.3995 5.25888 24.6339C5.02446 24.8683 4.70652 25 4.375 25ZM4.375 18.75C4.12777 18.75 3.8861 18.6767 3.68054 18.5393C3.47498 18.402 3.31476 18.2068 3.22015 17.9784C3.12554 17.7499 3.10079 17.4986 3.14902 17.2561C3.19725 17.0137 3.3163 16.7909 3.49112 16.6161C3.66593 16.4413 3.88866 16.3222 4.13114 16.274C4.37361 16.2258 4.62495 16.2505 4.85335 16.3452C5.08176 16.4398 5.27699 16.6 5.41434 16.8055C5.55169 17.0111 5.625 17.2528 5.625 17.5C5.625 17.8315 5.4933 18.1495 5.25888 18.3839C5.02446 18.6183 4.70652 18.75 4.375 18.75ZM9.375 25C9.12777 25 8.8861 24.9267 8.68054 24.7893C8.47498 24.652 8.31476 24.4568 8.22015 24.2284C8.12554 23.9999 8.10079 23.7486 8.14902 23.5061C8.19725 23.2637 8.3163 23.0409 8.49112 22.8661C8.66593 22.6913 8.88866 22.5722 9.13114 22.524C9.37361 22.4758 9.62495 22.5005 9.85335 22.5951C10.0818 22.6898 10.277 22.85 10.4143 23.0555C10.5517 23.2611 10.625 23.5028 10.625 23.75C10.625 24.0815 10.4933 24.3995 10.2589 24.6339C10.0245 24.8683 9.70652 25 9.375 25ZM9.375 18.75C9.12777 18.75 8.8861 18.6767 8.68054 18.5393C8.47498 18.402 8.31476 18.2068 8.22015 17.9784C8.12554 17.7499 8.10079 17.4986 8.14902 17.2561C8.19725 17.0137 8.3163 16.7909 8.49112 16.6161C8.66593 16.4413 8.88866 16.3222 9.13114 16.274C9.37361 16.2258 9.62495 16.2505 9.85335 16.3452C10.0818 16.4398 10.277 16.6 10.4143 16.8055C10.5517 17.0111 10.625 17.2528 10.625 17.5C10.625 17.8315 10.4933 18.1495 10.2589 18.3839C10.0245 18.6183 9.70652 18.75 9.375 18.75ZM14.375 25C14.1278 25 13.8861 24.9267 13.6805 24.7893C13.475 24.652 13.3148 24.4568 13.2201 24.2284C13.1255 23.9999 13.1008 23.7486 13.149 23.5061C13.1972 23.2637 13.3163 23.0409 13.4911 22.8661C13.6659 22.6913 13.8887 22.5722 14.1311 22.524C14.3736 22.4758 14.6249 22.5005 14.8534 22.5951C15.0818 22.6898 15.277 22.85 15.4143 23.0555C15.5517 23.2611 15.625 23.5028 15.625 23.75C15.625 24.0815 15.4933 24.3995 15.2589 24.6339C15.0245 24.8683 14.7065 25 14.375 25ZM14.375 18.75C14.1278 18.75 13.8861 18.6767 13.6805 18.5393C13.475 18.402 13.3148 18.2068 13.2201 17.9784C13.1255 17.7499 13.1008 17.4986 13.149 17.2561C13.1972 17.0137 13.3163 16.7909 13.4911 16.6161C13.6659 16.4413 13.8887 16.3222 14.1311 16.274C14.3736 16.2258 14.6249 16.2505 14.8534 16.3452C15.0818 16.4398 15.277 16.6 15.4143 16.8055C15.5517 17.0111 15.625 17.2528 15.625 17.5C15.625 17.8315 15.4933 18.1495 15.2589 18.3839C15.0245 18.6183 14.7065 18.75 14.375 18.75Z" fill="white"/>
</svg>
