<svg width="209" height="74" viewBox="0 0 209 74" fill="none" xmlns="http://www.w3.org/2000/svg">
<circle cx="37" cy="37" r="37" fill="url(#paint0_linear_212_196)"/>
<path d="M37.0713 35.3042C40.5409 35.3042 43.3535 32.4916 43.3535 29.022C43.3535 25.5525 40.5409 22.7398 37.0713 22.7398C33.6017 22.7398 30.7891 25.5525 30.7891 29.022C30.7891 32.4916 33.6017 35.3042 37.0713 35.3042Z" stroke="white" stroke-width="1.52353" stroke-miterlimit="10" stroke-linecap="round" stroke-linejoin="round"/>
<path d="M43.0733 44.4673V53.2844C43.0733 54.3563 43.8233 55.2821 44.8719 55.5045L54.567 57.5608C55.8454 57.8181 57.0828 56.9652 57.2972 55.6788C57.4957 54.4879 56.7422 53.3455 55.5692 53.059L47.6043 50.9627L47.8331 42.1503C47.975 39.8618 46.622 37.7438 44.4861 36.9103L42.1479 36.0816" stroke="white" stroke-width="1.52353" stroke-miterlimit="10" stroke-linecap="round" stroke-linejoin="round"/>
<path d="M31.9125 36.1286L29.5743 36.9573C27.4384 37.7908 26.0854 39.9088 26.2273 42.1973L26.4561 51.0097L18.4912 53.106C17.3184 53.3925 16.5647 54.5349 16.7632 55.7258C16.9776 57.0122 18.2149 57.865 19.4934 57.6078L29.1884 55.5515C30.2371 55.329 30.987 54.4033 30.987 53.3314V44.5143" stroke="white" stroke-width="1.52353" stroke-miterlimit="10" stroke-linecap="round" stroke-linejoin="round"/>
<path d="M54.891 63.9332L35.3485 64.9871C33.9266 65.0638 32.7022 63.9949 32.5861 62.5758C32.4698 61.1568 33.5043 59.903 34.9195 59.7474L54.3733 57.609C56.15 57.4136 57.7376 58.7235 57.8834 60.5048C58.0292 62.2865 56.6759 63.8369 54.891 63.9332Z" stroke="white" stroke-width="1.52353" stroke-miterlimit="10" stroke-linecap="round" stroke-linejoin="round"/>
<path d="M37.0762 59.3649L21.7753 57.609C19.9986 57.4136 18.4111 58.7235 18.2653 60.5048C18.1195 62.2863 19.4727 63.8368 21.2577 63.9331L29.099 64.4411" stroke="white" stroke-width="1.52353" stroke-miterlimit="10" stroke-linecap="round" stroke-linejoin="round"/>
<path d="M24.3218 35.2677C23.5839 33.5803 23.1744 31.7166 23.1744 29.7571C23.1744 22.1548 29.3373 15.992 36.9395 15.992C44.5418 15.992 50.7046 22.1548 50.7046 29.7571C50.7046 31.5497 50.3619 33.2625 49.7385 34.833" stroke="white" stroke-width="1.52353" stroke-miterlimit="10" stroke-linecap="round" stroke-linejoin="round"/>
<path d="M22.4005 44.679C18.5172 40.8949 16.1058 35.6077 16.1058 29.7572C16.1058 18.2511 25.4334 8.92352 36.9395 8.92352C48.4457 8.92352 57.7732 18.2511 57.7732 29.7572C57.7732 35.5102 55.4413 40.7187 51.6712 44.4889" stroke="white" stroke-width="1.52353" stroke-miterlimit="10" stroke-linecap="round" stroke-linejoin="round"/>
<path d="M84.0723 30.4724C84.0723 30.8477 83.8846 31.0353 83.5093 31.0353H79.5688C79.1935 31.0353 79.0059 30.8477 79.0059 30.4724V11.8252C79.0059 11.4499 79.1935 11.2623 79.5688 11.2623H83.5093C83.8846 11.2623 84.0723 11.4499 84.0723 11.8252V18.2708H91.2919V11.8252C91.2919 11.4499 91.4795 11.2623 91.8548 11.2623H95.7953C96.1706 11.2623 96.3583 11.4499 96.3583 11.8252V30.4724C96.3583 30.8477 96.1706 31.0353 95.7953 31.0353H91.8548C91.4795 31.0353 91.2919 30.8477 91.2919 30.4724V23.112H84.0723V30.4724Z" fill="url(#paint1_linear_212_196)"/>
<path d="M109.602 31.3872C107.698 31.3872 105.957 30.9274 104.381 30.008C102.814 29.0885 101.576 27.8454 100.666 26.2785C99.7649 24.7117 99.3146 22.9901 99.3146 21.1136C99.3146 19.2372 99.7649 17.5156 100.666 15.9487C101.576 14.3819 102.814 13.1481 104.381 12.2474C105.948 11.3374 107.688 10.8823 109.602 10.8823C111.507 10.8823 113.242 11.3374 114.809 12.2474C116.376 13.1575 117.61 14.396 118.511 15.9628C119.421 17.5202 119.876 19.2372 119.876 21.1136C119.876 22.9807 119.421 24.7023 118.511 26.2785C117.61 27.8454 116.371 29.0885 114.795 30.008C113.228 30.9274 111.497 31.3872 109.602 31.3872ZM109.602 26.5319C110.512 26.5319 111.361 26.2973 112.149 25.8282C112.938 25.3497 113.566 24.6976 114.035 23.872C114.504 23.037 114.739 22.1222 114.739 21.1277C114.739 20.1332 114.5 19.2231 114.021 18.3975C113.552 17.5718 112.923 16.9245 112.135 16.4554C111.347 15.9769 110.503 15.7376 109.602 15.7376C108.692 15.7376 107.843 15.9769 107.055 16.4554C106.267 16.9245 105.634 17.5718 105.155 18.3975C104.686 19.2231 104.451 20.1332 104.451 21.1277C104.451 22.1222 104.686 23.0323 105.155 23.8579C105.634 24.6836 106.267 25.3356 107.055 25.8141C107.852 26.2926 108.701 26.5319 109.602 26.5319Z" fill="url(#paint2_linear_212_196)"/>
<path d="M123.384 31.0353C123.008 31.0353 122.821 30.8477 122.821 30.4724V11.8252C122.821 11.4499 123.008 11.2623 123.384 11.2623H131.363C132.724 11.2623 133.929 11.5485 134.98 12.1208C136.031 12.6837 136.847 13.4765 137.429 14.4992C138.02 15.5124 138.315 16.6758 138.315 17.9894C138.315 19.2466 138.057 20.3255 137.541 21.2262C137.025 22.1175 136.303 22.8446 135.374 23.4076L138.864 30.3739C138.92 30.4865 138.949 30.585 138.949 30.6694C138.949 30.782 138.902 30.8711 138.808 30.9368C138.723 31.0025 138.606 31.0353 138.456 31.0353H133.953C133.643 31.0353 133.423 30.8946 133.291 30.6131L130.533 24.7164C130.392 24.7258 130.19 24.7305 129.928 24.7305H127.887V30.4724C127.887 30.8477 127.699 31.0353 127.324 31.0353H123.384ZM130.899 20.4381C131.33 20.4381 131.72 20.3255 132.067 20.1004C132.414 19.8752 132.686 19.5749 132.883 19.1997C133.08 18.8244 133.179 18.4256 133.179 18.0034C133.179 17.2622 132.963 16.6946 132.531 16.3006C132.1 15.8971 131.57 15.6954 130.941 15.6954H127.887V20.4381H130.899Z" fill="url(#paint3_linear_212_196)"/>
<path d="M146.778 30.4724C146.778 30.8477 146.59 31.0353 146.215 31.0353H142.275C141.899 31.0353 141.712 30.8477 141.712 30.4724V11.8252C141.712 11.4499 141.899 11.2623 142.275 11.2623H146.215C146.59 11.2623 146.778 11.4499 146.778 11.8252V30.4724Z" fill="url(#paint4_linear_212_196)"/>
<path d="M165.641 30.4724C165.641 30.8477 165.454 31.0353 165.079 31.0353H150.287C149.912 31.0353 149.725 30.8477 149.725 30.4724V27.7281C149.725 27.4748 149.804 27.2402 149.964 27.0244L158.436 15.8361H150.456C150.081 15.8361 149.893 15.6485 149.893 15.2732V11.8252C149.893 11.4499 150.081 11.2623 150.456 11.2623H164.614C164.989 11.2623 165.177 11.4499 165.177 11.8252V14.3303C165.177 14.5836 165.097 14.8182 164.938 15.034L156.311 26.4615H165.079C165.454 26.4615 165.641 26.6491 165.641 27.0244V30.4724Z" fill="url(#paint5_linear_212_196)"/>
<path d="M177.599 31.3872C175.695 31.3872 173.954 30.9274 172.378 30.008C170.811 29.0885 169.573 27.8454 168.663 26.2785C167.762 24.7117 167.312 22.9901 167.312 21.1136C167.312 19.2372 167.762 17.5156 168.663 15.9487C169.573 14.3819 170.811 13.1481 172.378 12.2474C173.945 11.3374 175.685 10.8823 177.599 10.8823C179.504 10.8823 181.24 11.3374 182.807 12.2474C184.373 13.1575 185.607 14.396 186.508 15.9628C187.418 17.5202 187.873 19.2372 187.873 21.1136C187.873 22.9807 187.418 24.7023 186.508 26.2785C185.607 27.8454 184.369 29.0885 182.792 30.008C181.226 30.9274 179.495 31.3872 177.599 31.3872ZM177.599 26.5319C178.509 26.5319 179.359 26.2973 180.147 25.8282C180.935 25.3497 181.563 24.6976 182.033 23.872C182.502 23.037 182.736 22.1222 182.736 21.1277C182.736 20.1332 182.497 19.2231 182.018 18.3975C181.549 17.5718 180.921 16.9245 180.133 16.4554C179.345 15.9769 178.5 15.7376 177.599 15.7376C176.689 15.7376 175.84 15.9769 175.052 16.4554C174.264 16.9245 173.631 17.5718 173.152 18.3975C172.683 19.2231 172.449 20.1332 172.449 21.1277C172.449 22.1222 172.683 23.0323 173.152 23.8579C173.631 24.6836 174.264 25.3356 175.052 25.8141C175.85 26.2926 176.699 26.5319 177.599 26.5319Z" fill="url(#paint6_linear_212_196)"/>
<path d="M195.744 30.4724C195.744 30.8477 195.556 31.0353 195.181 31.0353H191.381C191.005 31.0353 190.818 30.8477 190.818 30.4724V11.8252C190.818 11.4499 191.005 11.2623 191.381 11.2623H195.729C196.03 11.2623 196.255 11.3843 196.405 11.6282L203.146 22.4365V11.8252C203.146 11.4499 203.334 11.2623 203.709 11.2623H207.509C207.884 11.2623 208.072 11.4499 208.072 11.8252V30.4724C208.072 30.8477 207.884 31.0353 207.509 31.0353H203.639C203.348 31.0353 203.123 30.9134 202.963 30.6694L195.744 19.2419V30.4724Z" fill="url(#paint7_linear_212_196)"/>
<path d="M85.0984 60.9294C85.0984 61.3594 84.8834 61.5744 84.4534 61.5744H79.9382C79.5082 61.5744 79.2932 61.3594 79.2932 60.9294V39.5629C79.2932 39.1329 79.5082 38.9178 79.9382 38.9178H84.4534C84.8834 38.9178 85.0984 39.1329 85.0984 39.5629V46.9484H93.3709V39.5629C93.3709 39.1329 93.5859 38.9178 94.0159 38.9178H98.5311C98.9611 38.9178 99.1762 39.1329 99.1762 39.5629V60.9294C99.1762 61.3594 98.9611 61.5744 98.5311 61.5744H94.0159C93.5859 61.5744 93.3709 61.3594 93.3709 60.9294V52.4957H85.0984V60.9294Z" fill="url(#paint8_linear_212_196)"/>
<path d="M121.898 60.9294C121.898 61.3594 121.683 61.5744 121.253 61.5744H105.837C105.407 61.5744 105.192 61.3594 105.192 60.9294V39.5629C105.192 39.1329 105.407 38.9178 105.837 38.9178H121.011C121.441 38.9178 121.656 39.1329 121.656 39.5629V43.5137C121.656 43.9437 121.441 44.1587 121.011 44.1587H110.997V47.6902H118.689C119.119 47.6902 119.334 47.9052 119.334 48.3352V51.9635C119.334 52.3935 119.119 52.6085 118.689 52.6085H110.997V56.3336H121.253C121.683 56.3336 121.898 56.5486 121.898 56.9786V60.9294Z" fill="url(#paint9_linear_212_196)"/>
<path d="M146.926 60.8326C146.958 60.9294 146.975 61.0208 146.975 61.1068C146.975 61.2573 146.926 61.3755 146.829 61.4615C146.733 61.5368 146.598 61.5744 146.426 61.5744H141.782C141.417 61.5744 141.175 61.397 141.056 61.0423L140.024 58.0268H131.897L130.865 61.0423C130.758 61.397 130.516 61.5744 130.139 61.5744H125.511C125.339 61.5744 125.2 61.5368 125.092 61.4615C124.995 61.3755 124.947 61.2573 124.947 61.1068C124.947 61.0208 124.963 60.9294 124.995 60.8326L133.252 39.4016C133.381 39.0576 133.628 38.8856 133.993 38.8856H137.976C138.342 38.8856 138.589 39.0576 138.718 39.4016L146.926 60.8326ZM138.396 53.1891L136.235 46.8356L135.945 45.8035L135.703 46.8356L133.542 53.1891H138.396Z" fill="url(#paint10_linear_212_196)"/>
<path d="M166.351 60.9294C166.351 61.3594 166.136 61.5744 165.706 61.5744H151.806C151.376 61.5744 151.161 61.3594 151.161 60.9294V39.5629C151.161 39.1329 151.376 38.9178 151.806 38.9178H156.321C156.751 38.9178 156.966 39.1329 156.966 39.5629V56.0272H165.706C166.136 56.0272 166.351 56.2422 166.351 56.6722V60.9294Z" fill="url(#paint11_linear_212_196)"/>
<path d="M177.673 60.9294C177.673 61.3594 177.458 61.5744 177.028 61.5744H172.513C172.083 61.5744 171.868 61.3594 171.868 60.9294V44.32H166.434C166.004 44.32 165.789 44.1049 165.789 43.6749V39.5629C165.789 39.1329 166.004 38.9178 166.434 38.9178H183.124C183.554 38.9178 183.769 39.1329 183.769 39.5629V43.6749C183.769 44.1049 183.554 44.32 183.124 44.32H177.673V60.9294Z" fill="url(#paint12_linear_212_196)"/>
<path d="M193.884 60.9294C193.884 61.3594 193.669 61.5744 193.239 61.5744H188.724C188.294 61.5744 188.079 61.3594 188.079 60.9294V39.5629C188.079 39.1329 188.294 38.9178 188.724 38.9178H193.239C193.669 38.9178 193.884 39.1329 193.884 39.5629V46.9484H202.157V39.5629C202.157 39.1329 202.372 38.9178 202.802 38.9178H207.317C207.747 38.9178 207.962 39.1329 207.962 39.5629V60.9294C207.962 61.3594 207.747 61.5744 207.317 61.5744H202.802C202.372 61.5744 202.157 61.3594 202.157 60.9294V52.4957H193.884V60.9294Z" fill="url(#paint13_linear_212_196)"/>
<defs>
<linearGradient id="paint0_linear_212_196" x1="20.5845" y1="1.08191e-06" x2="49.507" y2="74" gradientUnits="userSpaceOnUse">
<stop stop-color="#9A76B4"/>
<stop offset="0.308" stop-color="#DD86B9"/>
<stop offset="0.548" stop-color="#F497AA"/>
<stop offset="0.788" stop-color="#F9B48B"/>
<stop offset="1" stop-color="#FDCD79"/>
</linearGradient>
<linearGradient id="paint1_linear_212_196" x1="143.539" y1="10.8823" x2="143.539" y2="61.5744" gradientUnits="userSpaceOnUse">
<stop stop-color="#5E9ED9"/>
<stop offset="0.355" stop-color="#73ABDE"/>
<stop offset="0.655" stop-color="#6BCADE"/>
<stop offset="1" stop-color="#82CCB5"/>
</linearGradient>
<linearGradient id="paint2_linear_212_196" x1="143.539" y1="10.8823" x2="143.539" y2="61.5744" gradientUnits="userSpaceOnUse">
<stop stop-color="#5E9ED9"/>
<stop offset="0.355" stop-color="#73ABDE"/>
<stop offset="0.655" stop-color="#6BCADE"/>
<stop offset="1" stop-color="#82CCB5"/>
</linearGradient>
<linearGradient id="paint3_linear_212_196" x1="143.539" y1="10.8823" x2="143.539" y2="61.5744" gradientUnits="userSpaceOnUse">
<stop stop-color="#5E9ED9"/>
<stop offset="0.355" stop-color="#73ABDE"/>
<stop offset="0.655" stop-color="#6BCADE"/>
<stop offset="1" stop-color="#82CCB5"/>
</linearGradient>
<linearGradient id="paint4_linear_212_196" x1="143.539" y1="10.8823" x2="143.539" y2="61.5744" gradientUnits="userSpaceOnUse">
<stop stop-color="#5E9ED9"/>
<stop offset="0.355" stop-color="#73ABDE"/>
<stop offset="0.655" stop-color="#6BCADE"/>
<stop offset="1" stop-color="#82CCB5"/>
</linearGradient>
<linearGradient id="paint5_linear_212_196" x1="143.539" y1="10.8823" x2="143.539" y2="61.5744" gradientUnits="userSpaceOnUse">
<stop stop-color="#5E9ED9"/>
<stop offset="0.355" stop-color="#73ABDE"/>
<stop offset="0.655" stop-color="#6BCADE"/>
<stop offset="1" stop-color="#82CCB5"/>
</linearGradient>
<linearGradient id="paint6_linear_212_196" x1="143.539" y1="10.8823" x2="143.539" y2="61.5744" gradientUnits="userSpaceOnUse">
<stop stop-color="#5E9ED9"/>
<stop offset="0.355" stop-color="#73ABDE"/>
<stop offset="0.655" stop-color="#6BCADE"/>
<stop offset="1" stop-color="#82CCB5"/>
</linearGradient>
<linearGradient id="paint7_linear_212_196" x1="143.539" y1="10.8823" x2="143.539" y2="61.5744" gradientUnits="userSpaceOnUse">
<stop stop-color="#5E9ED9"/>
<stop offset="0.355" stop-color="#73ABDE"/>
<stop offset="0.655" stop-color="#6BCADE"/>
<stop offset="1" stop-color="#82CCB5"/>
</linearGradient>
<linearGradient id="paint8_linear_212_196" x1="143.539" y1="10.8823" x2="143.539" y2="61.5744" gradientUnits="userSpaceOnUse">
<stop stop-color="#5E9ED9"/>
<stop offset="0.355" stop-color="#73ABDE"/>
<stop offset="0.655" stop-color="#6BCADE"/>
<stop offset="1" stop-color="#82CCB5"/>
</linearGradient>
<linearGradient id="paint9_linear_212_196" x1="143.539" y1="10.8823" x2="143.539" y2="61.5744" gradientUnits="userSpaceOnUse">
<stop stop-color="#5E9ED9"/>
<stop offset="0.355" stop-color="#73ABDE"/>
<stop offset="0.655" stop-color="#6BCADE"/>
<stop offset="1" stop-color="#82CCB5"/>
</linearGradient>
<linearGradient id="paint10_linear_212_196" x1="143.539" y1="10.8823" x2="143.539" y2="61.5744" gradientUnits="userSpaceOnUse">
<stop stop-color="#5E9ED9"/>
<stop offset="0.355" stop-color="#73ABDE"/>
<stop offset="0.655" stop-color="#6BCADE"/>
<stop offset="1" stop-color="#82CCB5"/>
</linearGradient>
<linearGradient id="paint11_linear_212_196" x1="143.539" y1="10.8823" x2="143.539" y2="61.5744" gradientUnits="userSpaceOnUse">
<stop stop-color="#5E9ED9"/>
<stop offset="0.355" stop-color="#73ABDE"/>
<stop offset="0.655" stop-color="#6BCADE"/>
<stop offset="1" stop-color="#82CCB5"/>
</linearGradient>
<linearGradient id="paint12_linear_212_196" x1="143.539" y1="10.8823" x2="143.539" y2="61.5744" gradientUnits="userSpaceOnUse">
<stop stop-color="#5E9ED9"/>
<stop offset="0.355" stop-color="#73ABDE"/>
<stop offset="0.655" stop-color="#6BCADE"/>
<stop offset="1" stop-color="#82CCB5"/>
</linearGradient>
<linearGradient id="paint13_linear_212_196" x1="143.539" y1="10.8823" x2="143.539" y2="61.5744" gradientUnits="userSpaceOnUse">
<stop stop-color="#5E9ED9"/>
<stop offset="0.355" stop-color="#73ABDE"/>
<stop offset="0.655" stop-color="#6BCADE"/>
<stop offset="1" stop-color="#82CCB5"/>
</linearGradient>
</defs>
</svg>
