<svg width="1376" height="880" viewBox="0 0 1376 880" fill="none" xmlns="http://www.w3.org/2000/svg">
<path d="M-135.254 778.71L-164.254 749.71L213.504 558.337L404.571 180.878L782.349 -10.5026L973.725 -388.272L1002.73 -359.271L811.35 18.4978L433.589 209.869L242.523 587.329L-135.254 778.71Z" fill="white" fill-opacity="0.15"/>
<path d="M-46.4099 867.555L-75.4103 838.554L302.349 647.183L493.415 269.722L871.193 78.3415L1062.57 -299.428L1091.57 -270.427L900.195 107.343L522.434 298.714L331.367 676.173L-46.4099 867.555Z" fill="white" fill-opacity="0.15"/>
<path d="M42.4309 956.395L13.4305 927.395L391.189 736.022L582.255 358.563L960.034 167.182L1151.41 -210.587L1180.41 -181.586L989.034 196.183L611.274 387.554L420.208 765.014L42.4309 956.395Z" fill="white" fill-opacity="0.15"/>
<path d="M131.272 1045.24L102.271 1016.24L480.031 824.864L671.096 447.404L1048.87 256.023L1240.25 -121.746L1269.25 -92.7454L1077.88 285.025L700.115 476.395L509.049 853.855L131.272 1045.24Z" fill="white" fill-opacity="0.15"/>
<path d="M220.116 1134.08L191.116 1105.08L568.875 913.708L759.94 536.247L1137.72 344.867L1329.09 -32.902L1358.1 -3.90164L1166.72 373.869L788.959 565.239L597.893 942.699L220.116 1134.08Z" fill="white" fill-opacity="0.15"/>
<path d="M308.957 1222.92L279.956 1193.92L657.716 1002.55L848.781 625.088L1226.56 433.708L1417.94 55.9388L1446.94 84.9392L1255.56 462.709L877.8 654.08L686.734 1031.54L308.957 1222.92Z" fill="white" fill-opacity="0.15"/>
</svg>
