<svg width="300" height="120" viewBox="0 0 300 120" fill="none" xmlns="http://www.w3.org/2000/svg">
<circle cx="60" cy="60" r="60" fill="url(#paint0_linear_79_188)" fill-opacity="0.2"/>
<path fill-rule="evenodd" clip-rule="evenodd" d="M78.7859 49.5862L67.959 60.5462V67.4086H72.1518C74.3753 67.4086 76.2282 69.2615 75.8576 71.6701C75.4869 73.523 73.8194 74.8198 71.9667 74.8198H66.1063C62.9564 74.8198 60.5478 72.4112 60.5478 69.2615V64.6223H54.0628V72.9221C54.0628 74.775 52.3953 76.4425 50.3572 76.072C48.6896 75.8866 47.5779 74.4045 47.5779 72.7369V61.8431C47.5779 57.7668 50.913 54.4318 54.9892 54.4318H63.6975L73.7831 44.213C75.2655 42.7307 78.0448 42.916 79.3418 44.7688C80.4534 46.2511 80.0829 48.2892 78.7859 49.5862ZM40 50.1713C40 47.0453 42.5341 44.5112 45.6601 44.5112C48.7861 44.5112 51.3202 47.0453 51.3202 50.1713C51.3202 53.2973 48.7861 55.8314 45.6601 55.8314C42.5341 55.8314 40 53.2973 40 50.1713Z" fill="#73ABDE"/>
<circle cx="151" cy="60" r="60" fill="url(#paint1_linear_79_188)" fill-opacity="0.2"/>
<path fill-rule="evenodd" clip-rule="evenodd" d="M144.74 64.8699H145.004L150.928 64.8714C151.528 64.8714 152.015 64.3847 152.015 63.7843C152.015 63.1842 151.528 62.6973 150.928 62.6973H147.408L137.957 56.6942V67.4352C137.957 70.9138 136.218 71.7833 134.479 71.7833C132.739 71.7833 131 70.9138 131 67.4352V53.2158C131 49.7372 134.479 46.2587 139.696 48.8675C142.231 50.135 142.826 50.4789 145.319 51.9182C146.246 52.4541 147.437 53.1417 149.088 54.0854C155.176 57.5639 158.654 61.5653 158.654 65.9134C158.654 69.392 156.045 71.1313 152.567 71.1313H144.74C143.001 71.1313 141.61 69.7398 141.61 68.0005C141.61 66.2612 143.001 64.8699 144.74 64.8699ZM159.698 64.9122C159.698 61.7913 162.228 59.2614 165.349 59.2614C168.47 59.2614 171 61.7913 171 64.9122C171 68.0332 168.47 70.5631 165.349 70.5631C162.228 70.5631 159.698 68.0332 159.698 64.9122Z" fill="#73ABDE"/>
<circle cx="240" cy="60" r="60" fill="url(#paint2_linear_79_188)" fill-opacity="0.2"/>
<path d="M224 44.3611C224 45.5177 224.459 46.627 225.277 47.4449C226.095 48.2627 227.204 48.7222 228.361 48.7222C229.518 48.7222 230.627 48.2627 231.445 47.4449C232.263 46.627 232.722 45.5177 232.722 44.3611C232.722 43.2045 232.263 42.0952 231.445 41.2773C230.627 40.4595 229.518 40 228.361 40C227.204 40 226.095 40.4595 225.277 41.2773C224.459 42.0952 224 43.2045 224 44.3611Z" fill="#73ABDE"/>
<path d="M238.723 55.8919C238.525 55.6112 238.384 55.294 238.309 54.9586C238.234 54.6233 238.227 54.2764 238.287 53.9381C238.343 53.5884 238.47 53.2536 238.659 52.9539C238.847 52.6541 239.095 52.3956 239.386 52.1936L244.846 48.4082C245.447 48.0188 246.154 47.8239 246.869 47.85H251.946C252.64 47.85 253.305 47.5743 253.796 47.0836C254.287 46.5929 254.562 45.9273 254.562 45.2333C254.562 44.5394 254.287 43.8738 253.796 43.3831C253.305 42.8924 252.64 42.6167 251.946 42.6167H246.294C244.873 42.6149 243.485 43.047 242.316 43.8552L236.403 47.9547C234.695 49.1422 233.527 50.9578 233.154 53.0043C232.782 55.0507 233.235 57.1615 234.414 58.8748L236.298 61.5787C236.36 61.6733 236.44 61.7545 236.533 61.8174C236.627 61.8803 236.732 61.9236 236.843 61.9448C236.954 61.966 237.068 61.9646 237.178 61.9406C237.288 61.9167 237.392 61.8707 237.484 61.8055L240.398 59.8866C240.59 59.7497 240.721 59.5432 240.764 59.311C240.789 59.1969 240.79 59.0788 240.766 58.9644C240.742 58.8501 240.694 58.7422 240.624 58.6481L238.723 55.8919Z" fill="#73ABDE"/>
<path d="M254.754 51.3389L253.446 49.3677C253.062 48.7893 252.464 48.3873 251.784 48.2499C251.103 48.1125 250.396 48.251 249.818 48.635C249.239 49.019 248.837 49.617 248.7 50.2975C248.632 50.6344 248.631 50.9814 248.697 51.3188C248.763 51.6561 248.895 51.9771 249.085 52.2634L250.358 54.2521C250.489 54.4141 250.552 54.6205 250.533 54.8278C250.514 54.9413 250.472 55.0497 250.409 55.1458C250.346 55.242 250.263 55.3238 250.166 55.386L238.514 63.1662C238.318 63.2957 238.181 63.4957 238.13 63.7244C238.096 63.9549 238.145 64.19 238.269 64.3873L238.828 65.1723V77.3834C238.828 78.0773 239.103 78.7429 239.594 79.2336C240.085 79.7243 240.75 80 241.444 80C242.138 80 242.804 79.7243 243.295 79.2336C243.785 78.7429 244.061 78.0773 244.061 77.3834V65.8177L252.888 59.939C253.987 59.2428 254.845 58.2259 255.347 57.0257C255.722 56.1017 255.863 55.0999 255.76 54.1084C255.657 53.1168 255.311 52.1658 254.754 51.3389Z" fill="#73ABDE"/>
<defs>
<linearGradient id="paint0_linear_79_188" x1="0" y1="60" x2="120" y2="60" gradientUnits="userSpaceOnUse">
<stop stop-color="#73ABDE"/>
<stop offset="1" stop-color="#6BCADE"/>
</linearGradient>
<linearGradient id="paint1_linear_79_188" x1="91" y1="60" x2="211" y2="60" gradientUnits="userSpaceOnUse">
<stop stop-color="#73ABDE"/>
<stop offset="1" stop-color="#6BCADE"/>
</linearGradient>
<linearGradient id="paint2_linear_79_188" x1="180" y1="60" x2="300" y2="60" gradientUnits="userSpaceOnUse">
<stop stop-color="#73ABDE"/>
<stop offset="1" stop-color="#6BCADE"/>
</linearGradient>
</defs>
</svg>
