<svg width="120" height="120" viewBox="0 0 120 120" fill="none" xmlns="http://www.w3.org/2000/svg">
<path fill-rule="evenodd" clip-rule="evenodd" d="M120 60C120 26.8629 93.1371 0 60 0C26.8629 0 0 26.8629 0 60C0 93.1371 26.8629 120 60 120C93.1371 120 120 93.1371 120 60ZM89.4866 42.4415C89.4866 47.2844 85.5664 51.2116 80.7262 51.2229L80.7054 51.2229C75.8555 51.2229 71.924 47.2913 71.924 42.4415C71.924 37.5986 75.8443 33.6713 80.6846 33.6601L80.7053 33.66C85.5552 33.66 89.4866 37.5916 89.4866 42.4415ZM48.0762 42.4415C48.0762 47.2845 44.1558 51.2117 39.3154 51.2229L39.2946 51.2229C34.4448 51.2229 30.5132 47.2913 30.5132 42.4415C30.5132 37.5986 34.4336 33.6712 39.2739 33.6601L39.2947 33.66C44.1446 33.66 48.0762 37.5916 48.0762 42.4415ZM81.019 74.5677C83.9777 74.5677 86.376 76.9662 86.376 79.9249C86.376 82.8835 83.9777 85.282 81.019 85.282H38.981C36.0223 85.282 33.6238 82.8835 33.6238 79.9249C33.6238 76.9662 36.0223 74.5677 38.981 74.5677H81.019Z" fill="#B6D884"/>
</svg>
