<svg width="295" height="142" viewBox="0 0 295 142" fill="none" xmlns="http://www.w3.org/2000/svg">
<circle cx="235" cy="60" r="60" fill="url(#paint0_linear_79_224)" fill-opacity="0.3"/>
<path d="M251.667 65.8333H244.167C243.725 65.8333 243.301 65.6577 242.988 65.3452C242.676 65.0326 242.5 64.6087 242.5 64.1667C242.5 63.7246 242.676 63.3007 242.988 62.9882C243.301 62.6756 243.725 62.5 244.167 62.5H251.25C251.361 62.5 251.466 62.4561 251.545 62.378C251.623 62.2998 251.667 62.1938 251.667 62.0833V43.75C251.667 43.6395 251.623 43.5335 251.545 43.4554C251.466 43.3772 251.361 43.3333 251.25 43.3333H233.75C233.639 43.3333 233.534 43.3772 233.455 43.4554C233.377 43.5335 233.333 43.6395 233.333 43.75V50.8333C233.333 51.2754 233.158 51.6993 232.845 52.0118C232.533 52.3244 232.109 52.5 231.667 52.5C231.225 52.5 230.801 52.3244 230.488 52.0118C230.176 51.6993 230 51.2754 230 50.8333V43.3333C230 42.4493 230.351 41.6014 230.976 40.9763C231.601 40.3512 232.449 40 233.333 40H251.667C252.551 40 253.399 40.3512 254.024 40.9763C254.649 41.6014 255 42.4493 255 43.3333V62.5C255 63.3841 254.649 64.2319 254.024 64.857C253.399 65.4821 252.551 65.8333 251.667 65.8333Z" fill="#FDCD79"/>
<path d="M245 57.5C245 57.942 245.176 58.366 245.488 58.6785C245.801 58.9911 246.225 59.1667 246.667 59.1667C247.109 59.1667 247.533 58.9911 247.845 58.6785C248.158 58.366 248.333 57.942 248.333 57.5C248.333 57.058 248.158 56.6341 247.845 56.3215C247.533 56.0089 247.109 55.8333 246.667 55.8333C246.225 55.8333 245.801 56.0089 245.488 56.3215C245.176 56.6341 245 57.058 245 57.5Z" fill="#FDCD79"/>
<path d="M245 48.3333C245 48.7754 245.176 49.1993 245.488 49.5118C245.801 49.8244 246.225 50 246.667 50C247.109 50 247.533 49.8244 247.845 49.5118C248.158 49.1993 248.333 48.7754 248.333 48.3333C248.333 47.8913 248.158 47.4674 247.845 47.1548C247.533 46.8423 247.109 46.6667 246.667 46.6667C246.225 46.6667 245.801 46.8423 245.488 47.1548C245.176 47.4674 245 47.8913 245 48.3333Z" fill="#FDCD79"/>
<path d="M237.5 48.3333C237.5 48.7754 237.676 49.1993 237.988 49.5118C238.301 49.8244 238.725 50 239.167 50C239.609 50 240.033 49.8244 240.345 49.5118C240.658 49.1993 240.833 48.7754 240.833 48.3333C240.833 47.8913 240.658 47.4674 240.345 47.1548C240.033 46.8423 239.609 46.6667 239.167 46.6667C238.725 46.6667 238.301 46.8423 237.988 47.1548C237.676 47.4674 237.5 47.8913 237.5 48.3333Z" fill="#FDCD79"/>
<path d="M237.5 55H217.5C216.837 55 216.201 55.2634 215.732 55.7322C215.263 56.2011 215 56.837 215 57.5V77.5C215 78.163 215.263 78.7989 215.732 79.2678C216.201 79.7366 216.837 80 217.5 80H237.5C238.163 80 238.799 79.7366 239.268 79.2678C239.737 78.7989 240 78.163 240 77.5V57.5C240 56.837 239.737 56.2011 239.268 55.7322C238.799 55.2634 238.163 55 237.5 55ZM220.833 73.3333C220.504 73.3333 220.181 73.2356 219.907 73.0525C219.633 72.8693 219.42 72.609 219.294 72.3045C219.167 71.9999 219.134 71.6648 219.199 71.3415C219.263 71.0182 219.422 70.7212 219.655 70.4882C219.888 70.2551 220.185 70.0963 220.508 70.032C220.831 69.9677 221.167 70.0007 221.471 70.1269C221.776 70.253 222.036 70.4666 222.219 70.7407C222.402 71.0148 222.5 71.337 222.5 71.6667C222.5 72.1087 222.324 72.5326 222.012 72.8452C221.699 73.1577 221.275 73.3333 220.833 73.3333ZM220.833 65C220.504 65 220.181 64.9023 219.907 64.7191C219.633 64.536 219.42 64.2757 219.294 63.9711C219.167 63.6666 219.134 63.3315 219.199 63.0082C219.263 62.6849 219.422 62.3879 219.655 62.1548C219.888 61.9217 220.185 61.763 220.508 61.6987C220.831 61.6344 221.167 61.6674 221.471 61.7935C221.776 61.9197 222.036 62.1333 222.219 62.4074C222.402 62.6815 222.5 63.0037 222.5 63.3333C222.5 63.7754 222.324 64.1993 222.012 64.5118C221.699 64.8244 221.275 65 220.833 65ZM227.5 73.3333C227.17 73.3333 226.848 73.2356 226.574 73.0525C226.3 72.8693 226.086 72.609 225.96 72.3045C225.834 71.9999 225.801 71.6648 225.865 71.3415C225.93 71.0182 226.088 70.7212 226.321 70.4882C226.555 70.2551 226.852 70.0963 227.175 70.032C227.498 69.9677 227.833 70.0007 228.138 70.1269C228.442 70.253 228.703 70.4666 228.886 70.7407C229.069 71.0148 229.167 71.337 229.167 71.6667C229.167 72.1087 228.991 72.5326 228.679 72.8452C228.366 73.1577 227.942 73.3333 227.5 73.3333ZM227.5 65C227.17 65 226.848 64.9023 226.574 64.7191C226.3 64.536 226.086 64.2757 225.96 63.9711C225.834 63.6666 225.801 63.3315 225.865 63.0082C225.93 62.6849 226.088 62.3879 226.321 62.1548C226.555 61.9217 226.852 61.763 227.175 61.6987C227.498 61.6344 227.833 61.6674 228.138 61.7935C228.442 61.9197 228.703 62.1333 228.886 62.4074C229.069 62.6815 229.167 63.0037 229.167 63.3333C229.167 63.7754 228.991 64.1993 228.679 64.5118C228.366 64.8244 227.942 65 227.5 65ZM234.167 73.3333C233.837 73.3333 233.515 73.2356 233.241 73.0525C232.967 72.8693 232.753 72.609 232.627 72.3045C232.501 71.9999 232.468 71.6648 232.532 71.3415C232.596 71.0182 232.755 70.7212 232.988 70.4882C233.221 70.2551 233.518 70.0963 233.842 70.032C234.165 69.9677 234.5 70.0007 234.804 70.1269C235.109 70.253 235.369 70.4666 235.552 70.7407C235.736 71.0148 235.833 71.337 235.833 71.6667C235.833 72.1087 235.658 72.5326 235.345 72.8452C235.033 73.1577 234.609 73.3333 234.167 73.3333ZM234.167 65C233.837 65 233.515 64.9023 233.241 64.7191C232.967 64.536 232.753 64.2757 232.627 63.9711C232.501 63.6666 232.468 63.3315 232.532 63.0082C232.596 62.6849 232.755 62.3879 232.988 62.1548C233.221 61.9217 233.518 61.763 233.842 61.6987C234.165 61.6344 234.5 61.6674 234.804 61.7935C235.109 61.9197 235.369 62.1333 235.552 62.4074C235.736 62.6815 235.833 63.0037 235.833 63.3333C235.833 63.7754 235.658 64.1993 235.345 64.5118C235.033 64.8244 234.609 65 234.167 65Z" fill="#FDCD79"/>
<circle cx="147" cy="82" r="60" fill="url(#paint1_linear_79_224)" fill-opacity="0.3"/>
<path d="M168 70.0333C168 69.5855 167.911 69.1422 167.736 68.7298C167.561 68.3175 167.305 67.9446 166.983 67.6333C166.682 67.3272 166.321 67.0864 165.922 66.9259C165.523 66.7653 165.096 66.6884 164.667 66.7H163.217C163.092 66.7092 162.966 66.6917 162.848 66.6486C162.73 66.6055 162.623 66.5378 162.533 66.45C162.433 66.3778 162.349 66.2859 162.286 66.1798C162.223 66.0737 162.182 65.9558 162.167 65.8333C162.168 65.7161 162.143 65.6 162.094 65.4935C162.045 65.3869 161.973 65.2924 161.883 65.2167C161.731 65.0822 161.536 65.0055 161.333 65C159.039 65.2047 156.765 65.5949 154.533 66.1667C154.354 66.2148 154.197 66.3213 154.085 66.4692C153.973 66.6171 153.914 66.798 153.917 66.9833V77.5C153.917 77.6645 153.967 77.8251 154.059 77.9615C154.151 78.098 154.281 78.2041 154.433 78.2667C154.584 78.3322 154.751 78.3498 154.912 78.317C155.073 78.2842 155.22 78.2026 155.333 78.0833L157.483 75.9333C157.642 75.7796 157.854 75.6936 158.075 75.6936C158.296 75.6936 158.508 75.7796 158.667 75.9333L160.817 78.0833C160.935 78.1775 161.076 78.2378 161.226 78.2577C161.376 78.2777 161.528 78.2566 161.667 78.1967C161.805 78.1368 161.925 78.0403 162.013 77.9176C162.101 77.7949 162.154 77.6505 162.167 77.5V70.95C162.162 70.7362 162.242 70.5291 162.388 70.3733C162.535 70.2175 162.736 70.1253 162.95 70.1167H163.8C163.91 70.1087 164.02 70.1238 164.123 70.1612C164.226 70.1985 164.321 70.2571 164.4 70.3333C164.542 70.4654 164.636 70.6415 164.667 70.8333V93.3833C164.667 93.5987 164.584 93.8057 164.434 93.9611C164.285 94.1165 164.082 94.2081 163.867 94.2167C159.415 94.3019 155.012 95.1532 150.85 96.7333C150.731 96.8021 150.596 96.8383 150.458 96.8383C150.321 96.8383 150.186 96.8021 150.067 96.7333C149.952 96.6596 149.857 96.5587 149.79 96.4395C149.723 96.3204 149.686 96.1866 149.683 96.05V74.1667C149.683 73.85 150.117 73.4 150.933 72.9167C151.056 72.8419 151.158 72.7366 151.228 72.611C151.298 72.4854 151.334 72.3438 151.333 72.2V70.3167C151.333 70.1732 151.296 70.0322 151.226 69.9069C151.156 69.7815 151.055 69.676 150.933 69.6C150.812 69.5298 150.674 69.4928 150.533 69.4928C150.393 69.4928 150.255 69.5298 150.133 69.6C149.548 69.8678 148.99 70.1916 148.467 70.5667C148.321 70.6724 148.146 70.7293 147.967 70.7293C147.787 70.7293 147.612 70.6724 147.467 70.5667C144.267 68.1333 137.817 66.8833 131.417 66.7C130.974 66.6788 130.531 66.7509 130.118 66.9117C129.704 67.0725 129.329 67.3183 129.017 67.6333C128.695 67.9446 128.439 68.3175 128.264 68.7298C128.089 69.1422 128 69.5855 128 70.0333V94.1667C128 95.0507 128.351 95.8986 128.976 96.5237C129.601 97.1488 130.449 97.5 131.333 97.5C141.333 97.8 146.333 100.533 146.333 101.65C146.333 102.092 146.509 102.516 146.821 102.829C147.134 103.141 147.558 103.317 148 103.317C148.442 103.317 148.866 103.141 149.179 102.829C149.491 102.516 149.667 102.092 149.667 101.65C149.667 100.533 154.8 97.8 164.667 97.5C165.551 97.5 166.399 97.1488 167.024 96.5237C167.649 95.8986 168 95.0507 168 94.1667V70.0333ZM132.133 94.1667C131.918 94.1581 131.715 94.0665 131.566 93.9111C131.416 93.7558 131.333 93.5487 131.333 93.3333V70.8333C131.334 70.6081 131.424 70.3923 131.583 70.2333C131.753 70.0818 131.973 69.9986 132.2 70C141.517 70.4833 146.333 73.1 146.333 74.1667V95.9833C146.33 96.1199 146.294 96.2537 146.227 96.3729C146.16 96.492 146.065 96.5929 145.95 96.6667C145.831 96.7354 145.696 96.7716 145.558 96.7716C145.421 96.7716 145.286 96.7354 145.167 96.6667C140.998 95.0907 136.589 94.245 132.133 94.1667Z" fill="#FDCD79"/>
<path d="M143.433 76.5667C140.617 75.707 137.717 75.1484 134.783 74.9C134.619 74.8847 134.454 74.9019 134.296 74.9505C134.138 74.9992 133.992 75.0784 133.865 75.1836C133.738 75.2889 133.633 75.4181 133.556 75.5639C133.479 75.7097 133.432 75.8692 133.417 76.0334C133.401 76.1975 133.418 76.3631 133.467 76.5206C133.516 76.6781 133.595 76.8245 133.7 76.9514C133.805 77.0783 133.935 77.1833 134.08 77.2602C134.226 77.3372 134.386 77.3847 134.55 77.4C137.294 77.6294 140.005 78.1604 142.633 78.9834C142.949 79.0894 143.295 79.0656 143.593 78.9172C143.892 78.7687 144.119 78.5077 144.225 78.1917C144.331 77.8756 144.307 77.5304 144.159 77.2319C144.01 76.9334 143.749 76.7061 143.433 76.6V76.5667Z" fill="#FDCD79"/>
<path d="M143.433 83.5333C140.621 82.6571 137.72 82.0981 134.783 81.8667C134.454 81.8341 134.125 81.9333 133.869 82.1426C133.613 82.3519 133.45 82.6543 133.417 82.9833C133.389 83.3142 133.492 83.6429 133.704 83.8985C133.916 84.1541 134.22 84.3162 134.55 84.35C137.291 84.5468 140.001 85.0443 142.633 85.8333C142.79 85.8932 142.958 85.9206 143.126 85.9142C143.294 85.9077 143.459 85.8674 143.611 85.7957C143.763 85.7241 143.899 85.6224 144.011 85.4969C144.123 85.3714 144.208 85.2247 144.262 85.0654C144.316 84.9061 144.337 84.7376 144.324 84.57C144.312 84.4024 144.265 84.239 144.188 84.0898C144.11 83.9405 144.004 83.8084 143.874 83.7014C143.744 83.5943 143.594 83.5145 143.433 83.4667V83.5333Z" fill="#FDCD79"/>
<path d="M143.433 90.4834C140.621 89.6072 137.72 89.0481 134.783 88.8167C134.454 88.7841 134.125 88.8833 133.869 89.0926C133.613 89.3019 133.45 89.6043 133.417 89.9334C133.389 90.2643 133.492 90.5929 133.704 90.8485C133.916 91.1041 134.22 91.2663 134.55 91.3C137.294 91.5294 140.005 92.0604 142.633 92.8834C142.943 92.9753 143.277 92.9435 143.564 92.7947C143.851 92.6458 144.069 92.3915 144.173 92.0852C144.276 91.7789 144.257 91.4443 144.119 91.1519C143.981 90.8594 143.735 90.6317 143.433 90.5167V90.4834Z" fill="#FDCD79"/>
<path d="M153.367 85.8333C155.995 85.0103 158.706 84.4793 161.45 84.25C161.78 84.2162 162.084 84.0541 162.296 83.7984C162.508 83.5428 162.611 83.2142 162.583 82.8833C162.55 82.5542 162.387 82.2519 162.131 82.0426C161.875 81.8333 161.546 81.7341 161.217 81.7666C158.28 81.9981 155.379 82.5571 152.567 83.4333C152.402 83.485 152.249 83.5705 152.118 83.6843C151.988 83.7982 151.883 83.9378 151.809 84.0945C151.735 84.2512 151.695 84.4215 151.691 84.5946C151.686 84.7677 151.718 84.9398 151.783 85.1C151.903 85.4019 152.134 85.6463 152.429 85.7828C152.723 85.9192 153.059 85.9373 153.367 85.8333Z" fill="#FDCD79"/>
<path d="M153.367 92.85C155.995 92.027 158.705 91.496 161.45 91.2666C161.78 91.2329 162.084 91.0707 162.296 90.8151C162.508 90.5595 162.611 90.2309 162.583 89.9C162.55 89.5709 162.387 89.2686 162.131 89.0593C161.874 88.8499 161.546 88.7507 161.217 88.7833C158.28 89.0147 155.379 89.5738 152.567 90.45C152.264 90.565 152.018 90.7927 151.881 91.0851C151.743 91.3776 151.724 91.7122 151.827 92.0185C151.931 92.3248 152.149 92.5791 152.436 92.7279C152.723 92.8768 153.057 92.9086 153.367 92.8166V92.85Z" fill="#FDCD79"/>
<circle cx="60" cy="60" r="60" fill="url(#paint2_linear_79_224)" fill-opacity="0.3"/>
<path fill-rule="evenodd" clip-rule="evenodd" d="M59.6097 37.0038C63.1634 36.9344 66.6715 37.8134 69.7727 39.5502C72.874 41.2871 75.4563 43.819 77.254 46.8854C79.0513 49.9518 79.9993 53.4418 80 56.9963V70.3299C80 71.6559 79.4733 72.9279 78.5357 73.8655C77.598 74.8032 76.326 75.3299 75 75.3299H70V81.9965C70 82.9172 69.2538 83.6632 68.3333 83.6632H51.6667C50.7462 83.6632 50 82.9172 50 81.9965V74.3205C47.2297 72.7212 44.8787 70.4775 43.15 67.774C41.2353 64.7793 40.1531 61.3285 40.0151 57.7768C39.877 54.225 40.688 50.7006 42.3646 47.5664C44.0412 44.4322 46.5227 41.8014 49.5538 39.9449C52.5848 38.0884 56.0559 37.0732 59.6097 37.0038ZM48.5318 61.0289C46.5309 55.4279 48.7502 49.0249 54.0844 45.9452C59.3507 42.9048 65.9041 44.1132 69.7752 48.5069C70.7557 49.6198 70.5277 51.2814 69.4271 52.2756C65.2724 56.0283 58.4338 60.8415 51.7172 62.6208C50.3897 62.9725 48.9938 62.3221 48.5318 61.0289Z" fill="#FDCD79"/>
<defs>
<linearGradient id="paint0_linear_79_224" x1="175" y1="60" x2="295" y2="60" gradientUnits="userSpaceOnUse">
<stop stop-color="#FDCD79"/>
<stop offset="1" stop-color="#FFF691"/>
</linearGradient>
<linearGradient id="paint1_linear_79_224" x1="87" y1="82" x2="207" y2="82" gradientUnits="userSpaceOnUse">
<stop stop-color="#FDCD79"/>
<stop offset="1" stop-color="#FFF691"/>
</linearGradient>
<linearGradient id="paint2_linear_79_224" x1="0" y1="60" x2="120" y2="60" gradientUnits="userSpaceOnUse">
<stop stop-color="#FDCD79"/>
<stop offset="1" stop-color="#FFF691"/>
</linearGradient>
</defs>
</svg>
