<svg width="24" height="24" viewBox="0 0 24 24" fill="none" xmlns="http://www.w3.org/2000/svg">
<path d="M4.61538 22.887C4.61538 23.5017 4.11706 24 3.50234 24H1.11304C0.498326 24 0 23.5017 0 22.887V15.5131C0 14.8984 0.498327 14.4 1.11304 14.4H3.50234C4.11706 14.4 4.61538 14.8984 4.61538 15.5131V22.887Z" fill="black"/>
<path d="M17.5382 22.8869C17.5382 23.5016 17.0399 24 16.4252 24H14.0359C13.4212 24 12.9229 23.5016 12.9229 22.8869V10.713C12.9229 10.0983 13.4212 9.59998 14.0359 9.59998H16.4252C17.0399 9.59998 17.5382 10.0983 17.5382 10.713V22.8869Z" fill="black"/>
<path d="M23.9997 22.887C23.9997 23.5017 23.5013 24 22.8866 24H20.4973C19.8826 24 19.3843 23.5017 19.3843 22.887V5.11304C19.3843 4.49833 19.8826 4 20.4973 4H22.8866C23.5013 4 23.9997 4.49833 23.9997 5.11304V22.887Z" fill="black"/>
<path d="M11.0768 22.887C11.0768 23.5017 10.5785 24 9.96377 24H7.57447C6.95975 24 6.46143 23.5017 6.46143 22.887V1.11304C6.46143 0.498325 6.95975 0 7.57447 0H9.96377C10.5785 0 11.0768 0.498327 11.0768 1.11304V22.887Z" fill="black"/>
</svg>
