<svg width="220" height="244" viewBox="0 0 220 244" fill="none" xmlns="http://www.w3.org/2000/svg">
<path d="M53.7697 193.815C53.7697 193.815 40.5472 197.595 49.1944 205.599C60.7785 216.315 131.939 213.773 131.939 213.773C131.939 213.773 165.612 214.67 168.114 202.104C168.114 202.104 165.014 191.673 157.942 193.083C150.87 194.493 138.956 198.157 138.956 198.157C138.956 198.157 148.146 206.579 128.293 203.456C115.126 201.385 73.0191 198.495 73.0191 198.495C73.0191 198.495 57.577 195.609 53.7697 193.815Z" fill="#F8B6B2"/>
<path d="M119.809 78.9103C120.241 83.0855 120.675 84.0466 120.952 86.2957C121.033 86.731 120.978 87.1815 120.796 87.5827C120.615 87.9839 120.315 88.3151 119.94 88.5286C119.565 88.7422 119.135 88.8271 118.711 88.7713C118.286 88.7155 117.89 88.5218 117.579 88.218C117.198 87.8233 116.545 88.3308 116.871 88.7819C118.014 90.6426 120.686 91.2667 121.877 89.0638C122.329 88.017 122.425 86.8424 122.149 85.7318C121.79 83.4174 121.252 81.0594 120.68 78.7975C120.564 78.349 119.756 78.4028 119.809 78.9103Z" fill="#6E214E"/>
<path d="M121.498 80.9418C123.062 82.5347 126.285 82.2951 127.047 79.9269C127.21 79.4142 126.613 79.1951 126.285 79.4758C125.787 80.0272 125.172 80.4517 124.489 80.7163C123.637 80.9078 122.747 80.7673 121.988 80.3216C121.607 80.096 121.169 80.6061 121.498 80.9418Z" fill="#6E214E"/>
<path d="M109.692 81.8432C111.145 83.7283 114.267 84.3806 115.947 82.4071C116.219 82.1252 115.947 81.4485 115.512 81.6741C114.698 82.1492 113.765 82.3602 112.834 82.2798C111.903 82.1994 111.017 81.8312 110.29 81.223C109.915 80.9321 109.427 81.4985 109.692 81.8432Z" fill="#6E214E"/>
<path d="M121.773 76.3173C123.038 74.9781 124.82 75.3613 126.342 74.627C126.511 74.5216 126.647 74.368 126.733 74.1847C126.82 74.0013 126.854 73.7959 126.831 73.5931C126.808 73.3903 126.729 73.1986 126.604 73.041C126.479 72.8835 126.312 72.7667 126.124 72.7047C124.964 72.4981 123.771 72.6552 122.698 73.1558C121.706 73.5156 120.874 74.2372 120.358 75.1857C120.243 75.3816 120.202 75.6145 120.242 75.84C120.282 76.0655 120.402 76.2676 120.577 76.4077C120.752 76.5478 120.971 76.6161 121.191 76.5994C121.412 76.5827 121.619 76.4823 121.773 76.3173Z" fill="#6E214E"/>
<path d="M116.004 76.0912C114.87 75.5661 113.606 75.4198 112.387 75.6723C111.168 75.9249 110.056 76.5639 109.203 77.5008C108.709 78.1211 109.143 79.459 110.069 79.0797C110.914 78.6761 111.787 78.3368 112.68 78.0647C113.635 77.9257 114.599 77.8691 115.563 77.8955C115.763 77.8833 115.953 77.8055 116.108 77.6734C116.262 77.5413 116.371 77.3617 116.421 77.1607C116.47 76.9597 116.456 76.7477 116.381 76.5555C116.306 76.3632 116.174 76.2005 116.004 76.0912Z" fill="#6E214E"/>
<path d="M112.143 92.7819C112.688 93.4376 113.403 93.9185 114.202 94.1682C115.002 94.4179 115.854 94.426 116.658 94.1915C117.04 94.0237 116.93 93.347 116.549 93.2342C115.896 93.1215 115.246 93.1714 114.591 93.0087C113.915 92.786 113.274 92.4631 112.687 92.0501C112.2 91.7618 111.826 92.3782 112.143 92.7819Z" fill="#6E214E"/>
<path d="M106.047 2.40477C104.913 7.83423 105.194 13.4788 106.862 18.7583C106.878 18.8229 106.907 18.8835 106.946 18.9364C106.986 18.9893 107.035 19.0335 107.091 19.0663C107.147 19.0991 107.209 19.12 107.273 19.1276C107.337 19.1351 107.402 19.1293 107.464 19.1105C107.526 19.0916 107.584 19.0601 107.634 19.0178C107.683 18.9754 107.725 18.9232 107.755 18.864C107.785 18.8049 107.803 18.7401 107.809 18.6735C107.814 18.6069 107.807 18.5399 107.787 18.4763C106.86 13.0542 106.101 8.1588 106.862 2.63416C106.971 2.12283 106.149 1.84218 106.047 2.40477Z" fill="#6E214E"/>
<path d="M102.079 0.375571C100.33 6.53843 100.635 13.1322 102.945 19.0935C103.219 19.8252 104.305 19.4856 104.033 18.7552C101.744 12.9969 101.342 6.6188 102.891 0.601118C102.913 0.543621 102.923 0.481899 102.92 0.420022C102.918 0.358145 102.903 0.297518 102.876 0.242135C102.849 0.186753 102.812 0.137872 102.765 0.0987167C102.719 0.0595609 102.665 0.0310185 102.608 0.0149705C102.55 -0.00107751 102.489 -0.00426681 102.43 0.00561306C102.371 0.0154929 102.315 0.038218 102.265 0.0722896C102.215 0.106361 102.173 0.151005 102.141 0.203281C102.109 0.255557 102.088 0.314277 102.079 0.375571Z" fill="#6E214E"/>
<path d="M98.0531 8.32355C97.7513 13.569 98.9635 18.7887 101.535 23.3174C101.614 23.4371 101.734 23.522 101.87 23.5553C102.007 23.5886 102.15 23.568 102.273 23.4975C102.395 23.427 102.488 23.3116 102.533 23.174C102.577 23.0364 102.571 22.8865 102.515 22.7535C100.276 18.2902 99.0656 13.3503 98.978 8.32099C98.978 7.70329 98.1075 7.75968 98.0531 8.32355Z" fill="#6E214E"/>
<path d="M100.389 26.6484C83.1813 34.681 59.6633 47.0579 49.9056 64.5353C39.7139 82.7906 50.1715 103.445 64.3733 115.558C72.336 122.308 81.6454 127.141 91.6295 129.71C91.8026 129.762 91.9888 129.741 92.1469 129.651C92.3051 129.561 92.4223 129.41 92.4728 129.23C92.5233 129.051 92.503 128.858 92.4162 128.694C92.3295 128.53 92.1835 128.409 92.0103 128.356C75.0077 123.754 59.0462 112.795 50.9394 96.276C46.2071 86.6351 45.4775 75.573 50.5585 65.8886C59.8327 48.2036 83.467 36.0291 100.77 27.3814C101.314 27.2174 100.878 26.4203 100.389 26.6484Z" fill="#6E214E"/>
<path d="M119.974 2.91389C121.6 8.21727 122.408 13.7531 122.368 19.3174C122.368 19.4744 122.429 19.625 122.536 19.736C122.643 19.847 122.788 19.9094 122.94 19.9094C123.091 19.9094 123.237 19.847 123.344 19.736C123.451 19.625 123.511 19.4744 123.511 19.3174C123.784 13.5977 122.856 7.88472 120.791 2.573C120.741 2.47038 120.656 2.39089 120.552 2.35032C120.448 2.30974 120.334 2.31104 120.231 2.35397C120.128 2.39689 120.045 2.4783 119.997 2.58203C119.95 2.68576 119.942 2.80422 119.974 2.91389Z" fill="#6E214E"/>
<path d="M125.035 4.99718C125.771 9.42787 125.937 13.94 125.529 18.416C125.484 19.0362 126.458 19.149 126.563 18.5852C127.307 13.9885 127.103 9.28064 125.965 4.77163C125.851 4.09499 124.926 4.3782 125.035 4.99718Z" fill="#6E214E"/>
<path d="M129.878 11.4812C130.069 14.5825 129.831 17.6962 129.17 20.7274C128.724 22.8663 126.944 25.9676 127.429 28.1128C127.819 29.8583 129.882 30.6413 131.183 31.4948C147.062 41.9123 172.937 60.6519 171.222 80.0939C169.661 97.7789 149.211 114.393 133.25 121.138C132.436 121.482 132.818 122.893 133.63 122.548C148.861 116.083 165.663 103.602 171.167 86.7476C178.602 63.9878 153.271 44.8341 133.848 31.6652C130.613 29.4725 130.262 29.5481 129.497 27.6066C128.631 25.4088 129.216 26.1201 130.15 21.5168C130.794 18.1976 130.996 14.8022 130.748 11.4261C130.736 11.3103 130.682 11.2036 130.596 11.1283C130.51 11.053 130.4 11.015 130.287 11.0221C130.175 11.0292 130.07 11.0809 129.994 11.1664C129.917 11.252 129.876 11.3647 129.878 11.4812Z" fill="#6E214E"/>
<path d="M110.453 5.89914C110.404 5.74886 110.301 5.62383 110.166 5.55005C110.03 5.47627 109.873 5.45941 109.726 5.50297C109.579 5.54652 109.453 5.64716 109.376 5.78394C109.299 5.92073 109.275 6.08316 109.31 6.23746C110.836 13.6229 113.013 21.4619 108.603 28.2258C104.852 33.9786 98.9244 38.4934 94.0784 43.1658C84.782 52.1441 75.0589 61.4954 68.1676 72.7279C67.4615 72.0395 66.5987 71.5476 65.6597 71.298C64.7206 71.0483 63.7359 71.0491 62.7972 71.3003C62.4151 71.4054 62.4708 72.2461 62.9617 72.1974C63.8592 72.1082 64.7649 72.2041 65.6265 72.4793C66.2018 72.7189 66.7403 73.044 67.2253 73.4443C67.1916 73.5318 67.1842 73.6279 67.2043 73.7198C70.7594 91.8047 82.4597 104.59 92.3373 107.952C92.4769 107.995 92.6268 107.984 92.7592 107.921C92.8917 107.859 92.9978 107.748 93.0581 107.611C93.1183 107.474 93.1286 107.318 93.0871 107.174C93.0455 107.029 92.9549 106.905 92.8319 106.824C86.4167 103.208 80.867 99.3798 76.4575 93.181C72.5251 87.4187 69.7027 80.9239 68.1453 74.053C68.2271 74.0555 68.3082 74.0377 68.3819 74.0011C68.4557 73.9646 68.52 73.9103 68.5695 73.8429C77.349 61.5531 87.605 51.1164 98.4348 40.8039C103.057 36.4045 108.989 31.8961 111.383 25.6948C113.777 19.4935 112.261 12.0761 110.453 5.89914Z" fill="#6E214E"/>
<path d="M159.469 69.271C158.584 69.0908 157.669 69.1432 156.808 69.4234C155.947 69.7037 155.167 70.2029 154.54 70.8755C145.241 61.5235 136.462 51.6327 128.244 41.2506C124.007 35.7772 119.835 30.3653 118.234 23.3785C116.674 16.5531 117.368 9.79433 117.254 2.85745C117.246 2.29358 116.316 2.06547 116.221 2.68701C115.261 9.20335 115.408 15.8434 116.656 22.3071C117.968 28.9595 121.276 34.2073 125.251 39.5026C133.867 50.9799 143.461 62.47 154.21 71.9533C152.345 74.92 150.769 78.1263 148.916 81.111C146.83 84.1953 144.401 87.0147 141.68 89.5114C137.586 93.6123 133.683 97.9118 129.604 101.972C129.223 102.484 129.876 103.154 130.257 102.705C134.554 98.532 138.634 94.1351 142.931 89.9061C148.101 84.5932 152.401 78.4424 155.662 71.6957C155.682 71.6569 155.698 71.6161 155.71 71.5739C156.784 70.7052 158.107 70.2321 159.469 70.2296C159.959 70.1655 159.906 69.38 159.469 69.271Z" fill="#6E214E"/>
<path d="M115.841 162.916C115.841 161.669 114.373 161.667 114.373 162.916C114.261 163.931 115.841 163.931 115.841 162.916Z" fill="#6E214E"/>
<path d="M142.169 76.9389C140.893 76.8165 139.607 77.0097 138.416 77.5027C137.981 77.6719 137.709 76.9389 138.09 76.7146C139.355 75.9914 140.779 75.6222 142.224 75.6432C142.368 75.3323 142.533 75.0325 142.718 74.7462C143.058 74.0258 143.241 73.2369 143.254 72.4352C143.267 71.6335 143.109 70.8387 142.793 70.1071C142.476 69.3755 142.008 68.725 141.422 68.2017C140.836 67.6783 140.146 67.295 139.401 67.0788C139.84 65.6409 139.989 64.1243 139.836 62.6243C139.734 61.8783 139.422 61.1802 138.937 60.6182C138.453 60.0562 137.819 59.6555 137.116 59.4666C136.136 59.2974 134.809 59.6486 134.341 58.7336C134.206 58.3946 134.15 58.0276 134.177 57.6622C134.107 56.944 133.891 56.2494 133.542 55.6245C133.193 54.9997 132.72 54.4588 132.154 54.0377C131.588 53.6166 130.943 53.3249 130.26 53.1821C129.577 53.0392 128.873 53.0483 128.194 53.2089C127.58 53.9655 127.251 54.9271 127.269 55.9155C127.261 56.0216 127.218 56.1216 127.147 56.1986C127.077 56.2757 126.982 56.325 126.88 56.3383C126.779 56.3515 126.676 56.3279 126.589 56.2714C126.502 56.2149 126.436 56.129 126.403 56.0283C126.305 55.3368 126.351 54.6314 126.538 53.9601C126.726 53.2887 127.051 52.6672 127.491 52.1376C126.908 48.5096 122.957 46.2913 118.298 48.3045C118.079 47.1158 117.503 46.0289 116.654 45.1987C115.804 44.3685 114.723 43.8374 113.565 43.6808C112.404 43.5713 111.236 43.7791 110.176 44.2837C109.117 44.7883 108.203 45.572 107.527 46.5565C106.459 45.7852 105.19 45.3673 103.888 45.358C102.586 45.3487 101.312 45.7484 100.234 46.5044C99.1551 47.2604 98.3229 48.3372 97.8466 49.5931C97.3704 50.8489 97.2723 52.2248 97.5655 53.5396C98.7808 54.5472 99.6876 55.8988 100.176 57.4303C100.329 57.8839 99.6392 58.1594 99.4686 57.7673C99.024 56.7805 98.3818 55.9031 97.5846 55.1936C96.7874 54.4841 95.8535 53.9587 94.8451 53.6523C88.0626 53.2833 84.2305 58.3632 84.8352 62.673C83.9042 62.7769 83.01 63.1074 82.2257 63.6375C81.4413 64.1676 80.789 64.8823 80.3219 65.7234C79.8547 66.5645 79.586 67.508 79.5376 68.4772C79.4893 69.4464 79.6626 70.4136 80.0435 71.3002C77.8684 72.2587 75.5289 73.5556 74.6583 75.8662C73.7927 78.2909 74.8215 81.0538 76.1273 83.2529C77.2699 85.2265 78.9022 87.2551 81.0736 87.7626C82.1341 86.9727 83.3097 86.3636 84.5557 85.9582C84.9341 85.8378 85.263 86.4093 84.9366 86.6349C82.8221 88.3393 81.7339 88.4867 80.9648 89.6797C80.9001 90.9409 81.1702 92.1963 81.7457 93.3095C82.3213 94.4227 83.1802 95.3511 84.2293 95.9938C85.6078 96.708 87.1197 97.1031 88.6602 97.1518C90.2007 97.2005 91.733 96.9016 93.151 96.2757C93.2716 97.5532 93.739 98.7691 94.499 99.7825C95.259 100.796 96.2806 101.565 97.4453 102.002C98.61 102.438 99.8702 102.524 101.08 102.248C102.289 101.973 103.399 101.348 104.28 100.446C104.478 103.038 104.613 105.64 104.636 108.285C104.636 109.182 106.031 109.182 105.996 108.285C105.766 102.407 105.937 96.2591 104.373 90.564C104.718 90.0873 104.373 89.2235 103.711 89.4542C101.856 90.1308 98.9777 89.2287 98.8689 86.8053C98.8925 86.3222 99.009 85.8488 99.2115 85.4129C99.4139 84.977 99.6983 84.5874 100.048 84.267C100.398 83.9465 100.806 83.7016 101.248 83.5466C101.69 83.3916 102.157 83.3297 102.623 83.3644C102.718 83.3624 102.81 83.3284 102.885 83.2676C102.96 83.2067 103.014 83.1222 103.038 83.0269C103.063 82.9317 103.057 82.8307 103.021 82.7392C102.986 82.6478 102.922 82.5708 102.841 82.5199C102.611 82.4051 102.367 82.3232 102.116 82.2764C102.255 82.0442 102.335 81.78 102.351 81.5075C102.569 79.3375 103.318 77.2612 104.527 75.4754C104.926 74.958 105.444 74.5526 106.033 74.2965C106.622 74.0403 107.264 73.9416 107.899 74.0093C108.288 74.0612 108.681 73.9547 108.995 73.7122C109.309 73.4698 109.52 73.1104 109.584 72.7098C109.705 72.188 109.932 71.6989 110.25 71.2751C110.568 70.8513 110.969 70.5025 111.428 70.2518C111.886 70.0012 112.39 69.8544 112.907 69.8213C113.424 69.7881 113.942 69.8694 114.426 70.0597C114.576 70.1157 114.735 70.1395 114.894 70.1298C115.053 70.1201 115.208 70.0771 115.35 70.0032C115.493 69.9294 115.619 69.8264 115.722 69.7003C115.825 69.5743 115.902 69.428 115.948 69.2702C116.073 68.8236 116.283 68.4072 116.565 68.0454C116.847 67.6836 117.195 67.3837 117.591 67.1632C117.986 66.9427 118.419 66.8061 118.866 66.7612C119.313 66.7164 119.763 66.7642 120.192 66.902C120.56 67.0224 120.959 66.9975 121.31 66.8319C121.662 66.6662 121.942 66.3717 122.096 66.0049C122.217 65.5792 122.437 65.1909 122.737 64.8741C123.037 64.5573 123.407 64.3216 123.816 64.188C124.224 64.0543 124.658 64.0267 125.079 64.1075C125.5 64.1884 125.895 64.3752 126.23 64.6516C127.59 65.7217 127.645 67.471 127.971 69.0485C129.731 76.8735 131.882 85.6519 128.243 92.8413C126.497 96.1915 123.57 98.7131 120.073 99.8792C116.575 101.045 112.778 100.766 109.475 99.0989C108.937 98.8055 108.55 99.55 108.98 99.9447C111.167 101.613 113.865 102.401 116.571 102.16C116.688 104.597 116.969 107.021 117.412 109.416C117.425 109.606 117.503 109.785 117.633 109.92C117.763 110.055 117.936 110.136 118.12 110.148C119.208 110.206 120.364 110.502 121.221 109.642C121.314 109.545 121.373 109.418 121.388 109.282C121.403 109.146 121.374 109.008 121.305 108.892C121.236 108.775 121.132 108.685 121.008 108.637C120.884 108.589 120.748 108.586 120.622 108.627C119.992 108.766 119.346 108.81 118.704 108.755C118.533 106.492 118.193 104.245 117.688 102.036C120.151 101.619 122.492 100.634 124.539 99.1547C126.586 97.6754 128.286 95.7391 129.516 93.4884C131.273 93.5179 132.976 92.8575 134.283 91.6399C135.591 90.4222 136.405 88.7373 136.564 86.9232C137.649 87.2502 138.812 87.1627 139.84 86.6766C140.868 86.1904 141.694 85.338 142.167 84.2743C142.62 83.1998 142.858 82.0413 142.868 80.8686C142.877 79.696 142.657 78.5336 142.221 77.4515C142.278 77.3874 142.224 77.1618 142.169 76.9389ZM93.1547 68.7051C93.0785 68.656 93.0213 68.5809 92.9927 68.4927C92.9642 68.4045 92.9662 68.3088 92.9984 68.2221C93.0306 68.1353 93.091 68.0628 93.1692 68.0172C93.2474 67.9716 93.3385 67.9556 93.4268 67.9721C93.99 68.2447 94.6026 68.3905 95.2241 68.3998C95.8457 68.4091 96.4621 68.2818 97.0326 68.0261C97.6032 67.7705 98.115 67.3924 98.5343 66.9167C98.9535 66.4411 99.2707 65.8787 99.4649 65.2668C99.6281 64.8157 100.347 64.8721 100.33 65.3795C100.254 69.1587 95.8937 70.2403 93.1547 68.7051ZM115.35 53.1448C113.283 53.4268 110.998 54.6673 111.325 57.2034C111.379 57.6545 110.726 57.716 110.617 57.3175C109.91 54.3854 112.685 52.3554 115.296 52.3554C115.676 52.3554 115.786 53.0885 115.35 53.1448Z" fill="#6E214E"/>
<path d="M136.837 138.391C136.783 137.602 136.074 137.841 135.314 137.771C131.772 137.442 128.557 125.425 128.187 122.548C127.477 116.827 127.132 111.064 127.154 105.296C127.153 105.12 127.1 104.948 127.002 104.803C126.905 104.659 126.767 104.549 126.607 104.488C126.448 104.426 126.274 104.417 126.109 104.461C125.944 104.504 125.796 104.599 125.685 104.732C124.739 106.288 124.127 108.036 123.89 109.858C122.912 114.33 120.81 118.453 117.797 121.81C116.957 122.777 115.859 123.464 114.642 123.783C111.541 124.515 110.026 122.199 108.766 120.067C107.199 117.409 105.603 114.828 104.034 112.173C102.235 109.132 101.294 108.001 97.94 108.001C97.8109 108.005 97.6845 108.04 97.5709 108.103C97.4573 108.167 97.3596 108.257 97.2856 108.367C97.2117 108.476 97.1636 108.602 97.1452 108.735C97.1267 108.867 97.1385 109.002 97.1795 109.129C100.116 117.473 98.651 140.475 92.99 140.588C92.3915 140.601 91.8413 144.348 93.6429 144.648C101.452 145.945 109.418 147.564 117.253 146.678C123.833 145.932 129.91 145.619 135.694 143.069C136.015 142.934 136.288 142.698 136.473 142.395C136.658 142.091 136.748 141.736 136.728 141.377L136.837 138.391ZM121.279 122.322C118.187 124.705 116.325 129.435 111.704 127.566C107.675 125.937 105.127 120.026 102.837 116.572C102.572 116.172 103.219 115.781 103.49 116.177C105.678 119.381 107.789 124.068 111.156 126.045C116.054 128.916 117.396 123.417 120.84 121.534C120.941 121.474 121.06 121.457 121.173 121.489C121.285 121.52 121.381 121.596 121.439 121.701C121.498 121.805 121.513 121.929 121.483 122.046C121.453 122.163 121.38 122.262 121.279 122.322Z" fill="#F8B6B2"/>
<path d="M93.2091 136.701C93.1758 134.13 92.9393 131.565 92.5018 129.034C92.3781 128.302 91.2529 128.582 91.4136 129.372C91.9083 131.794 92.1692 134.283 92.4474 136.758C92.4956 137.154 93.2091 137.209 93.2091 136.701Z" fill="#6E214E"/>
<path d="M133.847 131.174C134.056 128.154 134.11 125.124 134.011 122.097C134.011 121.309 132.76 121.308 132.814 122.097C132.868 125.142 132.779 128.19 133.031 131.174C133.031 131.287 133.074 131.394 133.151 131.474C133.227 131.553 133.331 131.597 133.439 131.597C133.548 131.597 133.651 131.553 133.728 131.474C133.804 131.394 133.847 131.287 133.847 131.174Z" fill="#6E214E"/>
<path d="M218.93 197.928C219.048 197.911 219.156 197.85 219.234 197.757C219.312 197.663 219.355 197.544 219.355 197.421C219.355 197.297 219.312 197.178 219.234 197.085C219.156 196.991 219.048 196.931 218.93 196.913C217.265 196.777 215.612 196.513 213.984 196.124C213.942 194.282 213.603 192.46 212.98 190.734C214.62 191.069 216.302 191.119 217.957 190.881C218.08 190.881 218.198 190.83 218.284 190.741C218.371 190.651 218.42 190.529 218.42 190.402C218.42 190.275 218.371 190.153 218.284 190.063C218.198 189.973 218.08 189.922 217.957 189.922C216.162 189.866 214.365 189.697 212.57 189.697C212.044 188.49 211.398 187.344 210.642 186.278C212.461 186.41 214.285 186.441 216.107 186.37C216.706 186.37 216.707 185.401 216.107 185.355C214.208 185.189 212.3 185.152 210.396 185.244C210.325 185.254 210.257 185.28 210.196 185.318C210.135 185.357 210.081 185.408 210.04 185.468C209.26 184.477 208.403 183.555 207.476 182.711C208.713 182.533 209.949 182.327 211.157 182.03C211.652 181.917 211.591 181.015 211.047 181.071C209.528 181.258 208.019 181.529 206.526 181.882C205.18 180.775 203.751 179.783 202.25 178.914C203.402 178.703 204.541 178.425 205.662 178.082C206.261 177.913 205.987 177.057 205.39 177.124C203.858 177.329 202.346 177.67 200.87 178.141C200.994 178.141 198.412 176.9 196.658 176.181C198.669 175.562 200.612 174.726 202.453 173.684C202.544 173.633 202.614 173.548 202.648 173.447C202.682 173.345 202.678 173.234 202.637 173.136C202.597 173.037 202.521 172.958 202.427 172.913C202.332 172.869 202.225 172.863 202.127 172.896C199.819 173.606 197.583 174.546 195.449 175.703C193.006 174.767 192.358 174.649 192.482 174.649C194.497 173.743 196.464 172.725 198.374 171.599C198.465 171.533 198.531 171.436 198.561 171.325C198.591 171.213 198.583 171.095 198.538 170.989C198.493 170.883 198.414 170.797 198.315 170.745C198.216 170.692 198.102 170.677 197.993 170.702C196.339 171.331 194.744 172.115 193.227 173.045C193.74 171.918 193.928 170.661 193.77 169.426C193.612 168.191 193.114 167.029 192.336 166.08C189.615 162.809 185.263 161.005 181.346 159.928C173.185 157.786 164.646 158.407 156.431 159.872C147.627 161.412 138.972 163.755 130.567 166.876C131.949 164.962 131.843 162.335 132.114 160.041C132.685 155.915 132.958 151.75 132.929 147.581C132.922 147.436 132.862 147.3 132.761 147.2C132.66 147.1 132.525 147.044 132.386 147.044C132.246 147.044 132.111 147.1 132.01 147.2C131.909 147.3 131.849 147.436 131.842 147.581C131.771 152.465 131.425 157.341 130.808 162.184C130.813 163.346 130.591 164.496 130.156 165.567C128.795 168.216 125.803 168.612 123.192 168.836C116.506 169.304 109.794 169.229 103.118 168.612C103.064 168.612 100.398 168.554 100.398 168.612C99.9032 168.216 99.7993 165.567 99.6905 164.947C98.6567 159.703 97.5698 154.46 96.9169 149.103C96.8081 148.709 96.0513 148.652 96.1008 149.216C96.8291 155.585 98.057 161.903 99.3059 168.12C85.9239 163.522 71.5712 161.651 57.5845 160.323C51.4376 159.703 44.6922 158.744 38.8161 161.394C37.2899 162.011 35.8959 162.933 34.7139 164.108C33.5319 165.284 32.585 166.689 31.9274 168.244C31.2698 169.798 30.9144 171.472 30.8815 173.17C30.8485 174.867 31.1388 176.554 31.7356 178.135C29.9006 178.72 28.1007 179.418 26.3454 180.224C26.3181 180.139 26.2694 180.062 26.2041 180.003C26.1389 179.944 26.0596 179.904 25.9745 179.887C24.5122 179.364 23.0775 178.761 21.6762 178.082C21.2953 177.857 20.9145 178.534 21.2409 178.872C22.361 179.795 23.6543 180.466 25.0384 180.843C23.6559 181.527 22.2932 182.281 20.9652 183.1C19.0089 182.818 17.1059 182.31 15.1533 181.917C15.043 181.894 14.9283 181.914 14.8315 181.974C14.7346 182.033 14.6624 182.127 14.6286 182.239C14.5949 182.35 14.602 182.47 14.6487 182.576C14.6953 182.683 14.7782 182.767 14.8813 182.814C16.3628 183.417 17.9095 183.832 19.4875 184.049C17.4 185.44 15.4279 187.008 13.5916 188.738C11.7729 188.394 9.93005 188.204 8.08148 188.171C7.58686 188.114 7.42487 188.973 7.97267 189.129C9.4617 189.482 10.9755 189.71 12.4997 189.812C10.7432 191.573 9.18509 193.535 7.85519 195.66C6.19079 195.433 4.57832 195.047 2.90897 194.879C2.36488 194.768 2.31171 195.612 2.80015 195.838C4.23534 196.336 5.72341 196.653 7.23197 196.781C6.46668 198.268 5.91512 199.863 5.59477 201.515C5.40681 201.515 5.87299 201.515 0.353008 202.54C0.242857 202.57 0.146702 202.639 0.0823795 202.737C0.0180569 202.834 -0.0100683 202.952 0.00321956 203.069C0.0165075 203.186 0.0703077 203.294 0.154641 203.373C0.238974 203.452 0.348116 203.497 0.461826 203.499C2.13554 203.434 3.79591 203.163 5.40805 202.693C5.17804 204.659 5.31235 206.653 5.80375 208.567C4.0107 208.517 2.21776 208.671 0.456879 209.025C0.0216113 209.081 0.130429 209.814 0.565696 209.871C1.58115 209.908 2.59782 209.889 3.61133 209.814C4.447 209.821 5.2815 209.748 6.10423 209.596C6.65709 211.266 7.45679 212.836 8.47471 214.251C6.85587 214.643 5.26679 215.157 3.72015 215.789C3.22553 216.014 3.3937 216.804 3.93778 216.634C5.70834 216.263 7.45226 215.766 9.15729 215.148C9.93909 216.111 10.8055 216.996 11.7454 217.793C10.4483 218.966 9.07073 220.129 7.69197 221.201C7.2567 221.54 7.63756 222.328 8.12724 221.991C9.70188 220.939 11.2004 219.769 12.611 218.491C13.7457 219.355 14.9448 220.124 16.197 220.79C14.6613 222.057 13.3475 223.588 12.313 225.317C11.9865 225.881 12.8076 226.332 13.1291 225.829C14.234 224.107 15.594 222.575 17.159 221.292C18.11 221.761 19.0819 222.189 20.0687 222.573C19.3761 224.071 18.8197 225.632 18.4067 227.236C18.2435 227.8 18.9496 228.134 19.1672 227.631C19.8874 226.112 20.4822 224.532 20.9454 222.909C22.156 223.361 23.3839 223.767 24.6118 224.145C24.2951 224.695 24.0901 225.305 24.0096 225.94C23.7919 226.837 23.5743 227.688 23.4111 228.59C23.3022 229.265 24.1728 229.487 24.336 228.928C24.6861 227.413 25.1145 225.918 25.6196 224.45C26.9987 224.855 28.3833 225.246 29.7732 225.622C29.5258 226.198 29.3713 226.846 29.1771 227.406C28.8878 228.244 28.6825 229.154 28.4698 229.999C28.4154 230.506 29.1771 230.731 29.3354 230.224C29.9066 228.813 30.3975 227.369 30.8057 225.899C32.1906 226.267 33.5793 226.621 34.9716 226.962C34.7899 227.804 34.6415 228.642 34.4498 229.436C34.2322 230.393 33.9057 231.295 33.7425 232.255C33.7294 232.352 33.7491 232.452 33.7983 232.536C33.8475 232.62 33.9232 232.684 34.0126 232.717C34.1021 232.75 34.1998 232.75 34.2894 232.718C34.3789 232.685 34.4548 232.621 34.5042 232.537C35.3367 230.882 35.8385 229.07 35.9794 227.21C37.8755 227.668 39.7715 228.111 41.6676 228.537C41.0709 230.444 40.5678 232.381 40.1602 234.341C40.1425 234.449 40.1644 234.56 40.2215 234.652C40.2787 234.745 40.367 234.811 40.4691 234.839C40.5712 234.868 40.6799 234.855 40.7737 234.805C40.8675 234.755 40.9398 234.67 40.9763 234.567C41.5946 232.645 42.1622 230.722 42.637 228.754C42.637 228.754 44.9778 229.273 46.139 229.523C45.529 230.97 45.1102 232.497 44.8938 234.061C44.8759 234.135 44.8723 234.211 44.8831 234.287C44.8939 234.362 44.9189 234.435 44.9568 234.5C44.9946 234.566 45.0445 234.623 45.1036 234.668C45.1627 234.713 45.2298 234.746 45.3012 234.765C45.3726 234.783 45.4468 234.787 45.5195 234.776C45.5923 234.765 45.6622 234.739 45.7253 234.699C45.7884 234.66 45.8435 234.609 45.8873 234.547C45.9311 234.486 45.9628 234.416 45.9807 234.343C46.3127 232.79 46.7255 231.257 47.2172 229.751C48.7836 230.08 50.3499 230.398 51.9162 230.704C51.3077 232.304 50.7823 233.936 50.342 235.593C50.1244 236.326 51.1581 236.608 51.4302 235.875C52.0397 234.256 52.5543 232.6 52.9709 230.916C54.7516 231.257 56.5339 231.585 58.3178 231.899C57.7425 233.469 57.2768 235.081 56.9242 236.721C56.8881 236.863 56.908 237.014 56.9794 237.141C57.0508 237.268 57.168 237.36 57.3051 237.398C57.4422 237.435 57.588 237.414 57.7104 237.34C57.8328 237.266 57.9219 237.145 57.958 237.003C58.5241 235.397 58.9649 233.746 59.2761 232.067C61.0024 232.366 62.7307 232.651 64.461 232.924C63.6481 234.81 63.0365 236.782 62.6371 238.806C62.5827 239.37 63.2888 239.766 63.5608 239.202C64.4089 237.241 65.0374 235.185 65.4342 233.075C67.0005 233.318 68.5668 233.55 70.1331 233.771C69.6237 235.43 69.2628 237.135 69.0548 238.862C69.0004 239.483 69.8709 239.483 70.0342 238.975C70.554 237.327 70.9189 235.63 71.1236 233.909C72.6223 234.117 74.1206 234.315 75.6185 234.504C75.1334 236.387 74.7401 238.293 74.44 240.217C74.3312 240.836 75.2017 241.114 75.365 240.498C75.8662 238.563 76.2666 236.601 76.5644 234.622C76.9082 234.664 79.5322 234.968 80.5053 235.073C80.1734 236.144 79.9281 237.242 79.7721 238.355C79.6632 238.919 80.4237 239.314 80.697 238.751C81.1878 237.624 81.4905 236.42 81.5923 235.188C83.1174 235.347 84.6424 235.495 86.1675 235.633C85.5864 237.37 85.2102 239.174 85.0472 241.005C84.9928 241.625 85.9128 241.738 86.081 241.174C86.5447 239.414 86.9107 237.55 87.2705 235.732C88.5302 235.841 89.7902 235.943 91.0507 236.038C91.0471 237.096 90.8749 238.146 90.5412 239.146C90.5105 239.268 90.5237 239.398 90.5783 239.511C90.6328 239.624 90.7251 239.713 90.838 239.761C90.9509 239.809 91.0767 239.813 91.1922 239.772C91.3077 239.731 91.4051 239.649 91.4662 239.539C91.9653 238.476 92.1814 237.294 92.0919 236.115C93.2699 236.2 94.4483 236.279 95.6272 236.351C95.2195 237.939 94.7016 239.494 94.0778 241.005C94.042 241.077 94.0209 241.155 94.0158 241.235C94.0107 241.316 94.0217 241.396 94.0481 241.472C94.0745 241.548 94.1157 241.617 94.1692 241.675C94.2227 241.734 94.2873 241.78 94.3589 241.811C94.4305 241.842 94.5075 241.858 94.5852 241.857C94.6629 241.856 94.7395 241.838 94.8102 241.804C94.8809 241.771 94.9442 241.723 94.996 241.663C95.0479 241.603 95.0872 241.533 95.1115 241.456C95.8141 239.841 96.3397 238.15 96.6783 236.413C98.022 236.493 99.3665 236.563 100.712 236.625C100.353 238.552 100.172 240.509 100.17 242.471C100.17 242.984 101.036 243.147 101.095 242.584C101.325 240.59 101.472 238.611 101.732 236.67C103.331 236.739 104.93 236.796 106.529 236.84C106.485 238.405 106.238 240.011 106.264 241.569C106.272 241.675 106.315 241.775 106.386 241.852C106.456 241.929 106.551 241.979 106.652 241.992C106.754 242.005 106.857 241.981 106.944 241.925C107.031 241.868 107.097 241.783 107.13 241.682C107.442 240.098 107.57 238.482 107.512 236.867C109.474 236.916 111.436 236.948 113.399 236.963C113.028 238.31 112.548 239.654 112.298 241.005C112.19 241.569 112.951 241.964 113.223 241.4C113.813 239.978 114.246 238.491 114.512 236.968C115.856 236.973 117.2 236.971 118.546 236.959C118.245 238.366 118.047 239.793 117.956 241.231C117.953 241.359 117.997 241.483 118.078 241.58C118.159 241.676 118.273 241.737 118.396 241.752C118.518 241.766 118.642 241.732 118.742 241.656C118.842 241.581 118.911 241.469 118.935 241.343C119.218 239.892 119.409 238.396 119.563 236.949C120.592 236.938 121.622 236.921 122.655 236.898C122.308 238.591 122.048 240.302 121.877 242.024C121.832 242.589 122.693 242.701 122.856 242.137C123.263 240.407 123.562 238.652 123.75 236.882C125.373 236.842 126.995 236.79 128.619 236.726C128.506 238.796 128.078 240.919 128.078 242.988C128.078 243.552 128.944 243.721 129.057 243.1C129.446 240.985 129.645 238.836 129.652 236.683C131.308 236.613 132.963 236.529 134.62 236.433C134.552 237.42 134.621 238.413 134.824 239.38C134.853 239.485 134.917 239.576 135.005 239.636C135.092 239.696 135.198 239.722 135.302 239.708C135.407 239.695 135.503 239.643 135.574 239.562C135.645 239.482 135.686 239.378 135.689 239.269C135.713 238.3 135.742 237.335 135.709 236.367C136.827 236.298 137.944 236.223 139.061 236.142C139.217 238.449 139.185 240.744 139.389 243.045C139.398 243.181 139.456 243.308 139.552 243.401C139.648 243.494 139.775 243.545 139.906 243.545C140.037 243.545 140.163 243.494 140.259 243.401C140.355 243.308 140.414 243.181 140.423 243.045C140.557 240.712 140.43 238.371 140.043 236.069C141.452 235.963 142.86 235.847 144.266 235.721C144.306 236.833 144.403 237.942 144.556 239.043C144.665 239.606 145.422 239.437 145.481 238.929C145.534 237.825 145.464 236.718 145.274 235.63C146.873 235.483 148.47 235.323 150.065 235.152C150.044 237.316 150.276 239.474 150.758 241.579C150.921 242.143 151.778 242.032 151.737 241.466C151.584 239.314 151.251 237.203 150.978 235.052C152.435 234.89 153.896 234.715 155.361 234.526C155.39 235.78 155.618 237.02 156.035 238.197C156.199 238.648 156.96 238.648 156.901 238.085C156.822 236.841 156.651 235.606 156.389 234.39C157.452 234.248 158.514 234.097 159.577 233.936C160.682 235.689 161.488 237.626 161.96 239.662C162.123 240.395 163.211 240.113 163.048 239.324C162.647 237.318 161.838 235.424 160.675 233.768C162.241 233.522 163.803 233.254 165.36 232.964C166.263 234.613 167.053 236.326 167.726 238.09C167.943 238.602 168.641 238.205 168.542 237.751C168.124 235.965 167.383 234.278 166.358 232.778C167.966 232.465 169.567 232.123 171.162 231.753C171.993 233.584 172.832 235.41 173.82 237.135C173.876 237.215 173.958 237.273 174.051 237.299C174.143 237.326 174.242 237.319 174.33 237.279C174.418 237.24 174.491 237.171 174.537 237.083C174.583 236.996 174.598 236.895 174.581 236.797C173.965 234.95 173.156 233.178 172.17 231.512C173.622 231.158 175.064 230.773 176.498 230.358C177.203 231.664 177.98 232.928 178.823 234.143C178.888 234.255 178.994 234.335 179.117 234.367C179.24 234.398 179.37 234.377 179.478 234.309C179.586 234.241 179.664 234.131 179.694 234.004C179.724 233.877 179.704 233.742 179.639 233.63C179.058 232.356 178.333 231.159 177.477 230.065C179.026 229.601 180.561 229.097 182.082 228.553C182.635 230.051 183.107 231.636 183.774 233.123C183.992 233.686 184.752 233.235 184.639 232.728C184.283 231.157 183.712 229.647 182.944 228.242C184.198 227.778 185.439 227.282 186.667 226.755C187.285 228.236 188.124 229.606 189.154 230.816C189.231 230.896 189.334 230.943 189.443 230.951C189.552 230.958 189.66 230.924 189.746 230.855C189.833 230.786 189.892 230.687 189.913 230.576C189.934 230.465 189.916 230.35 189.861 230.252C189.179 228.938 188.321 227.668 187.563 226.364C189.01 225.72 190.436 225.028 191.841 224.288C192.282 225.752 193.059 227.083 194.105 228.167C194.192 228.242 194.302 228.284 194.415 228.286C194.528 228.287 194.639 228.249 194.728 228.176C194.817 228.103 194.879 228.001 194.904 227.887C194.93 227.772 194.916 227.652 194.866 227.547C194.075 226.351 193.388 225.086 192.811 223.766C194.224 222.99 195.611 222.159 196.969 221.275C197.943 222.561 199.064 223.721 200.308 224.727C200.743 225.066 201.124 224.389 200.802 224.051C199.858 222.875 198.749 221.872 197.725 220.778C199.33 219.695 200.889 218.528 202.404 217.275C203.243 218.246 204.274 219.019 205.426 219.541C205.921 219.766 206.133 218.977 205.752 218.752C204.825 218.128 203.943 217.435 203.112 216.679C204.63 215.379 206.071 213.988 206.889 213.124C207.934 214.358 209.325 215.221 210.867 215.594C210.988 215.627 211.117 215.61 211.227 215.546C211.336 215.482 211.417 215.376 211.452 215.252C211.488 215.127 211.475 214.993 211.416 214.878C211.358 214.762 211.258 214.676 211.139 214.635C209.773 214.231 208.534 213.462 207.544 212.405C208.344 211.496 209.083 210.531 209.759 209.519C210.787 210.333 211.931 210.975 213.151 211.423C213.645 211.59 213.912 210.802 213.477 210.575C212.399 209.992 211.319 209.409 210.274 208.717C210.829 207.823 211.331 206.895 211.778 205.939C213.544 206.717 215.364 207.543 217.231 208.152C217.726 208.321 218.047 207.532 217.612 207.255C215.846 206.403 214.032 205.664 212.179 205.042C212.468 204.355 212.727 203.655 212.952 202.948C214.86 202.91 216.768 203.069 218.646 203.422C218.745 203.416 218.841 203.378 218.918 203.312C218.994 203.246 219.049 203.157 219.073 203.056C219.098 202.956 219.09 202.851 219.053 202.755C219.015 202.659 218.949 202.579 218.864 202.525C217.079 201.825 215.153 201.604 213.264 201.884C213.678 200.346 213.913 198.762 213.964 197.166C215.555 197.758 217.243 198.017 218.93 197.928ZM37.0132 164.045C42.3996 160.154 49.4171 160.943 55.6184 161.507C70.555 162.761 85.3554 165.381 99.8463 169.339C105.846 169.982 111.876 170.265 117.907 170.184C120.959 170.099 125.169 170.41 128.188 168.871C142.045 164.42 156.932 159.248 171.656 159.98C178.292 160.318 197.768 163.696 190.859 174.589C187.105 180.452 180.305 184.174 174.322 186.992C161.541 193.047 146.128 195.348 144.62 196.051C143.206 195.931 141.783 195.988 140.383 196.222C133.766 190.959 125.544 187.452 117.507 184.568C128.562 179.782 135.287 175.358 158.27 170.924C158.868 170.811 158.598 169.922 158.052 170.027C149.928 171.367 141.909 173.327 134.063 175.89C127.932 178.045 121.28 180.472 115.638 183.911C100.047 178.361 83.9174 174.594 67.5363 172.677C66.9922 172.621 66.9898 173.593 67.5907 173.691C90.2333 177.385 120.105 183.857 139.129 197.143C138.936 197.386 138.77 197.651 138.635 197.933C137.471 199.616 136.928 201.676 137.105 203.739C121.135 201.4 102.055 199.766 85.8114 198.835C72.0535 197.938 64.9977 198.793 48.601 191.224C43.379 188.856 37.9381 186.15 34.6749 181.132C31.0295 175.546 31.4104 168.105 37.0132 164.045ZM64.8122 205.257C65.4014 205.771 66.1177 206.103 66.8797 206.216C77.4912 208.812 88.663 206.953 97.9569 201.045C133.925 203.744 137.915 206.043 138.852 205.274C143.859 207.49 149.076 208.394 154.247 209.54C159.85 210.78 165.995 211.23 171.057 208.356C171.704 208.032 172.265 207.548 172.689 206.946C172.999 206.353 173.133 205.678 173.075 205.006C173.016 204.335 172.769 203.695 172.363 203.168C171.513 202.149 170.453 201.34 169.262 200.801C163.481 197.854 156.97 197.043 150.523 196.493C161.303 194.3 171.7 190.428 181.361 185.009C188.437 190.509 189.399 195.607 186.289 202.718C183.61 208.321 179.287 212.9 173.941 215.798C162.462 222.45 148.971 222.957 136.132 223.239C108.17 223.86 79.7733 224.48 52.464 217.433C45.5553 215.628 37.4485 213.655 33.6411 206.721C32.6872 205.095 32.0989 203.268 31.92 201.374C31.741 199.48 31.9759 197.569 32.6073 195.783C33.9552 192.209 36.798 190.016 39.7608 187.948C45.7185 192.097 57.1715 196.517 64.1457 198.15C63.5578 199.268 63.3071 200.542 63.4259 201.809C63.5448 203.077 64.0277 204.278 64.8122 205.257ZM206.037 212.248C199.999 218.563 191.621 223.525 183.679 226.738C174.267 230.515 164.203 232.207 154.193 233.39C111.563 238.522 68.3795 235.193 26.9513 223.58C21.3473 222.003 15.5268 220.086 11.2285 215.8C7.14788 211.798 4.97278 206.047 6.71385 200.353C7.10736 199.107 7.62584 197.907 8.26078 196.773C8.31492 196.733 8.36031 196.682 8.39398 196.623C8.42764 196.563 8.44883 196.497 8.45616 196.429C12.8942 188.763 23.505 181.691 31.9891 178.849C33.5171 182.381 35.994 185.382 39.124 187.494C34.7515 190.393 30.9726 194.073 30.8131 199.845C30.6499 205.99 34.6761 211.233 39.626 214.109C46.1006 217.825 54.0937 219.182 61.3325 220.644C85.0596 225.427 110.287 225.06 134.66 224.479C148.696 224.14 163.765 223.858 176.115 215.853C181.717 212.244 186.613 206.776 188.408 200.011C189.345 197.26 189.268 194.247 188.191 191.553C186.82 188.721 184.816 186.27 182.346 184.404C186.085 182.204 189.336 179.213 191.887 175.624C199.367 178.125 207.923 182.229 211.424 189.978C214.85 197.59 211.423 206.667 206.037 212.248Z" fill="#6E214E"/>
</svg>
