<svg width="30" height="30" viewBox="0 0 30 30" fill="none" xmlns="http://www.w3.org/2000/svg">
<path d="M30 4.35422C30.0003 4.01836 29.933 3.68587 29.802 3.37661C29.671 3.06734 29.479 2.78765 29.2375 2.55422C29.0114 2.32465 28.7404 2.14404 28.4415 2.02362C28.1426 1.9032 27.8221 1.84554 27.5 1.85422H26.4125C26.3187 1.86116 26.2244 1.84802 26.136 1.81569C26.0477 1.78336 25.9672 1.73258 25.9 1.66672C25.8249 1.61261 25.7617 1.54362 25.7144 1.46406C25.6671 1.3845 25.6367 1.29605 25.625 1.20422C25.6256 1.11627 25.6069 1.02925 25.5702 0.949324C25.5335 0.8694 25.4797 0.798527 25.4125 0.741724C25.2983 0.640889 25.1523 0.583374 25 0.579224C23.2792 0.732739 21.5736 1.02536 19.9 1.45422C19.7658 1.49035 19.6474 1.57019 19.5637 1.68112C19.4799 1.79205 19.4355 1.92774 19.4375 2.06672V9.95422C19.4381 10.0776 19.4752 10.1981 19.5442 10.3004C19.6132 10.4027 19.7109 10.4823 19.825 10.5292C19.938 10.5784 20.0634 10.5916 20.1842 10.567C20.305 10.5424 20.4152 10.4812 20.5 10.3917L22.1125 8.77922C22.2314 8.66391 22.3906 8.59943 22.5562 8.59943C22.7219 8.59943 22.8811 8.66391 23 8.77922L24.6125 10.3917C24.7011 10.4623 24.8072 10.5076 24.9195 10.5225C25.0318 10.5375 25.146 10.5217 25.25 10.4767C25.354 10.4318 25.4438 10.3595 25.5099 10.2674C25.5759 10.1754 25.6157 10.0671 25.625 9.95422V5.04172C25.6216 4.88137 25.6812 4.72608 25.7911 4.60921C25.9009 4.49235 26.0522 4.42323 26.2125 4.41672H26.85C26.9322 4.41073 27.0148 4.42209 27.0923 4.45009C27.1698 4.47809 27.2406 4.52208 27.3 4.57922C27.4068 4.67828 27.4772 4.81034 27.5 4.95422V21.8667C27.5001 22.0282 27.4377 22.1835 27.3259 22.3001C27.214 22.4166 27.0614 22.4853 26.9 22.4917C23.5616 22.5557 20.2591 23.1942 17.1375 24.3792C17.0482 24.4308 16.9469 24.4579 16.8438 24.4579C16.7406 24.4579 16.6393 24.4308 16.55 24.3792C16.4637 24.3239 16.3924 24.2482 16.3423 24.1589C16.2921 24.0695 16.2647 23.9692 16.2625 23.8667V7.45422C16.2625 7.21672 16.5875 6.87922 17.2 6.51672C17.2921 6.46063 17.3682 6.38165 17.4208 6.28747C17.4733 6.19328 17.5006 6.08709 17.5 5.97922V4.56672C17.4994 4.45909 17.4716 4.35335 17.4192 4.25937C17.3667 4.16538 17.2913 4.0862 17.2 4.02922C17.1088 3.97656 17.0053 3.94884 16.9 3.94884C16.7947 3.94884 16.6912 3.97656 16.6 4.02922C16.161 4.23009 15.7424 4.47289 15.35 4.75422C15.241 4.83349 15.1097 4.87618 14.975 4.87618C14.8403 4.87618 14.709 4.83349 14.6 4.75422C12.2 2.92922 7.3625 1.99172 2.5625 1.85422C2.23018 1.83832 1.89822 1.89241 1.58813 2.013C1.27805 2.13358 0.996765 2.31798 0.762501 2.55422C0.52101 2.78765 0.32903 3.06734 0.198023 3.37661C0.0670164 3.68587 -0.000331212 4.01836 1.22473e-06 4.35422V22.4542C1.22473e-06 23.1173 0.263393 23.7531 0.732234 24.222C1.20108 24.6908 1.83696 24.9542 2.5 24.9542C10 25.1792 13.75 27.2292 13.75 28.0667C13.75 28.3982 13.8817 28.7162 14.1161 28.9506C14.3505 29.185 14.6685 29.3167 15 29.3167C15.3315 29.3167 15.6495 29.185 15.8839 28.9506C16.1183 28.7162 16.25 28.3982 16.25 28.0667C16.25 27.2292 20.1 25.1792 27.5 24.9542C28.163 24.9542 28.7989 24.6908 29.2678 24.222C29.7366 23.7531 30 23.1173 30 22.4542V4.35422ZM3.1 22.4542C2.93861 22.4478 2.78599 22.3791 2.67413 22.2626C2.56228 22.146 2.49987 21.9907 2.5 21.8292V4.95422C2.50041 4.78531 2.56785 4.62346 2.6875 4.50422C2.81463 4.39055 2.97947 4.32817 3.15 4.32922C10.1375 4.69172 13.75 6.65422 13.75 7.45422V23.8167C13.7478 23.9192 13.7204 24.0195 13.6702 24.1089C13.6201 24.1982 13.5488 24.2739 13.4625 24.3292C13.3732 24.3808 13.2719 24.4079 13.1687 24.4079C13.0656 24.4079 12.9643 24.3808 12.875 24.3292C9.74859 23.1473 6.44186 22.513 3.1 22.4542Z" fill="white"/>
<path d="M11.5752 9.2542C9.46291 8.60946 7.28826 8.19045 5.08767 8.0042C4.96455 7.99271 4.84038 8.00558 4.72224 8.04207C4.6041 8.07857 4.49431 8.13798 4.39913 8.21691C4.30395 8.29584 4.22525 8.39275 4.16752 8.50209C4.10979 8.61144 4.07416 8.73108 4.06267 8.8542C4.05118 8.97731 4.06405 9.10148 4.10055 9.21962C4.13704 9.33776 4.19645 9.44756 4.27538 9.54274C4.35431 9.63792 4.45122 9.71662 4.56056 9.77435C4.66991 9.83208 4.78955 9.86771 4.91267 9.8792C6.97098 10.0512 9.00407 10.4495 10.9752 11.0667C11.2122 11.1463 11.4711 11.1284 11.695 11.0171C11.9189 10.9057 12.0894 10.71 12.1689 10.4729C12.2485 10.2359 12.2306 9.97697 12.1193 9.7531C12.0079 9.52923 11.8122 9.35876 11.5752 9.2792V9.2542Z" fill="white"/>
<path d="M11.575 14.4793C9.4658 13.8221 7.28978 13.4029 5.08745 13.2293C4.84055 13.2049 4.59403 13.2793 4.4019 13.4363C4.20978 13.5932 4.08771 13.82 4.06245 14.0668C4.0415 14.315 4.11884 14.5614 4.27781 14.7531C4.43679 14.9449 4.66469 15.0665 4.91245 15.0918C6.96794 15.2394 9.00098 15.6125 10.975 16.2043C11.0928 16.2491 11.2185 16.2698 11.3445 16.2649C11.4705 16.2601 11.5942 16.2299 11.7082 16.1761C11.8223 16.1223 11.9243 16.0461 12.0082 15.952C12.0921 15.8579 12.1562 15.7478 12.1966 15.6283C12.237 15.5089 12.2528 15.3825 12.2432 15.2568C12.2336 15.1311 12.1988 15.0086 12.1407 14.8966C12.0827 14.7847 12.0027 14.6856 11.9055 14.6053C11.8083 14.525 11.6958 14.4651 11.575 14.4293V14.4793Z" fill="white"/>
<path d="M11.575 19.6917C9.4658 19.0345 7.28978 18.6153 5.08745 18.4417C4.84055 18.4173 4.59403 18.4917 4.4019 18.6487C4.20978 18.8056 4.08771 19.0324 4.06245 19.2792C4.0415 19.5274 4.11884 19.7738 4.27781 19.9655C4.43679 20.1573 4.66469 20.2789 4.91245 20.3042C6.97076 20.4762 9.00385 20.8745 10.975 21.4917C11.2075 21.5606 11.4576 21.5368 11.673 21.4252C11.8883 21.3136 12.0519 21.1228 12.1296 20.8931C12.2073 20.6633 12.1929 20.4124 12.0894 20.1931C11.986 19.9737 11.8016 19.803 11.575 19.7167V19.6917Z" fill="white"/>
<path d="M19.025 16.2042C20.9961 15.587 23.0292 15.1887 25.0875 15.0167C25.3353 14.9914 25.5632 14.8698 25.7222 14.6781C25.8811 14.4864 25.9585 14.2399 25.9375 13.9917C25.9123 13.7449 25.7902 13.5182 25.5981 13.3612C25.4059 13.2042 25.1594 13.1298 24.9125 13.1542C22.7102 13.3278 20.5342 13.7471 18.425 14.4042C18.3011 14.443 18.1866 14.5071 18.0887 14.5925C17.9909 14.6779 17.9119 14.7826 17.8566 14.9001C17.8014 15.0177 17.7712 15.1454 17.7679 15.2752C17.7646 15.405 17.7883 15.5341 17.8375 15.6542C17.9272 15.8806 18.1005 16.064 18.3215 16.1663C18.5425 16.2687 18.7943 16.2822 19.025 16.2042Z" fill="white"/>
<path d="M19.0248 21.4668C20.9959 20.8495 23.029 20.4513 25.0873 20.2793C25.3351 20.254 25.563 20.1324 25.7219 19.9406C25.8809 19.7489 25.9583 19.5025 25.9373 19.2543C25.912 19.0075 25.79 18.7807 25.5979 18.6238C25.4057 18.4668 25.1592 18.3924 24.9123 18.4168C22.71 18.5904 20.534 19.0096 18.4248 19.6668C18.1982 19.7531 18.0137 19.9238 17.9103 20.1432C17.8069 20.3625 17.7925 20.6134 17.8702 20.8432C17.9478 21.0729 18.1115 21.2636 18.3268 21.3753C18.5421 21.4869 18.7923 21.5107 19.0248 21.4418V21.4668Z" fill="white"/>
</svg>
