<svg width="30" height="35" viewBox="0 0 30 35" fill="none" xmlns="http://www.w3.org/2000/svg">
<path fill-rule="evenodd" clip-rule="evenodd" d="M14.7072 0.00285756C17.3726 -0.0491692 20.0036 0.610061 22.3295 1.91268C24.6555 3.21531 26.5922 5.11426 27.9405 7.41406C29.2885 9.71383 29.9995 12.3314 30 14.9972V24.9974C30 25.9919 29.605 26.9459 28.9018 27.6492C28.1985 28.3524 27.2445 28.7474 26.25 28.7474H22.5V33.7474C22.5 34.4379 21.9404 34.9974 21.25 34.9974H8.75C8.05965 34.9974 7.5 34.4379 7.5 33.7474V27.9904C5.42225 26.7909 3.65902 25.1082 2.36252 23.0805C0.926447 20.8345 0.114846 18.2464 0.0113213 15.5826C-0.0922237 12.9188 0.516021 10.2755 1.77345 7.92483C3.03087 5.57416 4.89202 3.60108 7.16532 2.20868C9.43862 0.816286 12.0419 0.0548843 14.7072 0.00285756ZM6.39887 18.0217C4.8982 13.8209 6.56267 9.01871 10.5633 6.70893C14.513 4.42858 19.4281 5.33488 22.3314 8.63016C23.0668 9.46488 22.8958 10.711 22.0703 11.4567C18.9543 14.2712 13.8254 17.8811 8.7879 19.2156C7.79227 19.4794 6.74537 18.9916 6.39887 18.0217Z" fill="white"/>
</svg>
