<svg width="25" height="25" viewBox="0 0 25 25" fill="none" xmlns="http://www.w3.org/2000/svg">
<path d="M10.6562 15.3437L7.59375 12.2812C7.40625 12.0937 7.17706 12 6.90625 12C6.63544 12 6.39581 12.1042 6.1875 12.3125C6 12.5 5.90625 12.7292 5.90625 13C5.90625 13.2708 6 13.5 6.1875 13.6875L10 17.5312C10.1875 17.7187 10.4062 17.8125 10.6562 17.8125C10.9062 17.8125 11.125 17.7187 11.3125 17.5312L18.7812 10.0625C18.9896 9.85419 19.0937 9.61456 19.0937 9.34375C19.0937 9.07294 18.9896 8.83331 18.7812 8.625C18.5729 8.4375 18.3281 8.34894 18.0469 8.35937C17.7656 8.36981 17.5312 8.46875 17.3437 8.65625L10.6562 15.3437ZM12.5 25C10.7917 25 9.17706 24.6719 7.65625 24.0156C6.13544 23.3594 4.80731 22.4636 3.67188 21.3281C2.53646 20.1927 1.64062 18.8646 0.984375 17.3437C0.328125 15.8229 0 14.2083 0 12.5C0 10.7708 0.328125 9.14581 0.984375 7.625C1.64062 6.10419 2.53646 4.78125 3.67188 3.65625C4.80731 2.53125 6.13544 1.64062 7.65625 0.984375C9.17706 0.328125 10.7917 0 12.5 0C14.2292 0 15.8542 0.328125 17.375 0.984375C18.8958 1.64062 20.2188 2.53125 21.3438 3.65625C22.4688 4.78125 23.3594 6.10419 24.0156 7.625C24.6719 9.14581 25 10.7708 25 12.5C25 14.2083 24.6719 15.8229 24.0156 17.3437C23.3594 18.8646 22.4688 20.1927 21.3438 21.3281C20.2188 22.4636 18.8958 23.3594 17.375 24.0156C15.8542 24.6719 14.2292 25 12.5 25Z" fill="#325192"/>
</svg>
