<svg width="24" height="24" viewBox="0 0 24 24" fill="none" xmlns="http://www.w3.org/2000/svg">
<path fill-rule="evenodd" clip-rule="evenodd" d="M15.04 6.96227e-08C15.5997 0.000130632 16.1451 0.158743 16.5991 0.453369C17.053 0.747996 17.3925 1.1637 17.5693 1.6416L18.2933 3.6H22.6667C23.0203 3.6 23.3594 3.72643 23.6095 3.95147C23.8595 4.17652 24 4.48174 24 4.8C24 5.11826 23.8595 5.42348 23.6095 5.64853C23.3594 5.87357 23.0203 6 22.6667 6L22.6627 6.0852L21.5067 20.6568C21.4345 21.5647 20.9829 22.4144 20.2427 23.0347C19.5025 23.655 18.5287 23.9999 17.5173 24H6.48267C5.47128 23.9999 4.49748 23.655 3.75729 23.0347C3.0171 22.4144 2.56548 21.5647 2.49333 20.6568L1.33733 6.084C1.33492 6.05605 1.33359 6.02803 1.33333 6C0.979711 6 0.640573 5.87357 0.390524 5.64853C0.140476 5.42348 0 5.11826 0 4.8C0 4.48174 0.140476 4.17652 0.390524 3.95147C0.640573 3.72643 0.979711 3.6 1.33333 3.6H5.70667L6.43067 1.6416C6.6076 1.16351 6.94725 0.747662 7.40147 0.453018C7.85568 0.158374 8.40143 -0.000121273 8.96133 6.96227e-08H15.04ZM8 9.6C7.67342 9.60004 7.35822 9.70795 7.11417 9.90326C6.87012 10.0986 6.71421 10.3677 6.676 10.6596L6.66667 10.8V18C6.66704 18.3059 6.79717 18.6 7.03046 18.8224C7.26376 19.0448 7.5826 19.1787 7.92186 19.1966C8.26112 19.2145 8.59517 19.1152 8.85578 18.9189C9.11638 18.7226 9.28386 18.4441 9.324 18.1404L9.33333 18V10.8C9.33333 10.4817 9.19286 10.1765 8.94281 9.95147C8.69276 9.72643 8.35362 9.6 8 9.6ZM16 9.6C15.6464 9.6 15.3072 9.72643 15.0572 9.95147C14.8071 10.1765 14.6667 10.4817 14.6667 10.8V18C14.6667 18.3183 14.8071 18.6235 15.0572 18.8485C15.3072 19.0736 15.6464 19.2 16 19.2C16.3536 19.2 16.6928 19.0736 16.9428 18.8485C17.1929 18.6235 17.3333 18.3183 17.3333 18V10.8C17.3333 10.4817 17.1929 10.1765 16.9428 9.95147C16.6928 9.72643 16.3536 9.6 16 9.6ZM15.04 2.4H8.96L8.516 3.6H15.484L15.04 2.4Z" fill="#EA0C5F"/>
</svg>
