<svg width="50" height="45" viewBox="0 0 50 45" fill="none" xmlns="http://www.w3.org/2000/svg">
<path fill-rule="evenodd" clip-rule="evenodd" d="M34.3102 0.874413C33.1022 0.29874 31.7809 -6.10352e-05 30.4426 -6.10352e-05H11.2198C6.79099 -6.10352e-05 3.02232 3.22529 2.33842 7.60055L0.0878639 21.9952C-0.593884 26.3568 2.77853 30.2974 7.19299 30.2974H19.0004V38.7747C19.0004 42.0022 21.6168 44.6187 24.8443 44.6187C26.9596 44.6187 28.9099 43.4755 29.9433 41.6298L37.4128 28.2894C37.8636 27.4844 38.1003 26.5771 38.1003 25.6544V6.08496C38.1003 4.00556 36.9047 2.11098 35.0273 1.21637L34.3102 0.874413ZM46.4174 27.6306C47.3676 27.6306 48.2788 27.2531 48.9507 26.5813C49.6225 25.9094 50 24.9981 50 24.048L50 5.66462C50 4.71427 49.6225 3.80312 48.9507 3.13108C48.2788 2.4594 47.3676 2.08185 46.4174 2.08185L44.6319 2.08257C43.6392 2.08293 42.8348 2.88801 42.8348 3.88043V25.8335C42.8348 26.3104 43.0243 26.7678 43.3616 27.105C43.699 27.4422 44.1565 27.6315 44.6334 27.6313L46.4174 27.6306Z" fill="#6E214E"/>
</svg>
