<?xml version="1.0" standalone="no"?>
<!DOCTYPE svg PUBLIC "-//W3C//DTD SVG 20010904//EN"
 "http://www.w3.org/TR/2001/REC-SVG-20010904/DTD/svg10.dtd">
<svg version="1.0" xmlns="http://www.w3.org/2000/svg"
 width="512.000000pt" height="512.000000pt" viewBox="0 0 512.000000 512.000000"
 preserveAspectRatio="xMidYMid meet">

<g transform="translate(0.000000,512.000000) scale(0.100000,-0.100000)"
fill="#000000" stroke="none">
<path d="M4617 3928 c-37 -3 -96 -16 -132 -27 -81 -26 -748 -316 -795 -346
-57 -36 -107 -99 -126 -159 -10 -31 -22 -56 -28 -56 -6 0 -96 -41 -201 -91
-204 -97 -577 -260 -635 -277 -19 -6 -84 -13 -145 -16 -226 -11 -381 -79 -553
-240 l-67 -63 -429 -162 c-236 -90 -589 -228 -785 -307 -196 -80 -383 -154
-416 -164 -98 -31 -160 -96 -180 -188 -14 -66 3 -118 69 -215 61 -90 166 -278
166 -297 0 -6 -66 -10 -170 -10 l-170 0 0 -65 0 -65 1115 0 1115 0 0 65 0 65
-704 0 -704 0 -31 54 c-30 54 -77 98 -117 110 -15 5 -28 25 -44 68 -19 52 -21
70 -14 121 5 36 15 63 24 68 8 5 562 135 1230 291 l1215 282 180 1 c176 1 219
6 308 41 54 20 57 19 57 -32 0 -27 39 -184 96 -387 52 -188 106 -393 119 -454
13 -62 29 -121 35 -132 5 -11 10 -22 10 -25 0 -3 -227 -6 -505 -6 l-505 0 0
-65 0 -65 1015 0 1015 0 0 65 0 65 -172 0 -173 0 -17 30 c-13 23 -55 48 -187
114 -94 47 -174 94 -179 103 -6 10 -29 183 -53 384 l-43 367 24 313 c28 360
13 320 148 413 56 38 74 46 85 38 30 -25 105 -43 176 -43 73 0 76 1 260 91
199 98 237 127 279 213 54 110 52 247 -6 372 -77 164 -242 245 -455 223z m55
-427 c58 -25 106 -74 146 -148 l32 -61 -112 -60 c-160 -85 -220 -96 -298 -57
-29 15 -83 70 -99 102 -16 31 -14 99 4 134 45 86 222 135 327 90z m-472 -208
c0 -10 11 -42 25 -70 l24 -53 -43 -30 -44 -29 -6 32 c-3 17 -19 55 -35 82
l-29 50 42 16 c54 22 66 22 66 2z m-276 -50 c65 -33 107 -101 109 -177 0 -28
-12 -211 -28 -406 l-29 -356 47 -388 c57 -478 45 -447 214 -535 l118 -61 -130
3 c-79 2 -140 8 -156 16 -38 19 -56 56 -78 167 -12 54 -63 252 -115 439 l-95
340 -3 231 -4 231 -27 29 c-66 71 -75 161 -22 229 l27 37 -43 44 -43 44 -26
-25 c-43 -41 -74 -113 -78 -182 -5 -71 6 -109 53 -188 33 -53 35 -63 35 -141
l0 -84 -57 -26 c-99 -44 -193 -59 -307 -48 l-100 9 -67 267 -66 267 61 26 c34
15 149 69 256 120 107 51 220 100 250 109 128 37 242 41 304 9z m-928 -570
l61 -248 -106 -26 c-94 -22 -107 -23 -113 -10 -7 16 -98 432 -98 450 0 5 17
15 37 22 21 7 60 23 88 35 27 13 55 24 61 24 5 0 37 -111 70 -247z m-2278
-710 c17 -37 28 -70 24 -74 -4 -4 -18 -9 -33 -12 -23 -6 -28 -1 -57 59 -18 37
-31 68 -30 70 4 4 51 22 59 23 3 1 20 -29 37 -66z m-186 -74 l27 -59 -19 -33
c-10 -17 -25 -72 -33 -121 l-14 -90 46 -113 c41 -101 49 -113 71 -113 30 0 72
-20 78 -37 3 -10 -15 -13 -70 -12 -40 0 -81 4 -91 8 -11 4 -53 71 -96 151 -42
80 -95 171 -119 202 -56 76 -66 100 -58 142 8 42 43 72 100 86 22 6 59 19 81
30 22 10 47 19 55 19 9 0 26 -24 42 -60z"/>
<path d="M2432 1248 l3 -63 148 -3 147 -3 0 66 0 65 -150 0 -151 0 3 -62z"/>
</g>
</svg>
