<?xml version="1.0" standalone="no"?>
<!DOCTYPE svg PUBLIC "-//W3C//DTD SVG 20010904//EN"
 "http://www.w3.org/TR/2001/REC-SVG-20010904/DTD/svg10.dtd">
<svg version="1.0" xmlns="http://www.w3.org/2000/svg"
 width="512.000000pt" height="512.000000pt" viewBox="0 0 512.000000 512.000000"
 preserveAspectRatio="xMidYMid meet">

<g transform="translate(0.000000,512.000000) scale(0.100000,-0.100000)"
fill="#000000" stroke="none">
<path d="M1210 5104 c-106 -19 -188 -41 -263 -70 -91 -35 -216 -103 -248 -135
-21 -21 -26 -78 -9 -95 8 -8 -9 -28 -55 -67 l-67 -57 -25 20 c-14 11 -34 20
-45 20 -44 0 -213 -192 -304 -346 -160 -269 -222 -570 -179 -857 30 -203 122
-403 251 -546 l44 -49 -32 -68 c-99 -212 -1 -471 218 -575 120 -58 239 -60
356 -7 l51 24 82 -43 c174 -91 388 -143 583 -143 83 0 102 -3 102 -15 0 -8
-16 -73 -35 -144 -36 -133 -41 -173 -26 -213 6 -16 -3 -64 -31 -168 -21 -80
-48 -179 -59 -220 l-20 -75 -108 3 c-73 2 -130 -2 -177 -13 -152 -35 -301
-140 -383 -269 l-40 -64 -118 1 c-96 0 -129 -4 -175 -21 -148 -54 -249 -170
-265 -304 -7 -61 -30 -88 -111 -131 -173 -91 -156 -344 29 -436 l62 -31 2356
0 c2260 0 2358 1 2396 19 111 50 176 185 145 299 -14 54 -76 123 -134 152
l-43 20 -6 85 c-6 88 -27 150 -73 216 -14 20 -81 168 -149 329 -68 160 -132
298 -142 306 -36 27 -95 9 -113 -37 -11 -25 -4 -47 75 -234 48 -113 85 -208
83 -210 -1 -2 -31 -5 -65 -6 -60 -2 -63 -1 -106 38 -91 84 -180 126 -308 146
l-81 12 -83 193 c-98 230 -121 259 -216 277 -58 11 -108 -10 -204 -86 -86 -68
-196 -130 -318 -179 -32 -12 -70 -34 -85 -49 -16 -14 -119 -191 -231 -393
l-203 -368 -220 0 -220 0 4 68 c3 67 6 73 203 430 191 346 201 363 225 357 14
-3 66 -8 116 -12 69 -4 104 -2 150 12 132 38 150 53 582 487 267 268 417 426
436 460 l29 51 28 -74 c53 -143 290 -693 306 -711 39 -43 123 -8 123 50 0 16
-65 182 -145 370 -79 188 -158 390 -175 449 -17 60 -43 128 -57 153 -14 25
-74 92 -133 150 -100 99 -117 111 -308 219 -154 86 -202 118 -202 133 0 10 40
88 89 173 85 145 117 218 105 236 -3 5 80 156 185 336 104 180 197 352 206
381 64 197 -97 408 -322 420 -99 6 -159 -16 -228 -82 -44 -41 -88 -111 -233
-363 -144 -250 -190 -322 -234 -365 -30 -29 -58 -64 -62 -76 -12 -35 -20 -26
-40 43 l-19 66 32 44 c44 61 68 120 79 190 45 284 -217 549 -497 504 -35 -5
-72 -14 -82 -19 -28 -16 -33 -13 -56 39 -55 119 -303 296 -523 373 -156 54
-249 70 -435 73 -99 2 -191 1 -205 -1z m2575 -593 c80 -36 127 -123 108 -199
-11 -41 -332 -611 -345 -612 -6 0 -307 176 -317 185 -3 4 299 531 331 578 44
62 144 84 223 48z m-1115 -36 c68 -24 125 -77 161 -150 29 -59 31 -71 27 -137
-3 -40 -10 -84 -17 -96 -12 -23 -13 -22 -47 34 -64 106 -128 189 -211 271 -46
45 -83 84 -83 87 0 12 130 5 170 -9z m-292 -99 c177 -136 311 -328 381 -544
41 -124 55 -219 54 -362 -1 -320 -115 -597 -340 -831 -236 -245 -546 -379
-878 -379 -424 0 -797 211 -1004 569 -63 109 -65 101 32 191 174 164 386 422
515 629 81 132 180 330 227 456 64 175 57 171 310 178 114 3 226 12 280 22 95
17 282 75 325 100 35 20 35 20 98 -29z m938 -718 c115 -68 174 -109 174 -120
0 -9 -41 -88 -92 -175 -100 -173 -114 -213 -98 -274 18 -65 63 -102 270 -219
107 -62 209 -122 226 -136 81 -61 109 -209 59 -310 -18 -37 -122 -147 -417
-440 -446 -443 -452 -448 -583 -448 -61 0 -81 5 -136 32 -72 36 -100 59 -179
151 -85 98 -150 121 -241 85 -40 -16 -99 -82 -99 -109 0 -38 -26 -36 -231 21
-112 31 -208 60 -212 64 -5 4 8 70 28 146 55 211 50 201 93 209 79 14 252 78
346 128 l100 53 78 -40 c70 -36 87 -40 167 -44 109 -5 174 13 264 73 119 80
203 218 214 356 10 117 -27 223 -111 316 l-46 51 15 43 c26 73 54 231 61 340
l7 104 70 123 c40 70 76 122 85 122 8 0 93 -46 188 -102z m-450 -852 c67 -144
-2 -324 -151 -396 -58 -27 -157 -32 -218 -11 l-38 13 89 86 c95 93 190 215
243 311 18 33 37 57 42 54 5 -3 20 -29 33 -57z m-2393 -75 c54 -92 176 -243
236 -290 22 -18 41 -37 41 -42 0 -5 -31 -9 -68 -9 -170 0 -303 140 -289 305 4
54 20 115 30 115 3 0 25 -36 50 -79z m1971 -1141 c31 -44 66 -84 76 -90 11 -6
20 -14 20 -19 0 -6 -294 -545 -304 -558 -1 -2 -30 2 -64 8 -55 10 -62 14 -56
31 3 10 38 142 78 291 65 243 77 278 109 321 21 26 37 53 37 60 0 15 20 36 35
36 6 0 37 -36 69 -80z m-445 -40 c57 -16 105 -30 106 -32 8 -8 -138 -525 -156
-554 -87 -141 -339 -68 -339 97 0 32 110 480 135 546 3 9 23 7 77 -8 40 -11
120 -33 177 -49z m1820 -256 c39 -91 71 -171 70 -177 0 -7 -27 -25 -60 -41
-33 -15 -88 -54 -122 -86 l-62 -57 -63 10 c-197 33 -388 -108 -421 -310 -14
-90 -19 -93 -153 -93 -65 0 -118 3 -118 6 0 6 327 601 346 628 7 10 50 34 96
52 100 41 216 110 306 182 100 79 97 81 181 -114z m-2357 -241 c4 -94 29 -150
94 -216 87 -89 214 -125 324 -92 48 14 207 44 235 45 30 0 33 -16 15 -70 -11
-32 -19 -83 -20 -122 l0 -68 -353 0 -353 0 -52 -26 c-111 -55 -166 -177 -139
-307 l8 -37 -486 0 c-341 0 -493 3 -508 11 -65 34 -93 98 -63 144 9 14 38 36
64 49 53 27 106 76 127 117 8 14 19 54 24 88 6 34 20 78 31 97 50 79 176 131
286 116 121 -16 196 16 247 107 62 110 167 191 294 226 26 7 87 14 134 14 l87
1 4 -77z m2765 -107 c45 -21 81 -48 127 -97 36 -38 73 -69 82 -69 10 0 43 5
74 12 82 16 141 -2 201 -62 53 -53 69 -101 69 -207 0 -90 20 -123 99 -162 99
-51 118 -106 57 -167 l-34 -34 -1732 0 c-1255 0 -1737 3 -1753 11 -38 19 -57
51 -57 97 0 37 6 50 34 78 l34 34 854 0 855 0 44 23 c64 34 104 92 124 179 21
95 55 151 109 183 64 38 123 42 197 15 76 -27 100 -22 138 34 80 115 185 167
331 163 69 -2 97 -8 147 -31z"/>
<path d="M2039 4031 c-18 -18 -29 -40 -29 -56 0 -17 -12 -39 -34 -61 -30 -30
-40 -34 -85 -34 -63 0 -91 -23 -91 -74 0 -92 154 -105 262 -23 89 68 129 211
72 256 -36 28 -60 26 -95 -8z"/>
<path d="M1605 3491 c-82 -34 -83 -152 -2 -201 64 -39 136 -19 163 45 37 90
-69 193 -161 156z"/>
<path d="M1162 3325 c-24 -11 -33 -23 -46 -68 -21 -72 -51 -97 -118 -97 -57 0
-98 -31 -98 -75 0 -100 190 -104 288 -5 70 70 100 175 63 221 -26 33 -50 40
-89 24z"/>
</g>
</svg>
