<svg width="120" height="120" viewBox="0 0 120 120" fill="none" xmlns="http://www.w3.org/2000/svg">
<path fill-rule="evenodd" clip-rule="evenodd" d="M120 60C120 26.8629 93.1371 0 60 0C26.8629 0 0 26.8629 0 60C0 93.1371 26.8629 120 60 120C93.1371 120 120 93.1371 120 60ZM89.4866 42.4415C89.4866 47.2844 85.5664 51.2116 80.7262 51.2229L80.7054 51.2229C75.8555 51.2229 71.924 47.2913 71.924 42.4415C71.924 37.5986 75.8443 33.6713 80.6846 33.6601L80.7053 33.66C85.5552 33.66 89.4866 37.5916 89.4866 42.4415ZM48.0762 42.4415C48.0762 47.2845 44.1558 51.2117 39.3154 51.2229L39.2946 51.2229C34.4448 51.2229 30.5132 47.2913 30.5132 42.4415C30.5132 37.5986 34.4336 33.6712 39.2739 33.6601L39.2947 33.66C44.1446 33.66 48.0762 37.5916 48.0762 42.4415ZM35.9139 66.5182C35.1451 63.6612 32.2057 61.9684 29.3487 62.7373C26.4916 63.5061 24.7989 66.4455 25.5677 69.3025C29.6559 84.4946 43.5219 95.6837 60.0149 95.6837C76.508 95.6837 90.3737 84.4946 94.4623 69.3025C95.2311 66.4455 93.5383 63.5061 90.6814 62.7373C87.8246 61.9684 84.8848 63.6612 84.116 66.5182C81.2548 77.1503 71.5412 84.9691 60.0149 84.9691C48.4887 84.9691 38.7751 77.1503 35.9139 66.5182Z" fill="#FDCD79"/>
</svg>
