<svg width="50" height="45" viewBox="0 0 50 45" fill="none" xmlns="http://www.w3.org/2000/svg">
<path fill-rule="evenodd" clip-rule="evenodd" d="M15.6898 43.7442C16.8978 44.3199 18.2191 44.6187 19.5574 44.6187H38.7802C43.209 44.6187 46.9777 41.3934 47.6616 37.0181L49.9121 22.6234C50.5939 18.2618 47.2215 14.3212 42.807 14.3212H30.9996V5.84392C30.9996 2.61641 28.3832 0 25.1557 0C23.0404 0 21.0901 1.14314 20.0567 2.98889L12.5872 16.3292C12.1364 17.1343 11.8997 18.0415 11.8997 18.9642V38.5337C11.8997 40.6131 13.0953 42.5077 14.9727 43.4023L15.6898 43.7442ZM3.58261 16.9881C2.63244 16.9881 1.72119 17.3655 1.04932 18.0374C0.377454 18.7093 0 19.6205 0 20.5707L1.79717e-06 38.954C1.79717e-06 39.9044 0.377454 40.8155 1.04932 41.4876C1.72119 42.1592 2.63244 42.5368 3.58261 42.5368L5.36813 42.5361C6.36076 42.5357 7.1652 41.7306 7.1652 40.7382V18.7852C7.1652 18.3082 6.97567 17.8508 6.63835 17.5136C6.301 17.1764 5.84352 16.9871 5.36659 16.9873L3.58261 16.9881Z" fill="#6E214E"/>
</svg>
