<svg width="24" height="25" viewBox="0 0 24 25" fill="none" xmlns="http://www.w3.org/2000/svg">
<path fill-rule="evenodd" clip-rule="evenodd" d="M3.14256 1.12736C4.67429 1.01518 7.26443 0.901001 11.4667 0.901001C15.6689 0.901001 18.259 1.01518 19.7908 1.12736C21.331 1.24015 22.5569 2.34527 22.7229 3.89978C22.8354 4.95219 22.9333 6.46663 22.9333 8.5493C22.9333 10.5177 22.8458 11.9786 22.7413 13.0215C21.8402 11.7495 20.3473 10.923 18.6667 10.923C16.0111 10.923 13.8243 12.9868 13.6999 15.6103L13.6763 16.1089C13.6348 16.1345 13.5938 16.1607 13.5533 16.1876C12.9065 16.1941 12.2119 16.1977 11.4667 16.1977C7.26443 16.1977 4.67429 16.0835 3.14258 15.9714C1.60234 15.8585 0.376411 14.7534 0.210379 13.1989C0.097968 12.1465 0 10.632 0 8.5493C0 6.46663 0.097968 4.95219 0.210373 3.89978C0.376411 2.34527 1.60233 1.24015 3.14256 1.12736ZM5.6 10.1318C4.71632 10.1318 4 9.42332 4 8.54935C4 7.67538 4.71632 6.96693 5.6 6.96693C6.48368 6.96693 7.2 7.67538 7.2 8.54935C7.2 9.42332 6.48368 10.1318 5.6 10.1318ZM9.86667 8.54935C9.86667 9.42332 10.583 10.1318 11.4667 10.1318C12.3503 10.1318 13.0667 9.42332 13.0667 8.54935C13.0667 7.67538 12.3503 6.96693 11.4667 6.96693C10.583 6.96693 9.86667 7.67538 9.86667 8.54935ZM17.3333 10.1318C16.4497 10.1318 15.7333 9.42332 15.7333 8.54935C15.7333 7.67538 16.4497 6.96693 17.3333 6.96693C18.217 6.96693 18.9333 7.67538 18.9333 8.54935C18.9333 9.42332 18.217 10.1318 17.3333 10.1318ZM15.2982 15.6844C15.3825 13.9051 16.8657 12.5054 18.6667 12.5054C20.4677 12.5054 21.9509 13.9051 22.0352 15.6844L22.1043 17.1414C23.1213 17.3759 23.87 18.1781 23.949 19.2894C23.9794 19.7165 24 20.2588 24 20.945C24 21.6311 23.9794 22.1734 23.949 22.6005C23.8595 23.8586 22.9118 24.7204 21.6883 24.8111C21.0124 24.8613 20.0433 24.901 18.6667 24.901C17.29 24.901 16.3209 24.8613 15.6451 24.8111C14.4215 24.7204 13.4738 23.8586 13.3843 22.6005C13.3539 22.1734 13.3333 21.6311 13.3333 20.945C13.3333 20.3363 13.3473 19.8421 13.3685 19.4418C13.4298 18.2894 14.1758 17.4263 15.2285 17.1541L15.2982 15.6844ZM19.962 17.0022C19.5764 16.9937 19.1463 16.9889 18.6667 16.9889C18.1877 16.9889 17.7575 16.9937 17.3714 17.0021L17.4292 15.7832C17.4602 15.1295 18.005 14.6153 18.6667 14.6153C19.3283 14.6153 19.8732 15.1295 19.9042 15.7832L19.962 17.0022ZM18.6667 19.6263C19.1085 19.6263 19.4667 19.9805 19.4667 20.4175V21.4724C19.4667 21.9094 19.1085 22.2636 18.6667 22.2636C18.2249 22.2636 17.8667 21.9094 17.8667 21.4724V20.4175C17.8667 19.9805 18.2249 19.6263 18.6667 19.6263Z" fill="black"/>
</svg>
