<svg width="29" height="20" viewBox="0 0 29 20" fill="none" xmlns="http://www.w3.org/2000/svg">
<path d="M26.4602 20L28.1102 5.75119C28.1356 5.55739 28.1137 5.35937 28.047 5.17879C27.9802 4.99821 27.8712 4.84202 27.7319 4.72729C27.5925 4.61256 27.4282 4.54372 27.2568 4.52829C27.0855 4.51286 26.9137 4.55143 26.7602 4.63979L21.4102 9.39889C21.3104 9.4936 21.1941 9.56326 21.069 9.60333C20.944 9.64341 20.8129 9.65301 20.6844 9.6315C20.5558 9.61 20.4327 9.55787 20.323 9.47851C20.2133 9.39915 20.1195 9.29434 20.0478 9.17091L14.7602 0.365146C14.6734 0.250557 14.5659 0.158631 14.4452 0.0956225C14.3244 0.0326136 14.1931 0 14.0602 0C13.9274 0 13.7961 0.0326136 13.6753 0.0956225C13.5546 0.158631 13.4471 0.250557 13.3602 0.365146L8.07275 9.17091C8.00096 9.29434 7.90717 9.39915 7.79748 9.47851C7.68779 9.55787 7.56467 9.61 7.43613 9.6315C7.30759 9.65301 7.17652 9.64341 7.05145 9.60333C6.92638 9.56326 6.81012 9.4936 6.71025 9.39889L1.36025 4.75378C1.20682 4.66542 1.03503 4.62685 0.863665 4.64228C0.692301 4.65771 0.527957 4.72656 0.388603 4.84128C0.249249 4.95601 0.140248 5.1122 0.0735194 5.29278C0.00679038 5.47336 -0.0150983 5.67138 0.0102464 5.86518L1.66025 20H26.4602Z" fill="#FFD700"/>
</svg>
