<svg width="120" height="120" viewBox="0 0 120 120" fill="none" xmlns="http://www.w3.org/2000/svg">
<path fill-rule="evenodd" clip-rule="evenodd" d="M0 60C0 26.8629 26.8629 0 60 0C93.1371 0 120 26.8629 120 60C120 93.1371 93.1371 120 60 120C26.8629 120 0 93.1371 0 60ZM35.9139 91.7186C35.1451 94.5754 32.2057 96.2683 29.3487 95.4994C26.4916 94.7306 24.7989 91.7914 25.5677 88.9337C29.6559 73.742 43.5219 62.5532 60.0149 62.5532C76.508 62.5532 90.3737 73.742 94.4623 88.9337C95.2311 91.7914 93.5383 94.7306 90.6814 95.4994C87.8246 96.2683 84.8848 94.5754 84.116 91.7186C81.2548 81.0862 71.5412 73.2675 60.0149 73.2675C48.4887 73.2675 38.7751 81.0862 35.9139 91.7186ZM39.2738 51.2229C34.4336 51.2116 30.5133 47.2844 30.5133 42.4415C30.5133 37.5916 34.4448 33.66 39.2947 33.66L39.3154 33.6601C44.1557 33.6713 48.076 37.5986 48.076 42.4415C48.076 47.2913 44.1445 51.2229 39.2946 51.2229L39.2738 51.2229ZM80.6846 51.2229C75.8442 51.2117 71.9238 47.2845 71.9238 42.4415C71.9238 37.5916 75.8554 33.66 80.7053 33.66C80.7123 33.66 80.7192 33.6601 80.7262 33.6601C85.5664 33.6712 89.4866 37.5986 89.4866 42.4415C89.4866 47.2913 85.5552 51.2229 80.7054 51.2229C80.6985 51.2229 80.6915 51.2229 80.6846 51.2229Z" fill="#6BCADE"/>
</svg>
