<svg width="253" height="76" viewBox="0 0 253 76" fill="none" xmlns="http://www.w3.org/2000/svg">
<path d="M126.565 46.6731C121.736 46.6731 117.498 44.1669 117.498 38.1962H117.977C117.977 42.9138 121.736 45.2357 125.606 45.2357C129.845 45.2357 131.319 43.5772 131.319 41.5133C131.319 35.5794 117.793 36.206 117.793 26.8077C117.793 22.1638 121.736 20.1736 126.307 20.1736C132.24 20.1736 134.931 22.6798 134.931 27.6554H134.415C134.415 21.7953 129.513 21.0213 127.228 21.0213C124.132 21.0213 121.626 21.9427 121.626 24.928C121.626 31.2304 136.073 30.3827 136.073 39.9284C136.073 43.7615 133.014 46.6731 126.565 46.6731Z" fill="black"/>
<path d="M142.328 40.2602V20.5053H147.93V40.2233C147.93 45.0514 151.174 45.6411 153.275 45.6411C155.412 45.6411 159.43 45.0514 159.43 40.2233C159.43 31.3041 155.928 20.8739 154.196 20.8739V20.5053H159.798V40.2602C159.798 44.7197 157.108 46.7468 151.174 46.7468C144.871 46.7468 142.328 44.7197 142.328 40.2602Z" fill="black"/>
<path d="M177.136 46.3783L166.447 21.353V22.7167C166.447 31.7096 169.58 46.0097 171.681 46.0097V46.3783H166.079V20.5053H172.013L182.701 45.5306V44.1669C182.701 35.174 179.531 20.8739 177.467 20.8739V20.5053H183.07V46.3783H177.136Z" fill="black"/>
<path d="M198.392 46.6731C193.564 46.6731 189.326 44.1669 189.326 38.1962H189.805C189.805 42.9138 193.564 45.2357 197.434 45.2357C201.672 45.2357 203.147 43.5772 203.147 41.5133C203.147 35.5794 189.62 36.206 189.62 26.8077C189.62 22.1638 193.564 20.1736 198.134 20.1736C204.068 20.1736 206.758 22.6798 206.758 27.6554H206.242C206.242 21.7953 201.341 21.0213 199.056 21.0213C195.96 21.0213 193.453 21.9427 193.453 24.928C193.453 31.2304 207.901 30.3827 207.901 39.9284C207.901 43.7615 204.842 46.6731 198.392 46.6731Z" fill="black"/>
<path d="M214.156 46.3783V20.5053H229.783V26.1074H229.414C229.414 23.9329 225.766 20.8739 220.274 20.8739H219.758V32.115H225.766V32.4835H219.758V46.0097H220.274C225.766 46.0097 229.414 42.9506 229.414 40.7761H229.783V46.3783H214.156Z" fill="black"/>
<path d="M241.42 46.3783V20.8739C238.766 20.9107 236.039 23.9329 236.039 26.1074H235.671V20.5053H252.772V26.1074H252.403C252.403 23.9329 249.676 20.9107 247.022 20.8739V46.3783H241.42Z" fill="black"/>
<path d="M136.459 69.1253L132.621 51.742H136.508L140.272 68.7787C140.743 66.3272 141.089 62.9099 141.065 59.8146L139.282 51.742H143.169L146.933 68.7787C148.122 63.0337 148.568 51.9896 147.057 51.9896V51.742H150.945L147.107 69.1253H143.12L141.783 63.0585L140.446 69.1253H136.459Z" fill="black"/>
<path d="M152.066 69.1253V51.742H162.565V55.5059H162.318C162.318 54.0449 159.866 51.9896 156.177 51.9896H155.83V59.5422H159.866V59.7898H155.83V68.8777H156.177C159.866 68.8777 162.318 66.8224 162.318 65.3614H162.565V69.1253H152.066Z" fill="black"/>
<path d="M163.673 69.1253V51.742H167.437V68.8777H168.106C170.508 68.8777 173.752 66.7481 173.752 65.3614H173.999V69.1253H163.673Z" fill="black"/>
<path d="M175.112 69.1253V51.742H178.876V68.8777H179.544C181.946 68.8777 185.19 66.7481 185.19 65.3614H185.438V69.1253H175.112Z" fill="black"/>
<path d="M193.979 69.1253L186.798 52.3115V53.2277C186.798 59.2698 188.902 68.8777 190.314 68.8777V69.1253H186.55V51.742H190.537L197.718 68.5558V67.6396C197.718 61.5975 195.588 51.9896 194.202 51.9896V51.742H197.965V69.1253H193.979Z" fill="black"/>
<path d="M199.197 69.1253V51.742H209.697V55.5059H209.449C209.449 54.0449 206.997 51.9896 203.308 51.9896H202.961V59.5422H206.997V59.7898H202.961V68.8777H203.308C206.997 68.8777 209.449 66.8224 209.449 65.3614H209.697V69.1253H199.197Z" fill="black"/>
<path d="M216.896 69.3234C213.652 69.3234 210.805 67.6396 210.805 63.628H211.127C211.127 66.7976 213.652 68.3577 216.253 68.3577C219.1 68.3577 220.091 67.2434 220.091 65.8567C220.091 61.8699 211.003 62.2908 211.003 55.9764C211.003 52.8563 213.652 51.5191 216.723 51.5191C220.71 51.5191 222.517 53.203 222.517 56.5459H222.171C222.171 52.6087 218.877 52.0886 217.342 52.0886C215.262 52.0886 213.578 52.7077 213.578 54.7135C213.578 58.9479 223.285 58.3783 223.285 64.7919C223.285 67.3672 221.23 69.3234 216.896 69.3234Z" fill="black"/>
<path d="M230.608 69.3234C227.364 69.3234 224.516 67.6396 224.516 63.628H224.838C224.838 66.7976 227.364 68.3577 229.964 68.3577C232.812 68.3577 233.802 67.2434 233.802 65.8567C233.802 61.8699 224.714 62.2908 224.714 55.9764C224.714 52.8563 227.364 51.5191 230.434 51.5191C234.421 51.5191 236.229 53.203 236.229 56.5459H235.882C235.882 52.6087 232.589 52.0886 231.053 52.0886C228.973 52.0886 227.289 52.7077 227.289 54.7135C227.289 58.9479 236.996 58.3783 236.996 64.7919C236.996 67.3672 234.941 69.3234 230.608 69.3234Z" fill="black"/>
<path d="M130.398 61.0631C130.398 63.2894 128.593 65.0942 126.367 65.0942C124.14 65.0942 122.335 63.2894 122.335 61.0631C122.335 58.8367 124.14 57.032 126.367 57.032C128.593 57.032 130.398 58.8367 130.398 61.0631Z" fill="#FF5341"/>
<path d="M247.588 61.0631C247.588 63.2894 245.784 65.0942 243.557 65.0942C241.331 65.0942 239.526 63.2894 239.526 61.0631C239.526 58.8367 241.331 57.032 243.557 57.032C245.784 57.032 247.588 58.8367 247.588 61.0631Z" fill="#FF5341"/>
<path d="M1.1712 52.7071C5.51483 50.3956 9.20298 50.2463 12.0012 53.0902C16.176 57.2718 21.6172 58.2002 29.4018 53.0902C34.1937 50.3567 40.9918 49.3761 45.2641 53.0902C51.7763 58.1938 56.8602 58.3042 63.4442 53.0902C68.5022 49.2464 74.3067 50.0384 78.91 53.8629C85.3575 58.0768 91.805 58.0379 98.2523 53.4796C99.6355 51.4864 103.051 51.8628 107.531 53.4796M20.1238 63.9206C29.2787 62.5897 36.1549 54.9344 44.8033 62.9534C49.4459 65.5701 57.4446 66.0116 64.671 62.9534C71.5861 59.5577 76.7675 59.0706 81.6178 62.3754C85.9162 65.7585 92.1495 65.5701 97.4798 62.7651M34.1496 70.5356C38.1167 68.8668 44.9443 68.6657 48.0352 71.1134C53.6838 73.8341 56.1264 74.0095 62.2881 70.5356C66.8462 69.2696 71.1006 69.1004 76.5028 71.1134M54.7374 1.45764V13.2553M84.91 14.606L76.2027 23.1183M24.6476 14.5694L33.3549 23.0817M69.4374 11.5154L66.5351 15.5734M40.0441 11.3204L42.7515 15.6252M21.0915 30.6568L26.117 33.5591M11.6118 44.7792H24.3766M86.8422 44.8029H99.607M85.7799 32.1114L89.7925 31.2866M30.9823 45.3787C31.3662 34.821 38.4975 21.192 56.4648 21.192C74.4321 21.192 79.3558 34.821 80.5076 45.3787" stroke="url(#paint0_linear_1_394)" stroke-width="2.3035" stroke-linecap="round"/>
<defs>
<linearGradient id="paint0_linear_1_394" x1="19.5506" y1="12.9495" x2="81.6186" y2="68.4621" gradientUnits="userSpaceOnUse">
<stop stop-color="#002296"/>
<stop offset="0.188" stop-color="#3E1B55"/>
<stop offset="0.373" stop-color="#C0007A"/>
<stop offset="0.593" stop-color="#EA0C5F"/>
<stop offset="0.783" stop-color="#FF5341"/>
<stop offset="0.983" stop-color="#FF8820"/>
</linearGradient>
</defs>
</svg>
