<svg xmlns="http://www.w3.org/2000/svg" viewBox="-0.5 -0.5 16 16" fill="currentColor" id="List-Bold--Streamline-Phosphor.svg" height="16" width="16"><desc>List Bold Streamline Icon: https://streamlinehq.com</desc><path d="M14.85 7.5c0 0.48710156250000003 -0.39489843750000003 0.8819765625 -0.882 0.882H1.032c-0.678966796875 -0.000029296875 -1.1033203125 -0.735046875 -0.76381640625 -1.32303515625 0.15755859375 -0.27287109375 0.44872265625 -0.44096484375 0.76381640625 -0.44096484375h12.936c0.48710156250000003 0.0000234375 0.882 0.39489843750000003 0.882 0.882ZM1.032 3.678h12.936c0.678966796875 0 1.1033144531249999 -0.735 0.7638339843749999 -1.323 -0.157546875 -0.272876953125 -0.448740234375 -0.44098828125 -0.7638339843749999 -0.441H1.032c-0.678966796875 0.000029296875 -1.1033203125 0.735046875 -0.76381640625 1.32303515625 0.15755859375 0.27287109375 0.44872265625 0.44096484375 0.76381640625 0.44096484375Zm12.936 7.644000000000001H1.032c-0.678966796875 0.000029296875 -1.1033203125 0.735046875 -0.76381640625 1.32303515625 0.15755859375 0.27287109375 0.44872265625 0.44096484375 0.76381640625 0.44096484375h12.936c0.678966796875 0 1.1033144531249999 -0.735 0.7638339843749999 -1.323 -0.157546875 -0.272876953125 -0.448740234375 -0.44098828125 -0.7638339843749999 -0.441Z" stroke-width="1"></path></svg>