<svg width="342" height="380" viewBox="0 0 342 380" fill="none" xmlns="http://www.w3.org/2000/svg">
<path d="M83.8333 302.18C83.8333 302.18 63.2179 308.074 76.6999 320.552C94.7608 337.259 205.708 333.297 205.708 333.297C205.708 333.297 258.209 334.696 262.109 315.103C262.109 315.103 257.276 298.841 246.25 301.039C235.224 303.237 216.649 308.949 216.649 308.949C216.649 308.949 230.977 322.08 200.024 317.211C179.495 313.982 113.845 309.476 113.845 309.476C113.845 309.476 89.7694 304.977 83.8333 302.18Z" fill="#4191A1"/>
<path d="M186.797 123.03C187.469 129.54 188.146 131.038 188.578 134.545C188.704 135.224 188.619 135.926 188.335 136.552C188.052 137.177 187.585 137.693 187 138.026C186.416 138.359 185.745 138.492 185.083 138.405C184.422 138.318 183.804 138.016 183.319 137.542C182.725 136.927 181.707 137.718 182.216 138.421C183.997 141.322 188.163 142.295 190.02 138.861C190.724 137.229 190.874 135.397 190.444 133.666C189.885 130.057 189.046 126.381 188.154 122.854C187.973 122.155 186.714 122.239 186.797 123.03Z" fill="#325192"/>
<path d="M189.43 126.198C191.868 128.681 196.893 128.307 198.08 124.615C198.335 123.816 197.404 123.474 196.893 123.912C196.116 124.771 195.158 125.433 194.093 125.846C192.764 126.145 191.376 125.925 190.193 125.23C189.599 124.879 188.917 125.674 189.43 126.198Z" fill="#325192"/>
<path d="M171.022 127.603C173.287 130.542 178.155 131.559 180.775 128.482C181.199 128.043 180.775 126.988 180.097 127.339C178.827 128.08 177.373 128.409 175.921 128.284C174.47 128.158 173.088 127.584 171.955 126.636C171.371 126.183 170.609 127.066 171.022 127.603Z" fill="#325192"/>
<path d="M189.858 118.987C191.83 116.899 194.608 117.497 196.981 116.352C197.245 116.188 197.457 115.948 197.592 115.662C197.727 115.376 197.78 115.056 197.744 114.74C197.708 114.424 197.585 114.125 197.39 113.879C197.194 113.634 196.935 113.452 196.642 113.355C194.834 113.033 192.973 113.278 191.3 114.058C189.754 114.619 188.457 115.744 187.652 117.223C187.473 117.528 187.408 117.892 187.471 118.243C187.534 118.595 187.72 118.91 187.993 119.128C188.266 119.347 188.607 119.453 188.951 119.427C189.295 119.401 189.618 119.245 189.858 118.987Z" fill="#325192"/>
<path d="M180.864 118.635C179.095 117.816 177.124 117.588 175.224 117.982C173.324 118.376 171.59 119.372 170.26 120.833C169.489 121.8 170.166 123.886 171.61 123.294C172.928 122.665 174.289 122.136 175.682 121.712C177.17 121.495 178.673 121.407 180.176 121.448C180.487 121.429 180.784 121.308 181.025 121.102C181.265 120.896 181.436 120.616 181.513 120.302C181.59 119.989 181.568 119.659 181.451 119.359C181.335 119.059 181.129 118.805 180.864 118.635Z" fill="#325192"/>
<path d="M174.844 144.658C175.694 145.68 176.807 146.43 178.054 146.819C179.301 147.209 180.629 147.221 181.883 146.856C182.478 146.594 182.307 145.539 181.713 145.363C180.695 145.187 179.681 145.265 178.661 145.011C177.607 144.664 176.607 144.161 175.692 143.517C174.932 143.067 174.35 144.028 174.844 144.658Z" fill="#325192"/>
<path d="M165.339 3.74919C163.571 12.2143 164.009 21.0148 166.61 29.2462C166.635 29.3469 166.68 29.4414 166.742 29.5239C166.803 29.6063 166.88 29.6752 166.967 29.7264C167.055 29.7776 167.151 29.8101 167.251 29.8219C167.351 29.8338 167.452 29.8247 167.549 29.7953C167.645 29.7659 167.735 29.7167 167.813 29.6507C167.891 29.5847 167.955 29.5032 168.002 29.4111C168.049 29.3189 168.077 29.2179 168.086 29.1141C168.094 29.0102 168.083 28.9057 168.052 28.8066C166.608 20.3529 165.424 12.7204 166.61 4.10684C166.779 3.30962 165.499 2.87205 165.339 3.74919Z" fill="#325192"/>
<path d="M159.153 0.585558C156.426 10.1942 156.902 20.4746 160.503 29.7689C160.931 30.9098 162.624 30.3803 162.199 29.2414C158.63 20.2636 158.004 10.3195 160.418 0.937213C160.453 0.847567 160.469 0.751337 160.465 0.654863C160.461 0.55839 160.437 0.463864 160.396 0.377517C160.354 0.291169 160.295 0.214959 160.223 0.153911C160.151 0.0928623 160.067 0.0483615 159.977 0.0233408C159.887 -0.00167996 159.793 -0.00665244 159.701 0.00875141C159.609 0.0241553 159.521 0.0595863 159.443 0.112708C159.365 0.165829 159.299 0.235435 159.249 0.316939C159.199 0.398443 159.167 0.489994 159.153 0.585558Z" fill="#325192"/>
<path d="M152.876 12.9774C152.406 21.1556 154.296 29.2938 158.305 36.3545C158.429 36.5412 158.615 36.6735 158.828 36.7255C159.04 36.7774 159.264 36.7453 159.455 36.6353C159.646 36.5254 159.79 36.3455 159.86 36.131C159.93 35.9164 159.92 35.6826 159.832 35.4753C156.342 28.5166 154.455 20.8147 154.318 12.9734C154.318 12.0103 152.961 12.0983 152.876 12.9774Z" fill="#325192"/>
<path d="M156.519 41.5479C129.689 54.0716 93.0221 73.3687 77.8088 100.618C61.9188 129.08 78.2233 161.282 100.366 180.168C112.78 190.692 127.295 198.228 142.861 202.232C143.131 202.314 143.421 202.281 143.668 202.141C143.914 202.001 144.097 201.765 144.176 201.485C144.255 201.205 144.223 200.904 144.088 200.649C143.953 200.393 143.725 200.204 143.455 200.122C116.946 192.947 92.0601 175.86 79.4205 150.105C72.0423 135.074 70.9049 117.827 78.8267 102.728C93.2862 75.1549 130.135 56.1735 157.112 42.6908C157.961 42.435 157.28 41.1922 156.519 41.5479Z" fill="#325192"/>
<path d="M187.054 4.54298C189.588 12.8116 190.847 21.4426 190.786 30.1179C190.786 30.3627 190.88 30.5975 191.047 30.7706C191.214 30.9437 191.441 31.041 191.677 31.041C191.913 31.041 192.14 30.9437 192.307 30.7706C192.474 30.5975 192.568 30.3627 192.568 30.1179C192.993 21.2002 191.546 12.2931 188.326 4.0115C188.249 3.8515 188.116 3.72757 187.954 3.6643C187.793 3.60104 187.614 3.60307 187.454 3.67C187.294 3.73692 187.164 3.86385 187.09 4.02557C187.015 4.18729 187.003 4.37199 187.054 4.54298Z" fill="#325192"/>
<path d="M194.944 7.79111C196.091 14.6991 196.35 21.7341 195.715 28.7126C195.643 29.6796 197.163 29.8555 197.326 28.9763C198.487 21.8097 198.169 14.4695 196.393 7.43946C196.216 6.38449 194.774 6.82606 194.944 7.79111Z" fill="#325192"/>
<path d="M202.494 17.9006C202.793 22.7358 202.422 27.5905 201.391 32.3165C200.695 35.6512 197.921 40.4864 198.677 43.8312C199.284 46.5525 202.502 47.7733 204.53 49.104C229.286 65.3461 269.628 94.5634 266.954 124.876C264.521 152.449 232.637 178.351 207.751 188.869C206.483 189.404 207.079 191.604 208.345 191.067C232.092 180.987 258.288 161.528 266.87 135.249C278.46 99.7643 238.967 69.9016 208.685 49.3697C203.641 45.9511 203.094 46.069 201.9 43.0419C200.551 39.6153 201.463 40.7242 202.918 33.5473C203.923 28.3722 204.237 23.0784 203.851 17.8147C203.833 17.634 203.748 17.4677 203.614 17.3503C203.48 17.233 203.308 17.1736 203.133 17.1847C202.958 17.1958 202.794 17.2764 202.675 17.4098C202.556 17.5431 202.491 17.719 202.494 17.9006Z" fill="#325192"/>
<path d="M172.209 9.19751C172.132 8.9632 171.972 8.76827 171.761 8.65324C171.55 8.5382 171.304 8.51191 171.075 8.57983C170.845 8.64774 170.65 8.80463 170.53 9.0179C170.409 9.23117 170.372 9.48441 170.427 9.72499C172.806 21.2397 176.199 33.4617 169.324 44.0074C163.477 52.9766 154.234 60.0157 146.679 67.3005C132.185 81.2988 117.025 95.8785 106.281 113.391C105.18 112.318 103.835 111.551 102.371 111.162C100.907 110.773 99.3714 110.774 97.9079 111.165C97.3122 111.329 97.3989 112.64 98.1643 112.564C99.5636 112.425 100.976 112.575 102.319 113.004C103.216 113.377 104.056 113.884 104.812 114.508C104.759 114.645 104.748 114.794 104.779 114.938C110.322 143.134 128.564 163.069 143.964 168.309C144.182 168.376 144.416 168.359 144.622 168.262C144.829 168.164 144.994 167.992 145.088 167.778C145.182 167.564 145.198 167.322 145.133 167.096C145.068 166.871 144.927 166.677 144.735 166.551C134.733 160.913 126.081 154.945 119.206 145.28C113.075 136.296 108.674 126.17 106.246 115.457C106.374 115.461 106.5 115.433 106.615 115.376C106.73 115.319 106.83 115.235 106.907 115.13C120.596 95.9684 136.586 79.6964 153.471 63.6181C160.678 56.7589 169.926 49.7297 173.658 40.0612C177.391 30.3927 175.027 18.8281 172.209 9.19751Z" fill="#325192"/>
<path d="M248.63 108.001C247.25 107.72 245.823 107.802 244.481 108.239C243.139 108.676 241.923 109.454 240.946 110.503C226.448 95.9221 212.759 80.5011 199.946 64.3142C193.341 55.7806 186.836 47.3429 184.34 36.4495C181.909 25.808 182.99 15.2703 182.813 4.45494C182.799 3.5758 181.349 3.22015 181.201 4.1892C179.705 14.3489 179.935 24.7015 181.88 34.7792C183.925 45.151 189.082 53.333 195.281 61.5889C208.714 79.4833 223.671 97.3978 240.431 112.183C237.524 116.809 235.065 121.808 232.177 126.461C228.925 131.27 225.138 135.666 220.895 139.558C214.512 145.952 208.427 152.656 202.067 158.985C201.473 159.785 202.491 160.83 203.085 160.128C209.784 153.623 216.147 146.767 222.846 140.174C230.907 131.89 237.611 122.301 242.694 111.782C242.726 111.721 242.751 111.658 242.77 111.592C244.444 110.237 246.506 109.5 248.63 109.496C249.394 109.396 249.311 108.171 248.63 108.001Z" fill="#325192"/>
<path d="M180.61 254.005C180.61 252.061 178.321 252.057 178.321 254.005C178.146 255.588 180.61 255.588 180.61 254.005Z" fill="#325192"/>
<path d="M221.658 119.957C219.668 119.766 217.663 120.067 215.807 120.836C215.128 121.1 214.704 119.957 215.298 119.607C217.27 118.479 219.491 117.904 221.743 117.937C221.967 117.452 222.225 116.984 222.514 116.538C223.044 115.415 223.329 114.185 223.349 112.935C223.369 111.685 223.124 110.446 222.63 109.305C222.136 108.165 221.407 107.15 220.493 106.334C219.579 105.518 218.503 104.921 217.342 104.584C218.027 102.342 218.258 99.9774 218.02 97.6386C217.862 96.4755 217.374 95.3871 216.619 94.5109C215.865 93.6347 214.876 93.0099 213.779 92.7154C212.252 92.4517 210.183 92.9991 209.453 91.5725C209.243 91.044 209.156 90.4719 209.198 89.9022C209.089 88.7824 208.751 87.6995 208.207 86.7252C207.663 85.7509 206.926 84.9076 206.044 84.2511C205.162 83.5946 204.155 83.1399 203.09 82.9171C202.026 82.6943 200.928 82.7086 199.869 82.959C198.911 84.1385 198.399 85.6378 198.427 87.1788C198.415 87.3442 198.348 87.5001 198.237 87.6203C198.127 87.7404 197.98 87.8173 197.821 87.838C197.662 87.8587 197.502 87.8219 197.366 87.7338C197.23 87.6457 197.128 87.5118 197.077 87.3547C196.923 86.2766 196.995 85.1769 197.288 84.1301C197.581 83.0834 198.087 82.1143 198.774 81.2886C197.864 75.6322 191.704 72.1736 184.44 75.3125C184.098 73.4591 183.201 71.7645 181.877 70.4702C180.552 69.1758 178.867 68.3476 177.061 68.1036C175.251 67.9327 173.429 68.2569 171.777 69.0436C170.125 69.8303 168.701 71.0521 167.647 72.5872C165.982 71.3845 164.004 70.7331 161.974 70.7185C159.944 70.704 157.957 71.3272 156.276 72.5058C154.594 73.6845 153.297 75.3635 152.554 77.3215C151.812 79.2795 151.659 81.4247 152.116 83.4745C154.011 85.0455 155.424 87.1528 156.186 89.5405C156.425 90.2478 155.349 90.6774 155.083 90.066C154.39 88.5275 153.389 87.1596 152.146 86.0533C150.903 84.9471 149.447 84.1279 147.874 83.6503C137.3 83.0749 131.325 90.9951 132.268 97.7145C130.816 97.8765 129.422 98.3918 128.199 99.2183C126.976 100.045 125.959 101.159 125.231 102.47C124.503 103.782 124.084 105.253 124.008 106.764C123.933 108.275 124.203 109.783 124.797 111.165C121.406 112.66 117.758 114.682 116.401 118.284C115.051 122.065 116.655 126.372 118.691 129.801C120.473 132.878 123.018 136.041 126.403 136.832C128.057 135.601 129.889 134.651 131.832 134.019C132.422 133.831 132.935 134.722 132.426 135.074C129.129 137.731 127.433 137.961 126.233 139.821C126.132 141.787 126.554 143.745 127.451 145.48C128.348 147.216 129.688 148.664 131.323 149.666C133.472 150.779 135.83 151.395 138.231 151.471C140.633 151.547 143.022 151.081 145.233 150.105C145.421 152.097 146.15 153.992 147.335 155.573C148.52 157.153 150.112 158.352 151.928 159.033C153.744 159.713 155.709 159.846 157.595 159.417C159.481 158.988 161.211 158.013 162.585 156.607C162.893 160.649 163.103 164.705 163.14 168.829C163.14 170.227 165.314 170.227 165.261 168.829C164.902 159.664 165.168 150.079 162.729 141.2C163.267 140.457 162.729 139.11 161.698 139.47C158.806 140.525 154.318 139.118 154.148 135.34C154.185 134.586 154.366 133.848 154.682 133.169C154.998 132.489 155.441 131.882 155.986 131.382C156.531 130.882 157.167 130.501 157.857 130.259C158.546 130.017 159.275 129.921 160.001 129.975C160.149 129.972 160.293 129.919 160.41 129.824C160.526 129.729 160.61 129.597 160.648 129.449C160.687 129.3 160.677 129.143 160.622 129C160.566 128.858 160.468 128.738 160.34 128.658C159.982 128.479 159.602 128.351 159.211 128.279C159.427 127.916 159.552 127.505 159.577 127.08C159.917 123.696 161.085 120.459 162.97 117.675C163.592 116.868 164.399 116.236 165.317 115.837C166.236 115.438 167.237 115.284 168.228 115.389C168.833 115.47 169.446 115.304 169.936 114.926C170.425 114.548 170.754 113.988 170.853 113.363C171.043 112.55 171.397 111.787 171.893 111.126C172.388 110.466 173.014 109.922 173.728 109.531C174.442 109.14 175.229 108.911 176.035 108.86C176.841 108.808 177.648 108.935 178.403 109.231C178.637 109.319 178.885 109.356 179.133 109.341C179.38 109.325 179.623 109.258 179.845 109.143C180.066 109.028 180.264 108.867 180.424 108.671C180.584 108.475 180.704 108.246 180.777 108C180.971 107.304 181.298 106.655 181.738 106.091C182.177 105.527 182.721 105.059 183.337 104.715C183.953 104.372 184.629 104.159 185.326 104.089C186.022 104.019 186.725 104.093 187.393 104.308C187.967 104.496 188.588 104.457 189.136 104.199C189.685 103.94 190.121 103.481 190.362 102.909C190.551 102.246 190.894 101.64 191.361 101.146C191.829 100.652 192.406 100.285 193.043 100.077C193.679 99.8682 194.356 99.8251 195.012 99.9512C195.669 100.077 196.285 100.369 196.807 100.799C198.928 102.468 199.013 105.195 199.522 107.655C202.265 119.855 205.62 133.541 199.946 144.75C197.224 149.974 192.66 153.905 187.207 155.723C181.754 157.541 175.834 157.106 170.684 154.507C169.845 154.049 169.242 155.21 169.913 155.826C173.323 158.427 177.529 159.655 181.748 159.28C181.93 163.078 182.368 166.858 183.059 170.593C183.079 170.889 183.201 171.168 183.404 171.378C183.607 171.588 183.876 171.714 184.162 171.734C185.859 171.824 187.661 172.285 188.997 170.945C189.142 170.793 189.234 170.595 189.258 170.383C189.282 170.171 189.236 169.957 189.129 169.775C189.021 169.593 188.858 169.453 188.665 169.378C188.472 169.303 188.26 169.298 188.064 169.362C187.082 169.579 186.075 169.647 185.074 169.562C184.806 166.033 184.276 162.531 183.489 159.086C187.329 158.435 190.979 156.9 194.17 154.594C197.362 152.287 200.013 149.268 201.93 145.759C204.67 145.805 207.325 144.776 209.363 142.877C211.402 140.979 212.672 138.352 212.919 135.523C214.611 136.033 216.423 135.897 218.026 135.139C219.63 134.381 220.917 133.052 221.654 131.393C222.361 129.718 222.733 127.912 222.747 126.084C222.762 124.255 222.419 122.443 221.739 120.756C221.828 120.656 221.743 120.304 221.658 119.957ZM145.239 107.119C145.12 107.043 145.031 106.926 144.986 106.788C144.942 106.651 144.945 106.501 144.995 106.366C145.045 106.231 145.14 106.118 145.261 106.047C145.383 105.976 145.525 105.951 145.663 105.976C146.541 106.401 147.496 106.629 148.465 106.643C149.434 106.658 150.395 106.459 151.285 106.061C152.175 105.662 152.973 105.073 153.626 104.331C154.28 103.589 154.774 102.713 155.077 101.759C155.332 101.055 156.452 101.143 156.427 101.934C156.307 107.827 149.509 109.513 145.239 107.119ZM179.843 82.8591C176.622 83.2987 173.059 85.2328 173.568 89.1869C173.653 89.8902 172.635 89.9861 172.465 89.3647C171.362 84.7932 175.689 81.6283 179.76 81.6283C180.352 81.6283 180.524 82.7712 179.843 82.8591Z" fill="#325192"/>
<path d="M213.345 215.768C213.26 214.537 212.155 214.911 210.97 214.801C205.448 214.287 200.436 195.552 199.859 191.066C198.752 182.147 198.214 173.161 198.247 164.169C198.246 163.894 198.163 163.626 198.011 163.401C197.859 163.176 197.644 163.004 197.395 162.908C197.147 162.813 196.876 162.798 196.619 162.866C196.362 162.934 196.131 163.082 195.957 163.289C194.483 165.715 193.529 168.441 193.159 171.282C191.635 178.253 188.357 184.682 183.659 189.915C182.35 191.424 180.638 192.495 178.74 192.992C173.905 194.133 171.544 190.523 169.579 187.198C167.136 183.054 164.647 179.03 162.201 174.89C159.396 170.149 157.928 168.387 152.7 168.387C152.499 168.392 152.302 168.447 152.124 168.546C151.947 168.645 151.795 168.785 151.68 168.956C151.564 169.127 151.489 169.324 151.461 169.53C151.432 169.736 151.45 169.947 151.514 170.145C156.093 183.154 153.808 219.017 144.982 219.193C144.049 219.213 143.191 225.055 146 225.522C158.175 227.544 170.595 230.07 182.81 228.687C193.071 227.524 202.545 227.037 211.564 223.061C212.064 222.85 212.488 222.483 212.777 222.01C213.066 221.537 213.205 220.982 213.175 220.423L213.345 215.768ZM189.088 190.715C184.268 194.429 181.364 201.804 174.16 198.891C167.879 196.351 163.905 187.134 160.335 181.749C159.922 181.126 160.93 180.517 161.352 181.134C164.765 186.129 168.056 193.436 173.306 196.519C180.942 200.995 183.034 192.421 188.403 189.486C188.561 189.392 188.747 189.366 188.923 189.415C189.098 189.464 189.248 189.583 189.338 189.746C189.429 189.908 189.454 190.102 189.407 190.284C189.36 190.466 189.245 190.621 189.088 190.715Z" fill="#4191A1"/>
<path d="M145.324 213.133C145.272 209.124 144.903 205.126 144.221 201.179C144.028 200.038 142.274 200.473 142.524 201.706C143.296 205.483 143.702 209.363 144.136 213.221C144.211 213.838 145.324 213.924 145.324 213.133Z" fill="#325192"/>
<path d="M208.684 204.516C209.008 199.807 209.093 195.083 208.938 190.364C208.938 189.135 206.989 189.133 207.072 190.364C207.157 195.111 207.018 199.863 207.411 204.516C207.411 204.691 207.478 204.859 207.598 204.982C207.717 205.106 207.879 205.175 208.047 205.175C208.216 205.175 208.378 205.106 208.497 204.982C208.617 204.859 208.684 204.691 208.684 204.516Z" fill="#325192"/>
<path d="M341.338 308.593C341.521 308.566 341.69 308.471 341.811 308.325C341.933 308.18 342 307.994 342 307.802C342 307.609 341.933 307.423 341.811 307.278C341.69 307.132 341.521 307.038 341.338 307.01C338.741 306.798 336.164 306.387 333.626 305.78C333.56 302.907 333.031 300.067 332.06 297.376C334.617 297.899 337.239 297.977 339.82 297.606C340.012 297.606 340.195 297.527 340.33 297.387C340.465 297.247 340.541 297.057 340.541 296.858C340.541 296.66 340.465 296.47 340.33 296.33C340.195 296.19 340.012 296.111 339.82 296.111C337.021 296.023 334.22 295.759 331.42 295.759C330.601 293.878 329.594 292.092 328.415 290.429C331.251 290.634 334.095 290.682 336.936 290.572C337.869 290.572 337.871 289.062 336.936 288.99C333.975 288.731 331 288.673 328.031 288.816C327.921 288.833 327.815 288.873 327.719 288.933C327.624 288.993 327.541 289.072 327.476 289.166C326.26 287.621 324.924 286.184 323.479 284.868C325.407 284.59 327.335 284.269 329.219 283.805C329.99 283.629 329.895 282.223 329.047 282.311C326.678 282.603 324.325 283.025 321.999 283.575C319.9 281.85 317.67 280.302 315.332 278.948C317.127 278.619 318.902 278.186 320.651 277.651C321.584 277.387 321.158 276.053 320.227 276.157C317.839 276.477 315.481 277.008 313.18 277.743C313.373 277.743 309.347 275.807 306.612 274.686C309.748 273.722 312.776 272.418 315.648 270.794C315.79 270.714 315.898 270.582 315.952 270.424C316.005 270.266 315.999 270.093 315.935 269.939C315.871 269.785 315.754 269.661 315.607 269.592C315.46 269.523 315.293 269.513 315.139 269.565C311.54 270.672 308.054 272.137 304.728 273.941C300.918 272.482 299.908 272.298 300.101 272.298C303.243 270.885 306.31 269.298 309.288 267.543C309.43 267.44 309.533 267.288 309.58 267.115C309.626 266.941 309.614 266.756 309.544 266.592C309.474 266.427 309.351 266.292 309.196 266.211C309.041 266.129 308.864 266.106 308.694 266.144C306.115 267.125 303.628 268.348 301.264 269.797C302.063 268.04 302.356 266.081 302.11 264.155C301.863 262.23 301.087 260.418 299.874 258.938C295.632 253.839 288.846 251.025 282.74 249.347C270.016 246.006 256.701 246.975 243.894 249.259C230.168 251.659 216.674 255.313 203.569 260.178C205.723 257.195 205.559 253.099 205.981 249.523C206.872 243.089 207.296 236.595 207.252 230.096C207.241 229.87 207.148 229.657 206.99 229.501C206.832 229.346 206.622 229.259 206.404 229.259C206.186 229.259 205.977 229.346 205.819 229.501C205.661 229.657 205.568 229.87 205.557 230.096C205.445 237.711 204.907 245.313 203.945 252.864C203.952 254.675 203.606 256.469 202.927 258.138C200.807 262.268 196.141 262.886 192.071 263.235C181.646 263.965 171.181 263.848 160.773 262.886C160.688 262.886 156.532 262.796 156.532 262.886C155.761 262.268 155.599 258.138 155.429 257.171C153.817 248.995 152.123 240.821 151.105 232.47C150.935 231.854 149.755 231.766 149.832 232.645C150.968 242.576 152.882 252.426 154.829 262.118C133.965 254.949 111.588 252.032 89.7809 249.962C80.1972 248.995 69.6803 247.501 60.5187 251.633C58.1392 252.594 55.9659 254.032 54.123 255.864C52.2801 257.696 50.8038 259.887 49.7785 262.311C48.7532 264.735 48.1991 267.345 48.1478 269.991C48.0964 272.638 48.5489 275.268 49.4794 277.733C46.6185 278.646 43.8123 279.733 41.0755 280.99C41.033 280.857 40.9569 280.738 40.8553 280.646C40.7536 280.553 40.63 280.491 40.4972 280.464C38.2174 279.649 35.9805 278.71 33.7957 277.651C33.2019 277.3 32.6081 278.354 33.117 278.882C34.8634 280.321 36.8797 281.368 39.0377 281.955C36.8823 283.022 34.7577 284.197 32.6871 285.474C29.6371 285.034 26.67 284.243 23.6258 283.629C23.4537 283.594 23.275 283.625 23.124 283.718C22.973 283.811 22.8603 283.958 22.8077 284.131C22.7551 284.305 22.7662 284.492 22.8389 284.658C22.9117 284.823 23.0408 284.955 23.2017 285.028C25.5115 285.969 27.923 286.615 30.3832 286.954C27.1285 289.122 24.0538 291.568 21.1908 294.265C18.3553 293.727 15.4821 293.431 12.6 293.38C11.8288 293.292 11.5762 294.631 12.4303 294.874C14.7519 295.424 17.1121 295.78 19.4885 295.939C16.7499 298.685 14.3206 301.743 12.2472 305.056C9.65215 304.703 7.13813 304.101 4.53542 303.84C3.68713 303.666 3.60423 304.982 4.36576 305.334C6.60339 306.111 8.92346 306.605 11.2755 306.805C10.0823 309.123 9.22235 311.609 8.72289 314.185C8.42984 314.185 9.15667 314.185 0.55038 315.784C0.378641 315.829 0.228725 315.938 0.128439 316.09C0.0281527 316.241 -0.0156977 316.425 0.00501967 316.608C0.025737 316.79 0.109618 316.959 0.241103 317.082C0.372587 317.205 0.542753 317.275 0.720039 317.278C3.32956 317.177 5.91826 316.755 8.43177 316.022C8.07317 319.087 8.28256 322.196 9.04871 325.181C6.25314 325.103 3.45775 325.342 0.712327 325.894C0.0336945 325.982 0.203353 327.125 0.881986 327.213C2.4652 327.271 4.0503 327.242 5.63048 327.125C6.93338 327.136 8.23447 327.022 9.5172 326.785C10.3792 329.388 11.626 331.836 13.213 334.042C10.6891 334.653 8.21153 335.454 5.80014 336.44C5.02897 336.791 5.29117 338.022 6.13946 337.758C8.89996 337.179 11.6189 336.405 14.2773 335.44C15.4962 336.942 16.8471 338.322 18.3124 339.564C16.29 341.393 14.1423 343.207 11.9927 344.877C11.314 345.407 11.9078 346.636 12.6713 346.11C15.1263 344.47 17.4628 342.646 19.662 340.653C21.4311 342 23.3007 343.198 25.253 344.238C22.8587 346.213 20.8103 348.6 19.1973 351.295C18.6884 352.174 19.9685 352.877 20.4698 352.094C22.1925 349.408 24.3129 347.021 26.7529 345.019C28.2355 345.75 29.7509 346.418 31.2893 347.017C30.2095 349.352 29.342 351.786 28.6982 354.288C28.4437 355.167 29.5446 355.687 29.8839 354.903C31.0067 352.535 31.9341 350.072 32.6562 347.541C34.5437 348.246 36.4581 348.879 38.3726 349.469C37.8788 350.325 37.5593 351.277 37.4337 352.266C37.0943 353.665 36.755 354.991 36.5005 356.398C36.3309 357.451 37.6882 357.797 37.9426 356.925C38.4884 354.563 39.1565 352.232 39.9438 349.944C42.0941 350.576 44.2528 351.184 46.4198 351.77C46.0342 352.67 45.7932 353.679 45.4905 354.552C45.0394 355.858 44.7193 357.277 44.3877 358.596C44.3029 359.385 45.4905 359.737 45.7373 358.945C46.6278 356.746 47.3932 354.494 48.0296 352.202C50.1889 352.776 52.3539 353.329 54.5248 353.86C54.2414 355.173 54.01 356.48 53.7112 357.717C53.3719 359.209 52.8629 360.616 52.6084 362.112C52.5879 362.264 52.6187 362.419 52.6954 362.55C52.7721 362.682 52.8901 362.781 53.0296 362.833C53.1691 362.885 53.3214 362.885 53.461 362.834C53.6007 362.782 53.719 362.683 53.796 362.552C55.094 359.972 55.8763 357.147 56.0961 354.246C59.0522 354.961 62.0084 355.651 64.9646 356.316C64.0343 359.289 63.2499 362.31 62.6144 365.365C62.5868 365.534 62.6209 365.706 62.71 365.85C62.7991 365.994 62.9367 366.098 63.096 366.142C63.2552 366.186 63.4246 366.167 63.5709 366.088C63.7172 366.009 63.8298 365.877 63.8868 365.717C64.8508 362.72 65.7357 359.723 66.4761 356.654C66.4761 356.654 70.1256 357.463 71.936 357.853C70.985 360.11 70.332 362.49 69.9945 364.928C69.9667 365.043 69.961 365.163 69.9779 365.28C69.9947 365.398 70.0338 365.511 70.0927 365.613C70.1517 365.715 70.2295 365.804 70.3217 365.875C70.4138 365.945 70.5185 365.997 70.6298 366.025C70.7411 366.054 70.8567 366.06 70.9702 366.043C71.0836 366.025 71.1927 365.985 71.291 365.924C71.3894 365.863 71.4752 365.782 71.5435 365.686C71.6118 365.591 71.6613 365.482 71.6892 365.367C72.2069 362.947 72.8505 360.557 73.6171 358.208C76.0592 358.721 78.5012 359.217 80.9433 359.695C79.9946 362.188 79.1754 364.733 78.489 367.317C78.1497 368.46 79.7614 368.9 80.1856 367.757C81.1359 365.232 81.9381 362.65 82.5878 360.024C85.364 360.557 88.1428 361.068 90.9242 361.557C90.0273 364.006 89.3011 366.519 88.7514 369.075C88.6951 369.297 88.7261 369.533 88.8375 369.73C88.9488 369.928 89.1315 370.072 89.3452 370.13C89.5589 370.189 89.7862 370.157 89.9771 370.041C90.1681 369.926 90.3069 369.737 90.3631 369.515C91.2458 367.011 91.9331 364.437 92.4183 361.819C95.1097 362.285 97.8043 362.73 100.502 363.155C99.2347 366.096 98.2812 369.171 97.6584 372.326C97.5736 373.205 98.6745 373.823 99.0986 372.944C100.421 369.885 101.401 366.68 102.019 363.391C104.461 363.769 106.904 364.131 109.346 364.476C108.551 367.063 107.989 369.72 107.664 372.414C107.58 373.381 108.937 373.381 109.191 372.59C110.002 370.02 110.571 367.375 110.89 364.692C113.226 365.015 115.563 365.325 117.898 365.619C117.142 368.554 116.528 371.527 116.061 374.526C115.891 375.491 117.248 375.925 117.503 374.964C118.284 371.947 118.908 368.889 119.373 365.803C119.909 365.869 124 366.342 125.517 366.506C124.999 368.176 124.617 369.887 124.374 371.623C124.204 372.502 125.39 373.118 125.816 372.24C126.581 370.484 127.053 368.606 127.212 366.686C129.59 366.934 131.967 367.165 134.345 367.379C133.439 370.088 132.852 372.9 132.598 375.755C132.514 376.722 133.948 376.898 134.21 376.019C134.933 373.273 135.504 370.368 136.065 367.533C138.029 367.704 139.993 367.863 141.958 368.011C141.953 369.66 141.684 371.297 141.164 372.856C141.116 373.047 141.137 373.249 141.222 373.425C141.307 373.602 141.451 373.74 141.627 373.815C141.803 373.89 141.999 373.896 142.179 373.832C142.359 373.769 142.511 373.64 142.606 373.469C143.385 371.811 143.721 369.968 143.582 368.13C145.419 368.264 147.256 368.386 149.094 368.498C148.458 370.974 147.651 373.399 146.678 375.755C146.622 375.866 146.589 375.989 146.581 376.114C146.573 376.239 146.591 376.365 146.632 376.483C146.673 376.601 146.737 376.709 146.821 376.8C146.904 376.891 147.005 376.963 147.116 377.011C147.228 377.06 147.348 377.084 147.469 377.083C147.59 377.081 147.71 377.053 147.82 377.001C147.93 376.949 148.029 376.874 148.11 376.781C148.191 376.687 148.252 376.577 148.29 376.458C149.385 373.94 150.205 371.303 150.733 368.596C152.828 368.72 154.924 368.83 157.021 368.926C156.462 371.929 156.179 374.981 156.177 378.041C156.177 378.84 157.527 379.094 157.619 378.217C157.978 375.108 158.207 372.023 158.612 368.996C161.105 369.103 163.598 369.192 166.09 369.261C166.023 371.701 165.637 374.204 165.678 376.634C165.69 376.799 165.757 376.955 165.867 377.075C165.978 377.196 166.125 377.273 166.283 377.293C166.442 377.314 166.603 377.277 166.739 377.189C166.874 377.101 166.976 376.967 167.027 376.81C167.514 374.341 167.714 371.821 167.623 369.303C170.682 369.379 173.742 369.429 176.802 369.453C176.224 371.553 175.476 373.649 175.086 375.755C174.917 376.634 176.104 377.249 176.528 376.37C177.448 374.153 178.122 371.836 178.537 369.461C180.632 369.469 182.728 369.464 184.826 369.447C184.357 371.64 184.049 373.866 183.906 376.107C183.902 376.306 183.97 376.5 184.097 376.651C184.224 376.801 184.401 376.897 184.592 376.919C184.784 376.941 184.976 376.888 185.132 376.77C185.288 376.652 185.395 376.478 185.433 376.282C185.875 374.019 186.172 371.687 186.413 369.431C188.017 369.414 189.623 369.387 191.233 369.351C190.692 371.991 190.287 374.659 190.02 377.343C189.951 378.225 191.292 378.398 191.547 377.519C192.181 374.823 192.647 372.086 192.941 369.327C195.47 369.265 198 369.183 200.531 369.083C200.356 372.31 199.689 375.621 199.689 378.846C199.689 379.725 201.038 379.989 201.215 379.022C201.821 375.723 202.132 372.373 202.143 369.016C204.724 368.906 207.305 368.776 209.887 368.626C209.782 370.166 209.889 371.713 210.205 373.221C210.251 373.385 210.351 373.526 210.488 373.62C210.624 373.714 210.789 373.754 210.952 373.733C211.115 373.712 211.265 373.631 211.376 373.506C211.486 373.38 211.55 373.218 211.555 373.048C211.592 371.537 211.638 370.033 211.586 368.524C213.329 368.416 215.071 368.299 216.812 368.172C217.055 371.769 217.005 375.347 217.323 378.936C217.337 379.147 217.428 379.345 217.578 379.49C217.728 379.635 217.925 379.715 218.129 379.715C218.334 379.715 218.531 379.635 218.68 379.49C218.83 379.345 218.921 379.147 218.935 378.936C219.145 375.299 218.946 371.648 218.343 368.058C220.54 367.893 222.734 367.713 224.927 367.517C224.989 369.25 225.141 370.979 225.38 372.696C225.55 373.573 226.73 373.309 226.822 372.518C226.904 370.797 226.795 369.071 226.498 367.375C228.992 367.145 231.482 366.896 233.969 366.63C233.935 370.003 234.298 373.368 235.049 376.65C235.303 377.529 236.639 377.355 236.576 376.474C236.337 373.118 235.818 369.827 235.392 366.474C237.663 366.221 239.941 365.947 242.226 365.653C242.271 367.608 242.626 369.542 243.277 371.377C243.532 372.081 244.719 372.081 244.627 371.201C244.504 369.263 244.237 367.337 243.829 365.441C245.485 365.22 247.142 364.984 248.799 364.734C250.522 367.467 251.778 370.487 252.514 373.661C252.768 374.804 254.465 374.364 254.21 373.133C253.585 370.007 252.324 367.054 250.511 364.472C252.953 364.088 255.388 363.67 257.816 363.217C259.223 365.789 260.455 368.46 261.504 371.209C261.843 372.009 262.931 371.389 262.776 370.682C262.125 367.897 260.97 365.266 259.372 362.928C261.878 362.44 264.375 361.907 266.862 361.329C268.157 364.184 269.464 367.032 271.005 369.721C271.093 369.846 271.22 369.936 271.365 369.977C271.509 370.018 271.663 370.007 271.801 369.946C271.938 369.885 272.052 369.777 272.123 369.641C272.194 369.504 272.219 369.346 272.192 369.193C271.231 366.314 269.97 363.551 268.433 360.953C270.696 360.402 272.945 359.803 275.181 359.155C276.281 361.191 277.491 363.161 278.805 365.055C278.907 365.23 279.072 365.356 279.264 365.405C279.456 365.453 279.658 365.421 279.827 365.315C279.996 365.209 280.117 365.038 280.164 364.839C280.211 364.641 280.18 364.431 280.078 364.256C279.172 362.271 278.041 360.404 276.708 358.698C279.123 357.974 281.516 357.188 283.887 356.34C284.749 358.676 285.485 361.147 286.525 363.465C286.864 364.344 288.05 363.641 287.874 362.85C287.318 360.4 286.428 358.046 285.231 355.856C287.186 355.132 289.121 354.359 291.036 353.537C291.998 355.846 293.307 357.983 294.913 359.869C295.034 359.993 295.194 360.068 295.363 360.079C295.533 360.09 295.701 360.037 295.836 359.929C295.971 359.822 296.063 359.667 296.096 359.494C296.129 359.322 296.101 359.142 296.016 358.989C294.952 356.941 293.614 354.961 292.432 352.927C294.689 351.923 296.912 350.844 299.102 349.691C299.789 351.973 301.001 354.049 302.632 355.739C302.768 355.856 302.939 355.921 303.115 355.924C303.292 355.927 303.464 355.866 303.603 355.753C303.742 355.64 303.839 355.48 303.878 355.302C303.918 355.123 303.896 354.936 303.818 354.772C302.586 352.908 301.514 350.935 300.614 348.877C302.818 347.666 304.979 346.372 307.098 344.993C308.616 346.999 310.364 348.806 312.303 350.376C312.982 350.903 313.575 349.848 313.074 349.321C311.601 347.489 309.872 345.924 308.276 344.218C310.778 342.53 313.21 340.71 315.571 338.757C316.879 340.271 318.486 341.476 320.283 342.29C321.054 342.641 321.385 341.411 320.792 341.059C319.346 340.087 317.97 339.007 316.676 337.828C319.041 335.8 321.289 333.632 322.563 332.286C324.192 334.208 326.361 335.555 328.766 336.136C328.955 336.187 329.156 336.161 329.326 336.061C329.497 335.961 329.623 335.797 329.678 335.602C329.734 335.408 329.713 335.198 329.622 335.019C329.531 334.84 329.376 334.704 329.19 334.641C327.06 334.01 325.128 332.812 323.585 331.165C324.832 329.746 325.985 328.243 327.038 326.665C328.641 327.933 330.425 328.934 332.326 329.632C333.098 329.894 333.514 328.665 332.835 328.311C331.154 327.402 329.471 326.493 327.842 325.414C328.706 324.02 329.489 322.574 330.186 321.083C332.94 322.295 335.777 323.584 338.689 324.533C339.46 324.797 339.961 323.566 339.282 323.135C336.529 321.807 333.7 320.654 330.811 319.684C331.262 318.613 331.665 317.522 332.016 316.419C334.992 316.36 337.966 316.608 340.894 317.158C341.049 317.149 341.198 317.089 341.318 316.987C341.437 316.884 341.523 316.745 341.56 316.588C341.598 316.432 341.587 316.268 341.528 316.119C341.469 315.969 341.366 315.844 341.233 315.76C338.452 314.668 335.448 314.324 332.504 314.761C333.149 312.362 333.515 309.893 333.595 307.404C336.074 308.328 338.706 308.732 341.338 308.593ZM57.7078 255.765C66.1059 249.699 77.0469 250.929 86.7155 251.809C110.003 253.763 133.079 257.849 155.672 264.019C165.026 265.022 174.428 265.463 183.831 265.337C188.589 265.203 195.152 265.689 199.86 263.289C221.465 256.35 244.675 248.286 267.631 249.427C277.978 249.954 308.343 255.221 297.572 272.205C291.718 281.346 281.117 287.148 271.787 291.542C251.86 300.982 227.831 304.571 225.478 305.666C223.274 305.479 221.057 305.569 218.873 305.933C208.557 297.727 195.738 292.259 183.207 287.763C200.442 280.301 210.928 273.403 246.761 266.49C247.694 266.314 247.272 264.928 246.422 265.092C233.754 267.181 221.253 270.236 209.02 274.233C199.461 277.593 189.089 281.378 180.294 286.738C155.985 278.085 130.837 272.212 105.297 269.223C104.449 269.136 104.445 270.652 105.382 270.804C140.684 276.564 187.257 286.654 216.918 307.368C216.617 307.747 216.358 308.161 216.147 308.601C214.333 311.225 213.486 314.436 213.762 317.652C188.863 314.006 159.115 311.458 133.79 310.007C112.34 308.609 101.339 309.942 75.7745 298.141C67.6328 294.449 59.1499 290.229 54.0621 282.407C48.3785 273.697 48.9723 262.094 57.7078 255.765ZM101.05 320.02C101.968 320.82 103.085 321.338 104.273 321.514C120.818 325.562 138.236 322.664 152.726 313.452C208.804 317.66 215.025 321.244 216.487 320.046C224.293 323.5 232.427 324.911 240.489 326.697C249.225 328.631 258.805 329.332 266.698 324.851C267.707 324.345 268.581 323.591 269.243 322.653C269.725 321.728 269.934 320.676 269.843 319.629C269.753 318.581 269.367 317.585 268.734 316.763C267.409 315.173 265.756 313.912 263.898 313.072C254.885 308.477 244.735 307.212 234.682 306.355C251.49 302.936 267.7 296.9 282.763 288.451C293.795 297.026 295.295 304.974 290.446 316.062C286.269 324.796 279.529 331.935 271.194 336.453C253.297 346.825 232.263 347.617 212.245 348.056C168.649 349.023 124.376 349.99 81.7973 339.003C71.026 336.19 58.3864 333.113 52.4503 322.301C50.9631 319.767 50.0459 316.918 49.7669 313.965C49.4879 311.013 49.8542 308.034 50.8386 305.248C52.94 299.676 57.3724 296.257 61.9917 293.032C71.2805 299.502 89.137 306.393 100.011 308.938C99.094 310.681 98.7031 312.669 98.8883 314.644C99.0736 316.62 99.8265 318.492 101.05 320.02ZM321.235 330.919C311.821 340.765 298.759 348.502 286.376 353.511C271.703 359.399 256.011 362.038 240.405 363.883C173.939 371.884 106.612 366.693 42.0202 348.588C33.2828 346.128 24.208 343.139 17.5066 336.457C11.1444 330.218 7.75314 321.25 10.4677 312.373C11.0812 310.431 11.8896 308.56 12.8795 306.793C12.9639 306.73 13.0347 306.65 13.0872 306.558C13.1397 306.465 13.1727 306.362 13.1841 306.255C20.1035 294.303 36.6471 283.278 49.8746 278.846C52.2569 284.353 56.1188 289.032 60.9988 292.325C54.1816 296.844 48.2899 302.583 48.0412 311.582C47.7867 321.162 54.064 329.336 61.7815 333.82C71.8762 339.614 84.3383 341.73 95.6245 344.01C132.618 351.467 171.949 350.895 209.951 349.988C231.835 349.461 255.329 349.021 274.583 336.539C283.318 330.913 290.951 322.387 293.75 311.84C295.211 307.551 295.09 302.854 293.411 298.653C291.273 294.238 288.149 290.417 284.298 287.508C290.129 284.077 295.197 279.413 299.174 273.819C310.836 277.717 324.175 284.117 329.635 296.197C334.975 308.065 329.633 322.217 321.235 330.919Z" fill="#325192"/>
</svg>
